{
.appVersion = "913";
DisplayStrings = (
IO
);
copyright = "Nunito Font, Copyright (c) 2014, Vernon Adams (vern@newtypography.co.uk)";
customParameters = (
{
name = license;
value = "This Font Software is licensed under the SIL Open Font License, Version 1.1. This license is available with a FAQ at: http://scripts.sil.org/OFL";
},
{
name = licenseURL;
value = "http://scripts.sil.org/OFL";
},
{
name = vendorID;
value = NeWT;
},
{
name = trademark;
value = "Nunito is a trademark of Vernon Adams and may be registered in certain jurisdictions.";
},
{
name = fsType;
value = 0;
},
{
name = "Use Typo Metrics";
value = 1;
}
);
date = "2016-08-09 21:08:05 +0000";
designer = "Vernon Adams";
designerURL = "http://newtypography.co.uk";
familyName = Nunito;
featurePrefixes = (
{
automatic = 1;

glyphs = (
{
glyphname = A;
lastChange = "2016-08-17 19:36:01 +0000";
layers = (
{
background = {
paths = (
{
closed = 1;
nodes = (
"359 658 LINE",
"329 658 LINE",
"613 14 LINE SMOOTH",
"629 -22 OFFCURVE",
"684 -1 OFFCURVE",
"669 33 CURVE SMOOTH",
"378 689 LINE SMOOTH",
"366 717 OFFCURVE",
"323 719 OFFCURVE",
"310 689 CURVE SMOOTH",
"19 33 LINE SMOOTH",
"4 -1 OFFCURVE",
"59 -22 OFFCURVE",
"75 14 CURVE SMOOTH"
);
},
{
closed = 1;
nodes = (
"553 188 LINE",
"533 242 LINE",
"157 242 LINE",
"137 188 LINE"
);
}
);
};
layerId = "9E718F8A-2CEA-4931-B05D-987794BD97DA";
paths = (
{
closed = 1;
nodes = (
"358 659 LINE",
"330 659 LINE",
"614 14 LINE SMOOTH",
"630 -22 OFFCURVE",
"684 -1 OFFCURVE",
"669 33 CURVE SMOOTH",
"378 689 LINE SMOOTH",
"366 717 OFFCURVE",
"323 719 OFFCURVE",
"310 689 CURVE SMOOTH",
"19 33 LINE SMOOTH",
"4 -1 OFFCURVE",
"58 -22 OFFCURVE",
"74 14 CURVE SMOOTH"
);
},
{
closed = 1;
nodes = (
"553 188 LINE",
"533 242 LINE",
"157 242 LINE",
"137 188 LINE"
);
}
);
width = 688;
},
{
background = {
paths = (
{
closed = 1;
nodes = (
"397 550 LINE",
"353 550 LINE",
"580 45 LINE SMOOTH",
"624 -54 OFFCURVE",
"782 14 OFFCURVE",
"734 113 CURVE SMOOTH",
"470 655 LINE SMOOTH",
"434 729 OFFCURVE",
"317 731 OFFCURVE",
"280 655 CURVE SMOOTH",
"16 113 LINE SMOOTH",
"-32 14 OFFCURVE",
"126 -54 OFFCURVE",
"170 45 CURVE SMOOTH"
);
},
{
closed = 1;
nodes = (
"613 146 LINE",
"543 284 LINE",
"196 284 LINE",
"126 146 LINE"
);
}
);
};
layerId = "E1B555A7-F4E1-459C-9C1A-AE952106EEF9";
paths = (
{
closed = 1;
nodes = (
"395 551 LINE",
"360 551 LINE",
"587 45 LINE SMOOTH",
"632 -54 OFFCURVE",
"782 14 OFFCURVE",
"734 113 CURVE SMOOTH",
"470 655 LINE SMOOTH",
"434 729 OFFCURVE",
"317 731 OFFCURVE",
"280 655 CURVE SMOOTH",
"16 113 LINE SMOOTH",
"-32 14 OFFCURVE",
"121 -54 OFFCURVE",
"166 45 CURVE SMOOTH"
);
},
{
closed = 1;
nodes = (
"613 146 LINE",
"543 284 LINE",
"196 284 LINE",
"126 146 LINE"
);
}
);
width = 750;
}
);
unicode = 0041;
userData = {
anchors = (
);
b = {
};
com.typemytype.robofont.layerData = {
b = {
anchors = (
);
components = (
);
contours = (
{
points = (
{
segmentType = line;
smooth = 0;
x = 403;
y = 502;
},
{
segmentType = line;
smooth = 0;
x = 703;
y = 1275;
},
{
segmentType = line;
smooth = 0;
x = 705;
y = 1275;
},
{
segmentType = line;
smooth = 0;
x = 1004;
y = 502;
}
);
},
{
points = (
{
segmentType = curve;
smooth = 1;
x = 150;
y = 0;
},
{
smooth = 0;
x = 181;
y = 0;
},
{
smooth = 0;
x = 214;
y = 15;
},
{
segmentType = curve;
smooth = 1;
x = 229;
y = 53;
},
{
segmentType = line;
smooth = 0;
x = 356;
y = 373;
},
{
segmentType = line;
smooth = 0;
x = 1051;
y = 373;
},
{
segmentType = line;
smooth = 1;
x = 1179;
y = 53;
},
{
smooth = 0;
x = 1193;
y = 17;
},
{
smooth = 0;
x = 1228;
y = 0;
},
{
segmentType = curve;
smooth = 1;
x = 1260;
y = 0;
},
{
smooth = 0;
x = 1306;
y = 0;
},
{
smooth = 0;
x = 1354;
y = 31;
},
{
segmentType = curve;
smooth = 1;
x = 1354;
y = 80;
},
{
smooth = 0;
x = 1354;
y = 87;
},
{
smooth = 0;
x = 1352;
y = 97;
},
{
segmentType = curve;
smooth = 0;
x = 1349;
y = 108;
},
{
segmentType = line;
smooth = 1;
x = 871;
y = 1288;
},
{
smooth = 0;
x = 817;
y = 1420;
},
{
smooth = 0;
x = 777;
y = 1430;
},
{
segmentType = curve;
smooth = 1;
x = 710;
y = 1430;
},
{
smooth = 0;
x = 644;
y = 1430;
},
{
smooth = 0;
x = 596;
y = 1413;
},
{
segmentType = curve;
smooth = 1;
x = 542;
y = 1280;
},
{
segmentType = line;
smooth = 1;
x = 66;
y = 108;
},
{
smooth = 0;
x = 62;
y = 97;
},
{
smooth = 0;
x = 60;
y = 87;
},
{
segmentType = curve;
smooth = 1;
x = 60;
y = 78;
},
{
smooth = 0;
x = 60;
y = 32;
},
{
smooth = 0;
x = 106;
y = 0;
}
);
}
);
lib = {
};
name = A;
unicodes = (
);
width = 1414;
};
};
components = (
);
contours = {
};
lib = {
};
name = A;
points = {
};
segmentType = line;
unicodes = (
);
width = 1445;
x = 718;
y = 1232;
};
},
{
glyphname = AE;
lastChange = "2016-08-17 19:36:01 +0000";
layers = (
{
background = {
paths = (
{
closed = 1;
nodes = (
"993 -1 OFFCURVE",
"1004 3 OFFCURVE",
"1012 16 CURVE SMOOTH",
"1123 188 LINE",
"1479 188 LINE",
"1509 16 LINE SMOOTH",
"1512 0 OFFCURVE",
"1527 0 OFFCURVE",
"1541 0 CURVE SMOOTH",
"1842 0 LINE SMOOTH",
"1857 0 OFFCURVE",
"1864 12 OFFCURVE",
"1864 22 CURVE SMOOTH",
"1864 38 OFFCURVE",
"1851 55 OFFCURVE",
"1830 55 CURVE SMOOTH",
"1563 55 LINE",
"1517 331 LINE",
"1815 331 LINE SMOOTH",
"1831 331 OFFCURVE",
"1840 341 OFFCURVE",
"1840 353 CURVE SMOOTH",
"1840 369 OFFCURVE",
"1827 385 OFFCURVE",
"1806 385 CURVE SMOOTH",
"1508 385 LINE",
"1467 638 LINE",
"1830 638 LINE SMOOTH",
"1847 638 OFFCURVE",
"1853 648 OFFCURVE",
"1853 660 CURVE SMOOTH",
"1853 675 OFFCURVE",
"1841 693 OFFCURVE",
"1820 693 CURVE SMOOTH",
"1423 693 LINE SMOOTH",
"1404 693 OFFCURVE",
"1384 688 OFFCURVE",
"1351 638 CURVE SMOOTH",
"963 39 LINE SMOOTH",
"959 33 OFFCURVE",
"957 28 OFFCURVE",
"957 24 CURVE SMOOTH",
"957 9 OFFCURVE",
"968 -1 OFFCURVE",
"983 -1 CURVE SMOOTH"
);
},
{
closed = 1;
nodes = (
"1405 637 LINE",
"1407 637 LINE",
"1472 244 LINE",
"1161 244 LINE"
);
},
{
closed = 1;
nodes = (
"474 658 LINE",
"445 658 LINE",
"571 14 LINE SMOOTH",
"578 -22 OFFCURVE",
"633 -1 OFFCURVE",
"626 33 CURVE SMOOTH",
"496 689 LINE SMOOTH",
"491 717 OFFCURVE",
"449 719 OFFCURVE",
"428 689 CURVE SMOOTH",
"-24 33 LINE SMOOTH",
"-47 -1 OFFCURVE",
"7 -22 OFFCURVE",
"32 14 CURVE SMOOTH"
);
},
{
closed = 1;
nodes = (
"559 188 LINE",
"539 242 LINE",
"143 242 LINE",
"123 188 LINE"
);
},
{
closed = 1;
nodes = (
"858 0 LINE SMOOTH",
"875 0 OFFCURVE",
"886 11 OFFCURVE",
"886 28 CURVE SMOOTH",
"886 45 OFFCURVE",
"875 56 OFFCURVE",
"858 56 CURVE SMOOTH",
"505 56 LINE",
"505 330 LINE",
"838 330 LINE SMOOTH",
"855 330 OFFCURVE",
"866 341 OFFCURVE",
"866 358 CURVE SMOOTH",
"866 375 OFFCURVE",
"855 386 OFFCURVE",
"838 386 CURVE SMOOTH",
"505 386 LINE",
"505 649 LINE",
"858 649 LINE SMOOTH",
"875 649 OFFCURVE",
"886 660 OFFCURVE",
"886 677 CURVE SMOOTH",
"886 694 OFFCURVE",
"875 705 OFFCURVE",
"858 705 CURVE SMOOTH",
"478 705 LINE SMOOTH",
"459 705 OFFCURVE",
"445 692 OFFCURVE",
"445 674 CURVE SMOOTH",
"445 31 LINE SMOOTH",
"445 14 OFFCURVE",
"459 0 OFFCURVE",
"478 0 CURVE SMOOTH"
);
}
);
};
layerId = "9E718F8A-2CEA-4931-B05D-987794BD97DA";
paths = (
{
closed = 1;
nodes = (
"912 0 LINE SMOOTH",
"929 0 OFFCURVE",
"940 11 OFFCURVE",
"940 28 CURVE SMOOTH",
"940 45 OFFCURVE",
"929 56 OFFCURVE",
"912 56 CURVE SMOOTH",
"619 56 LINE",
"487 677 LINE",
"478 649 LINE",
"912 649 LINE SMOOTH",
"929 649 OFFCURVE",
"940 660 OFFCURVE",
"940 677 CURVE SMOOTH",
"940 694 OFFCURVE",
"929 705 OFFCURVE",
"912 705 CURVE SMOOTH",
"454 705 LINE SMOOTH",
"441 705 OFFCURVE",
"427 702 OFFCURVE",
"418 689 CURVE SMOOTH",
"17 33 LINE SMOOTH",
"-5 -2 OFFCURVE",
"49 -23 OFFCURVE",
"71 14 CURVE SMOOTH",
"462 658 LINE",
"435 658 LINE",
"568 31 LINE SMOOTH",
"572 14 OFFCURVE",
"582 0 OFFCURVE",
"601 0 CURVE SMOOTH"
);
},
{
closed = 1;
nodes = (
"559 188 LINE",
"539 242 LINE",
"163 242 LINE",
"143 188 LINE"
);
},
{
closed = 1;
nodes = (
"892 330 LINE SMOOTH",
"909 330 OFFCURVE",
"920 341 OFFCURVE",
"920 358 CURVE SMOOTH",
"920 375 OFFCURVE",
"909 386 OFFCURVE",
"892 386 CURVE SMOOTH",
"538 386 LINE",
"538 330 LINE"
);
}
);
width = 985;
},
{
background = {
paths = (
{
closed = 1;
nodes = (
"2108 0 LINE SMOOTH",
"2169 0 OFFCURVE",
"2195 26 OFFCURVE",
"2195 73 CURVE SMOOTH",
"2195 120 OFFCURVE",
"2169 146 OFFCURVE",
"2108 146 CURVE SMOOTH",
"1893 146 LINE",
"1798 559 LINE",
"2108 559 LINE SMOOTH",
"2169 559 OFFCURVE",
"2195 585 OFFCURVE",
"2195 632 CURVE SMOOTH",
"2195 679 OFFCURVE",
"2169 705 OFFCURVE",
"2108 705 CURVE SMOOTH",
"1677 705 LINE SMOOTH",
"1639 705 OFFCURVE",
"1598 689 OFFCURVE",
"1575 655 CURVE SMOOTH",
"1218 113 LINE SMOOTH",
"1151 12 OFFCURVE",
"1303 -57 OFFCURVE",
"1367 45 CURVE SMOOTH",
"1684 551 LINE",
"1635 551 LINE",
"1748 48 LINE SMOOTH",
"1755 16 OFFCURVE",
"1787 0 OFFCURVE",
"1827 0 CURVE SMOOTH"
);
},
{
closed = 1;
nodes = (
"1792 146 LINE",
"1753 284 LINE",
"1406 284 LINE",
"1335 146 LINE"
);
},
{
closed = 1;
nodes = (
"2088 283 LINE SMOOTH",
"2149 283 OFFCURVE",
"2175 309 OFFCURVE",
"2175 356 CURVE SMOOTH",
"2175 403 OFFCURVE",
"2149 429 OFFCURVE",
"2088 429 CURVE SMOOTH",
"1774 429 LINE",
"1774 283 LINE"
);
},
{
closed = 1;
nodes = (
"902 0 LINE SMOOTH",
"963 0 OFFCURVE",
"989 26 OFFCURVE",
"989 69 CURVE SMOOTH",
"989 112 OFFCURVE",
"963 138 OFFCURVE",
"902 138 CURVE SMOOTH",
"649 138 LINE",
"649 287 LINE",
"882 287 LINE SMOOTH",
"943 287 OFFCURVE",
"969 313 OFFCURVE",
"969 356 CURVE SMOOTH",
"969 399 OFFCURVE",
"943 425 OFFCURVE",
"882 425 CURVE SMOOTH",
"649 425 LINE",
"649 567 LINE",
"902 567 LINE SMOOTH",
"963 567 OFFCURVE",
"989 593 OFFCURVE",
"989 636 CURVE SMOOTH",
"989 679 OFFCURVE",
"963 705 OFFCURVE",
"902 705 CURVE SMOOTH",
"555 705 LINE SMOOTH",
"500 705 OFFCURVE",
"470 675 OFFCURVE",
"470 620 CURVE SMOOTH",
"470 85 LINE SMOOTH",
"470 30 OFFCURVE",
"500 0 OFFCURVE",
"555 0 CURVE SMOOTH"
);
}
);
};
layerId = "E1B555A7-F4E1-459C-9C1A-AE952106EEF9";
paths = (
{
closed = 1;
nodes = (
"902 0 LINE SMOOTH",
"963 0 OFFCURVE",
"989 26 OFFCURVE",
"989 69 CURVE SMOOTH",
"989 112 OFFCURVE",
"963 138 OFFCURVE",
"902 138 CURVE SMOOTH",
"695 138 LINE",
"589 603 LINE",
"553 567 LINE",
"902 567 LINE SMOOTH",
"963 567 OFFCURVE",
"989 594 OFFCURVE",
"989 636 CURVE SMOOTH",
"989 679 OFFCURVE",
"963 705 OFFCURVE",
"902 705 CURVE SMOOTH",
"477 705 LINE SMOOTH",
"439 705 OFFCURVE",
"398 689 OFFCURVE",
"375 655 CURVE SMOOTH",
"18 113 LINE SMOOTH",
"-49 12 OFFCURVE",
"103 -57 OFFCURVE",
"167 45 CURVE SMOOTH",
"484 551 LINE",
"437 551 LINE",
"550 48 LINE SMOOTH",
"557 16 OFFCURVE",
"589 0 OFFCURVE",
"629 0 CURVE SMOOTH"
);
},
{
closed = 1;
nodes = (
"592 146 LINE",
"553 284 LINE",
"206 284 LINE",
"135 146 LINE"
);
},
{
closed = 1;
nodes = (
"882 287 LINE SMOOTH",
"943 287 OFFCURVE",
"969 313 OFFCURVE",
"969 356 CURVE SMOOTH",
"969 399 OFFCURVE",
"943 425 OFFCURVE",
"882 425 CURVE SMOOTH",
"574 425 LINE",
"574 287 LINE"
);
}
);
width = 1020;
}
);
leftMetricsKey = "=A-5";
rightMetricsKey = E;
unicode = 00C6;
userData = {
com.typemytype.robofont.layerData = {
b = {
anchors = (
);
components = (
);
contours = (
);
lib = {
};
name = AE;
unicodes = (
);
width = 1976;
};
};
};
},
{
glyphname = B;
lastChange = "2016-08-17 19:36:01 +0000";
layers = (
{
background = {
paths = (
{
closed = 1;
nodes = (
"372 0 LINE SMOOTH",
"509 0 OFFCURVE",
"603 62 OFFCURVE",
"603 191 CURVE SMOOTH",
"603 291 OFFCURVE",
"547 349 OFFCURVE",
"460 364 CURVE",
"460 356 LINE",
"532 376 OFFCURVE",
"587 427 OFFCURVE",
"587 520 CURVE SMOOTH",
"587 642 OFFCURVE",
"493 705 OFFCURVE",
"356 705 CURVE SMOOTH",
"123 705 LINE SMOOTH",
"104 705 OFFCURVE",
"90 692 OFFCURVE",
"90 674 CURVE SMOOTH",
"90 31 LINE SMOOTH",
"90 14 OFFCURVE",
"104 0 OFFCURVE",
"123 0 CURVE SMOOTH"
);
},
{
closed = 1;
nodes = (
"150 330 LINE",
"368 330 LINE SMOOTH",
"473 330 OFFCURVE",
"540 291 OFFCURVE",
"540 191 CURVE SMOOTH",
"540 91 OFFCURVE",
"473 56 OFFCURVE",
"368 56 CURVE SMOOTH",
"150 56 LINE"
);
},
{
closed = 1;
nodes = (
"150 649 LINE",
"352 649 LINE SMOOTH",
"457 649 OFFCURVE",
"524 614 OFFCURVE",
"524 520 CURVE SMOOTH",
"524 425 OFFCURVE",
"457 386 OFFCURVE",
"352 386 CURVE SMOOTH",
"150 386 LINE"
);
}
);
};
layerId = "9E718F8A-2CEA-4931-B05D-987794BD97DA";
paths = (
{
closed = 1;
nodes = (
"372 0 LINE SMOOTH",
"509 0 OFFCURVE",
"603 62 OFFCURVE",
"603 191 CURVE SMOOTH",
"603 291 OFFCURVE",
"547 349 OFFCURVE",
"464 364 CURVE",
"464 356 LINE",
"532 376 OFFCURVE",
"587 427 OFFCURVE",
"587 520 CURVE SMOOTH",
"587 642 OFFCURVE",
"493 705 OFFCURVE",
"356 705 CURVE SMOOTH",
"123 705 LINE SMOOTH",
"104 705 OFFCURVE",
"90 692 OFFCURVE",
"90 674 CURVE SMOOTH",
"90 31 LINE SMOOTH",
"90 14 OFFCURVE",
"104 0 OFFCURVE",
"123 0 CURVE SMOOTH"
);
},
{
closed = 1;
nodes = (
"152 330 LINE",
"368 330 LINE SMOOTH",
"473 330 OFFCURVE",
"540 291 OFFCURVE",
"540 191 CURVE SMOOTH",
"540 91 OFFCURVE",
"473 56 OFFCURVE",
"368 56 CURVE SMOOTH",
"152 56 LINE"
);
},
{
closed = 1;
nodes = (
"152 649 LINE",
"352 649 LINE SMOOTH",
"457 649 OFFCURVE",
"524 614 OFFCURVE",
"524 520 CURVE SMOOTH",
"524 425 OFFCURVE",
"457 386 OFFCURVE",
"352 386 CURVE SMOOTH",
"152 386 LINE"
);
}
);
width = 655;
},
{
background = {
paths = (
{
closed = 1;
nodes = (
"421 0 LINE SMOOTH",
"583 0 OFFCURVE",
"672 81 OFFCURVE",
"672 194 CURVE SMOOTH",
"672 285 OFFCURVE",
"617 347 OFFCURVE",
"519 367 CURVE",
"519 359 LINE",
"606 378 OFFCURVE",
"653 440 OFFCURVE",
"653 522 CURVE SMOOTH",
"653 624 OFFCURVE",
"574 705 OFFCURVE",
"412 705 CURVE SMOOTH",
"155 705 LINE SMOOTH",
"100 705 OFFCURVE",
"70 675 OFFCURVE",
"70 620 CURVE SMOOTH",
"70 85 LINE SMOOTH",
"70 30 OFFCURVE",
"100 0 OFFCURVE",
"155 0 CURVE SMOOTH"
);
},
{
closed = 1;
nodes = (
"252 285 LINE",
"392 285 LINE SMOOTH",
"466 285 OFFCURVE",
"495 266 OFFCURVE",
"495 215 CURVE SMOOTH",
"495 164 OFFCURVE",
"466 142 OFFCURVE",
"392 142 CURVE SMOOTH",
"252 142 LINE"
);
},
{
closed = 1;
nodes = (
"252 563 LINE",
"373 563 LINE SMOOTH",
"447 563 OFFCURVE",
"476 541 OFFCURVE",
"476 494 CURVE SMOOTH",
"476 447 OFFCURVE",
"447 427 OFFCURVE",
"373 427 CURVE SMOOTH",
"252 427 LINE"
);
}
);
};
layerId = "E1B555A7-F4E1-459C-9C1A-AE952106EEF9";
paths = (
{
closed = 1;
nodes = (
"421 0 LINE SMOOTH",
"583 0 OFFCURVE",
"672 81 OFFCURVE",
"672 194 CURVE SMOOTH",
"672 285 OFFCURVE",
"617 347 OFFCURVE",
"529 367 CURVE",
"529 359 LINE",
"605 381 OFFCURVE",
"653 440 OFFCURVE",
"653 522 CURVE SMOOTH",
"653 624 OFFCURVE",
"574 705 OFFCURVE",
"412 705 CURVE SMOOTH",
"155 705 LINE SMOOTH",
"100 705 OFFCURVE",
"70 675 OFFCURVE",
"70 620 CURVE SMOOTH",
"70 85 LINE SMOOTH",
"70 30 OFFCURVE",
"100 0 OFFCURVE",
"155 0 CURVE SMOOTH"
);
},
{
closed = 1;
nodes = (
"249 286 LINE",
"393 286 LINE SMOOTH",
"469 286 OFFCURVE",
"499 264 OFFCURVE",
"499 213 CURVE SMOOTH",
"499 162 OFFCURVE",
"469 138 OFFCURVE",
"393 138 CURVE SMOOTH",
"249 138 LINE"
);
},
{
closed = 1;
nodes = (
"249 567 LINE",
"374 567 LINE SMOOTH",
"450 567 OFFCURVE",
"480 543 OFFCURVE",
"480 496 CURVE SMOOTH",
"480 449 OFFCURVE",
"450 426 OFFCURVE",
"374 426 CURVE SMOOTH",
"249 426 LINE"
);
}
);
width = 709;
}
);
leftMetricsKey = H;
unicode = 0042;
userData = {
anchors = (
);
b = {
};
com.typemytype.robofont.layerData = {
b = {
anchors = (
);
components = (
);
contours = (
{
points = (
{
segmentType = curve;
smooth = 1;
x = 266;
y = 0;
},
{
segmentType = line;
smooth = 1;
x = 1035;
y = 0;
},
{
smooth = 0;
x = 1084;
y = 0;
},
{
smooth = 0;
x = 1108;
y = 36;
},
{
segmentType = curve;
smooth = 1;
x = 1108;
y = 73;
},
{
smooth = 0;
x = 1108;
y = 109;
},
{
smooth = 0;
x = 1084;
y = 145;
},
{
segmentType = curve;
smooth = 1;
x = 1035;
y = 145;
},
{
segmentType = line;
smooth = 0;
x = 353;
y = 145;
},
{
segmentType = line;
smooth = 0;
x = 353;
y = 662;
},
{
segmentType = line;
smooth = 1;
x = 975;
y = 662;
},
{
smooth = 0;
x = 1024;
y = 662;
},
{
smooth = 0;
x = 1049;
y = 698;
},
{
segmentType = curve;
smooth = 1;
x = 1049;
y = 734;
},
{
smooth = 0;
x = 1049;
y = 770;
},
{
smooth = 0;
x = 1026;
y = 806;
},
{
segmentType = curve;
smooth = 1;
x = 975;
y = 806;
},
{
segmentType = line;
smooth = 0;
x = 353;
y = 806;
},
{
segmentType = line;
smooth = 0;
x = 353;
y = 1281;
},
{
segmentType = line;
smooth = 1;
x = 1007;
y = 1281;
},
{
smooth = 0;
x = 1056;
y = 1281;
},
{
smooth = 0;
x = 1080;
y = 1317;
},
{
segmentType = curve;
smooth = 1;
x = 1080;
y = 1354;
},
{
smooth = 0;
x = 1080;
y = 1390;
},
{
smooth = 0;
x = 1056;
y = 1426;
},
{
segmentType = curve;
smooth = 1;
x = 1007;
y = 1426;
},
{
segmentType = line;
smooth = 1;
x = 261;
y = 1426;
},
{
smooth = 0;
x = 213;
y = 1426;
},
{
smooth = 0;
x = 178;
y = 1383;
},
{
segmentType = curve;
smooth = 1;
x = 178;
y = 1340;
},
{
segmentType = line;
smooth = 1;
x = 178;
y = 86;
},
{
smooth = 0;
x = 178;
y = 41;
},
{
smooth = 0;
x = 222;
y = 0;
}
);
}
);
lib = {
};
name = B;
unicodes = (
);
width = 1292;
};
};
components = (
);
contours = {
};
lib = {
};
name = B;
points = {
};
segmentType = curve;
unicodes = (
);
width = 1395;
x = 676;
y = 1260;
};
},
{
glyphname = C;
lastChange = "2016-08-17 19:36:01 +0000";
layers = (
{
background = {
paths = (
{
closed = 1;
nodes = (
"1156 -6 OFFCURVE",
"1243 22 OFFCURVE",
"1300 79 CURVE SMOOTH",
"1309 88 OFFCURVE",
"1313 98 OFFCURVE",
"1313 108 CURVE SMOOTH",
"1313 122 OFFCURVE",
"1305 135 OFFCURVE",
"1292 135 CURVE SMOOTH",
"1285 135 OFFCURVE",
"1278 132 OFFCURVE",
"1269 125 CURVE SMOOTH",
"1208 77 OFFCURVE",
"1158 49 OFFCURVE",
"1074 49 CURVE SMOOTH",
"914 49 OFFCURVE",
"823 164 OFFCURVE",
"823 353 CURVE SMOOTH",
"823 541 OFFCURVE",
"914 656 OFFCURVE",
"1074 656 CURVE SMOOTH",
"1158 656 OFFCURVE",
"1208 628 OFFCURVE",
"1269 580 CURVE SMOOTH",
"1278 573 OFFCURVE",
"1285 570 OFFCURVE",
"1292 570 CURVE SMOOTH",
"1304 570 OFFCURVE",
"1313 583 OFFCURVE",
"1313 597 CURVE SMOOTH",
"1313 607 OFFCURVE",
"1309 617 OFFCURVE",
"1300 626 CURVE SMOOTH",
"1243 683 OFFCURVE",
"1156 711 OFFCURVE",
"1074 711 CURVE SMOOTH",
"886 711 OFFCURVE",
"759 579 OFFCURVE",
"759 353 CURVE SMOOTH",
"759 126 OFFCURVE",
"886 -6 OFFCURVE",
"1074 -6 CURVE SMOOTH"
);
},
{
closed = 1;
nodes = (
"460 -6 OFFCURVE",
"546 24 OFFCURVE",
"604 79 CURVE SMOOTH",
"613 88 OFFCURVE",
"617 98 OFFCURVE",
"617 108 CURVE SMOOTH",
"617 122 OFFCURVE",
"609 135 OFFCURVE",
"596 135 CURVE SMOOTH",
"589 135 OFFCURVE",
"582 132 OFFCURVE",
"573 125 CURVE SMOOTH",
"512 77 OFFCURVE",
"462 49 OFFCURVE",
"376 49 CURVE SMOOTH",
"214 49 OFFCURVE",
"123 164 OFFCURVE",
"123 353 CURVE SMOOTH",
"123 541 OFFCURVE",
"214 656 OFFCURVE",
"376 656 CURVE SMOOTH",
"462 656 OFFCURVE",
"512 628 OFFCURVE",
"573 580 CURVE SMOOTH",
"582 573 OFFCURVE",
"589 570 OFFCURVE",
"596 570 CURVE SMOOTH",
"608 570 OFFCURVE",
"617 583 OFFCURVE",
"617 597 CURVE SMOOTH",
"617 607 OFFCURVE",
"613 617 OFFCURVE",
"604 626 CURVE SMOOTH",
"546 681 OFFCURVE",
"460 711 OFFCURVE",
"376 711 CURVE SMOOTH",
"186 711 OFFCURVE",
"59 579 OFFCURVE",
"59 353 CURVE SMOOTH",
"59 126 OFFCURVE",
"186 -6 OFFCURVE",
"376 -6 CURVE SMOOTH"
);
}
);
};
layerId = "9E718F8A-2CEA-4931-B05D-987794BD97DA";
paths = (
{
closed = 1;
nodes = (
"466 -6 OFFCURVE",
"552 24 OFFCURVE",
"610 79 CURVE SMOOTH",
"619 88 OFFCURVE",
"623 98 OFFCURVE",
"623 108 CURVE SMOOTH",
"623 122 OFFCURVE",
"615 135 OFFCURVE",
"602 135 CURVE SMOOTH",
"595 135 OFFCURVE",
"588 132 OFFCURVE",
"579 125 CURVE SMOOTH",
"518 77 OFFCURVE",
"468 49 OFFCURVE",
"379 49 CURVE SMOOTH",
"214 49 OFFCURVE",
"123 164 OFFCURVE",
"123 353 CURVE SMOOTH",
"123 541 OFFCURVE",
"214 656 OFFCURVE",
"379 656 CURVE SMOOTH",
"468 656 OFFCURVE",
"518 628 OFFCURVE",
"579 580 CURVE SMOOTH",
"588 573 OFFCURVE",
"595 570 OFFCURVE",
"602 570 CURVE SMOOTH",
"614 570 OFFCURVE",
"623 583 OFFCURVE",
"623 597 CURVE SMOOTH",
"623 607 OFFCURVE",
"619 617 OFFCURVE",
"610 626 CURVE SMOOTH",
"552 681 OFFCURVE",
"466 711 OFFCURVE",
"379 711 CURVE SMOOTH",
"186 711 OFFCURVE",
"59 579 OFFCURVE",
"59 353 CURVE SMOOTH",
"59 126 OFFCURVE",
"186 -6 OFFCURVE",
"379 -6 CURVE SMOOTH"
);
}
);
width = 632;
},
{
background = {
paths = (
{
closed = 1;
nodes = (
"1312 -7 OFFCURVE",
"1450 133 OFFCURVE",
"1450 353 CURVE SMOOTH",
"1450 572 OFFCURVE",
"1312 712 OFFCURVE",
"1098 712 CURVE SMOOTH",
"884 712 OFFCURVE",
"746 572 OFFCURVE",
"746 353 CURVE SMOOTH",
"746 133 OFFCURVE",
"884 -7 OFFCURVE",
"1098 -7 CURVE SMOOTH"
);
},
{
closed = 1;
nodes = (
"987 134 OFFCURVE",
"928 204 OFFCURVE",
"928 353 CURVE SMOOTH",
"928 501 OFFCURVE",
"987 571 OFFCURVE",
"1098 571 CURVE SMOOTH",
"1209 571 OFFCURVE",
"1268 501 OFFCURVE",
"1268 353 CURVE SMOOTH",
"1268 204 OFFCURVE",
"1210 134 OFFCURVE",
"1098 134 CURVE SMOOTH"
);
},
{
closed = 1;
nodes = (
"567 196 OFFCURVE",
"553 189 OFFCURVE",
"534 178 CURVE SMOOTH",
"501 159 OFFCURVE",
"459 137 OFFCURVE",
"405 137 CURVE SMOOTH",
"290 137 OFFCURVE",
"231 203 OFFCURVE",
"231 353 CURVE SMOOTH",
"231 502 OFFCURVE",
"290 568 OFFCURVE",
"405 568 CURVE SMOOTH",
"459 568 OFFCURVE",
"501 546 OFFCURVE",
"534 527 CURVE SMOOTH",
"553 516 OFFCURVE",
"567 509 OFFCURVE",
"589 509 CURVE SMOOTH",
"627 509 OFFCURVE",
"648 550 OFFCURVE",
"648 582 CURVE SMOOTH",
"648 608 OFFCURVE",
"641 626 OFFCURVE",
"616 645 CURVE SMOOTH",
"562 686 OFFCURVE",
"489 712 OFFCURVE",
"396 712 CURVE SMOOTH",
"184 712 OFFCURVE",
"46 572 OFFCURVE",
"46 353 CURVE SMOOTH",
"46 133 OFFCURVE",
"184 -7 OFFCURVE",
"396 -7 CURVE SMOOTH",
"489 -7 OFFCURVE",
"562 19 OFFCURVE",
"616 60 CURVE SMOOTH",
"641 79 OFFCURVE",
"648 97 OFFCURVE",
"648 123 CURVE SMOOTH",
"648 155 OFFCURVE",
"627 196 OFFCURVE",
"589 196 CURVE SMOOTH"
);
}
);
};
layerId = "E1B555A7-F4E1-459C-9C1A-AE952106EEF9";
paths = (
{
closed = 1;
nodes = (
"494 -7 OFFCURVE",
"564 19 OFFCURVE",
"621 60 CURVE SMOOTH",
"646 78 OFFCURVE",
"653 97 OFFCURVE",
"653 123 CURVE SMOOTH",
"653 155 OFFCURVE",
"632 196 OFFCURVE",
"594 196 CURVE SMOOTH",
"572 196 OFFCURVE",
"558 189 OFFCURVE",
"539 178 CURVE SMOOTH",
"506 159 OFFCURVE",
"465 138 OFFCURVE",
"407 138 CURVE SMOOTH",
"292 138 OFFCURVE",
"232 204 OFFCURVE",
"232 353 CURVE SMOOTH",
"232 501 OFFCURVE",
"292 567 OFFCURVE",
"407 567 CURVE SMOOTH",
"465 567 OFFCURVE",
"506 546 OFFCURVE",
"539 527 CURVE SMOOTH",
"558 516 OFFCURVE",
"572 509 OFFCURVE",
"594 509 CURVE SMOOTH",
"632 509 OFFCURVE",
"653 550 OFFCURVE",
"653 582 CURVE SMOOTH",
"653 608 OFFCURVE",
"646 627 OFFCURVE",
"621 645 CURVE SMOOTH",
"564 686 OFFCURVE",
"494 712 OFFCURVE",
"398 712 CURVE SMOOTH",
"184 712 OFFCURVE",
"46 572 OFFCURVE",
"46 353 CURVE SMOOTH",
"46 133 OFFCURVE",
"184 -7 OFFCURVE",
"398 -7 CURVE SMOOTH"
);
}
);
width = 672;
}
);
leftMetricsKey = O;
unicode = 0043;
userData = {
anchors = (
);
b = {
};
com.typemytype.robofont.layerData = {
b = {
anchors = (
);
components = (
);
contours = (
);
lib = {
};
name = C;
unicodes = (
);
width = 1353.8900;
};
};
components = (
);
contours = (
);
lib = {
};
name = C;
unicodes = (
);
width = 1354;
};
},
{
glyphname = D;
lastChange = "2016-08-17 19:36:01 +0000";
layers = (
{
background = {
paths = (
{
closed = 1;
nodes = (
"317 0 LINE SMOOTH",
"539 0 OFFCURVE",
"666 126 OFFCURVE",
"666 353 CURVE SMOOTH",
"666 580 OFFCURVE",
"539 705 OFFCURVE",
"317 705 CURVE SMOOTH",
"123 705 LINE SMOOTH",
"104 705 OFFCURVE",
"90 692 OFFCURVE",
"90 674 CURVE SMOOTH",
"90 31 LINE SMOOTH",
"90 14 OFFCURVE",
"104 0 OFFCURVE",
"123 0 CURVE SMOOTH"
);
},
{
closed = 1;
nodes = (
"150 649 LINE",
"314 649 LINE SMOOTH",
"513 649 OFFCURVE",
"602 542 OFFCURVE",
"602 353 CURVE SMOOTH",
"602 164 OFFCURVE",
"513 55 OFFCURVE",
"314 55 CURVE SMOOTH",
"150 55 LINE"
);
}
);
};
layerId = "9E718F8A-2CEA-4931-B05D-987794BD97DA";
paths = (
{
closed = 1;
nodes = (
"317 0 LINE SMOOTH",
"539 0 OFFCURVE",
"666 126 OFFCURVE",
"666 353 CURVE SMOOTH",
"666 580 OFFCURVE",
"539 705 OFFCURVE",
"317 705 CURVE SMOOTH",
"123 705 LINE SMOOTH",
"104 705 OFFCURVE",
"90 692 OFFCURVE",
"90 674 CURVE SMOOTH",
"90 31 LINE SMOOTH",
"90 14 OFFCURVE",
"104 0 OFFCURVE",
"123 0 CURVE SMOOTH"
);
},
{
closed = 1;
nodes = (
"152 649 LINE",
"314 649 LINE SMOOTH",
"513 649 OFFCURVE",
"602 542 OFFCURVE",
"602 353 CURVE SMOOTH",
"602 164 OFFCURVE",
"513 55 OFFCURVE",
"314 55 CURVE SMOOTH",
"152 55 LINE"
);
}
);
width = 725;
},
{
background = {
paths = (
{
closed = 1;
nodes = (
"357 0 LINE SMOOTH",
"595 0 OFFCURVE",
"733 133 OFFCURVE",
"733 353 CURVE SMOOTH",
"733 572 OFFCURVE",
"595 705 OFFCURVE",
"357 705 CURVE SMOOTH",
"155 705 LINE SMOOTH",
"100 705 OFFCURVE",
"70 675 OFFCURVE",
"70 620 CURVE SMOOTH",
"70 85 LINE SMOOTH",
"70 30 OFFCURVE",
"100 0 OFFCURVE",
"155 0 CURVE SMOOTH"
);
},
{
closed = 1;
nodes = (
"254 558 LINE",
"345 558 LINE SMOOTH",
"472 558 OFFCURVE",
"551 501 OFFCURVE",
"551 353 CURVE SMOOTH",
"551 204 OFFCURVE",
"473 147 OFFCURVE",
"345 147 CURVE SMOOTH",
"254 147 LINE"
);
}
);
};
layerId = "E1B555A7-F4E1-459C-9C1A-AE952106EEF9";
paths = (
{
closed = 1;
nodes = (
"357 0 LINE SMOOTH",
"595 0 OFFCURVE",
"733 133 OFFCURVE",
"733 353 CURVE SMOOTH",
"733 572 OFFCURVE",
"595 705 OFFCURVE",
"357 705 CURVE SMOOTH",
"155 705 LINE SMOOTH",
"100 705 OFFCURVE",
"70 675 OFFCURVE",
"70 620 CURVE SMOOTH",
"70 85 LINE SMOOTH",
"70 30 OFFCURVE",
"100 0 OFFCURVE",
"155 0 CURVE SMOOTH"
);
},
{
closed = 1;
nodes = (
"254 558 LINE",
"345 558 LINE SMOOTH",
"472 558 OFFCURVE",
"551 501 OFFCURVE",
"551 353 CURVE SMOOTH",
"551 204 OFFCURVE",
"473 147 OFFCURVE",
"345 147 CURVE SMOOTH",
"254 147 LINE"
);
}
);
width = 779;
}
);
leftMetricsKey = I;
rightMetricsKey = O;
unicode = 0044;
userData = {
anchors = (
);
b = {
};
com.typemytype.robofont.layerData = {
b = {
anchors = (
);
components = (
);
contours = (
{
points = (
{
segmentType = curve;
smooth = 1;
x = 266;
y = 0;
},
{
segmentType = line;
smooth = 1;
x = 1035;
y = 0;
},
{
smooth = 0;
x = 1084;
y = 0;
},
{
smooth = 0;
x = 1108;
y = 34;
},
{
segmentType = curve;
smooth = 1;
x = 1108;
y = 71;
},
{
smooth = 0;
x = 1108;
y = 107;
},
{
smooth = 0;
x = 1084;
y = 141;
},
{
segmentType = curve;
smooth = 1;
x = 1035;
y = 141;
},
{
segmentType = line;
smooth = 0;
x = 356;
y = 141;
},
{
segmentType = line;
smooth = 0;
x = 356;
y = 665;
},
{
segmentType = line;
smooth = 1;
x = 975;
y = 665;
},
{
smooth = 0;
x = 1024;
y = 665;
},
{
smooth = 0;
x = 1049;
y = 698;
},
{
segmentType = curve;
smooth = 1;
x = 1049;
y = 734;
},
{
smooth = 0;
x = 1049;
y = 770;
},
{
smooth = 0;
x = 1026;
y = 803;
},
{
segmentType = curve;
smooth = 1;
x = 975;
y = 803;
},
{
segmentType = line;
smooth = 0;
x = 356;
y = 803;
},
{
segmentType = line;
smooth = 0;
x = 356;
y = 1285;
},
{
segmentType = line;
smooth = 1;
x = 1007;
y = 1285;
},
{
smooth = 0;
x = 1056;
y = 1285;
},
{
smooth = 0;
x = 1080;
y = 1319;
},
{
segmentType = curve;
smooth = 1;
x = 1080;
y = 1356;
},
{
smooth = 0;
x = 1080;
y = 1392;
},
{
smooth = 0;
x = 1056;
y = 1426;
},
{
segmentType = curve;
smooth = 1;
x = 1007;
y = 1426;
},
{
segmentType = line;
smooth = 1;
x = 261;
y = 1426;
},
{
smooth = 0;
x = 213;
y = 1426;
},
{
smooth = 0;
x = 178;
y = 1383;
},
{
segmentType = curve;
smooth = 1;
x = 178;
y = 1340;
},
{
segmentType = line;
smooth = 1;
x = 178;
y = 86;
},
{
smooth = 0;
x = 178;
y = 41;
},
{
smooth = 0;
x = 222;
y = 0;
}
);
}
);
lib = {
};
name = D;
unicodes = (
);
width = 1499;
};
};
components = (
);
contours = (
);
lib = {
};
name = D;
unicodes = (
);
width = 1535;
};
},
{
glyphname = E;
lastChange = "2016-08-17 19:36:01 +0000";
layers = (
{
background = {
paths = (
{
closed = 1;
nodes = (
"503 0 LINE SMOOTH",
"520 0 OFFCURVE",
"531 11 OFFCURVE",
"531 28 CURVE SMOOTH",
"531 45 OFFCURVE",
"520 56 OFFCURVE",
"503 56 CURVE SMOOTH",
"150 56 LINE",
"150 330 LINE",
"483 330 LINE SMOOTH",
"500 330 OFFCURVE",
"511 341 OFFCURVE",
"511 358 CURVE SMOOTH",
"511 375 OFFCURVE",
"500 386 OFFCURVE",
"483 386 CURVE SMOOTH",
"150 386 LINE",
"150 649 LINE",
"503 649 LINE SMOOTH",
"520 649 OFFCURVE",
"531 660 OFFCURVE",
"531 677 CURVE SMOOTH",
"531 694 OFFCURVE",
"520 705 OFFCURVE",
"503 705 CURVE SMOOTH",
"123 705 LINE SMOOTH",
"104 705 OFFCURVE",
"90 692 OFFCURVE",
"90 674 CURVE SMOOTH",
"90 31 LINE SMOOTH",
"90 14 OFFCURVE",
"104 0 OFFCURVE",
"123 0 CURVE SMOOTH"
);
}
);
};
layerId = "9E718F8A-2CEA-4931-B05D-987794BD97DA";
paths = (
{
closed = 1;
nodes = (
"503 0 LINE SMOOTH",
"520 0 OFFCURVE",
"531 11 OFFCURVE",
"531 28 CURVE SMOOTH",
"531 45 OFFCURVE",
"520 56 OFFCURVE",
"503 56 CURVE SMOOTH",
"152 56 LINE",
"152 330 LINE",
"483 330 LINE SMOOTH",
"500 330 OFFCURVE",
"511 341 OFFCURVE",
"511 358 CURVE SMOOTH",
"511 375 OFFCURVE",
"500 386 OFFCURVE",
"483 386 CURVE SMOOTH",
"152 386 LINE",
"152 649 LINE",
"503 649 LINE SMOOTH",
"520 649 OFFCURVE",
"531 660 OFFCURVE",
"531 677 CURVE SMOOTH",
"531 694 OFFCURVE",
"520 705 OFFCURVE",
"503 705 CURVE SMOOTH",
"123 705 LINE SMOOTH",
"104 705 OFFCURVE",
"90 692 OFFCURVE",
"90 674 CURVE SMOOTH",
"90 31 LINE SMOOTH",
"90 14 OFFCURVE",
"104 0 OFFCURVE",
"123 0 CURVE SMOOTH"
);
}
);
width = 576;
},
{
background = {
paths = (
{
closed = 1;
nodes = (
"1102 0 LINE SMOOTH",
"1163 0 OFFCURVE",
"1189 26 OFFCURVE",
"1189 73 CURVE SMOOTH",
"1189 120 OFFCURVE",
"1163 146 OFFCURVE",
"1102 146 CURVE SMOOTH",
"852 146 LINE",
"852 283 LINE",
"1082 283 LINE SMOOTH",
"1143 283 OFFCURVE",
"1169 309 OFFCURVE",
"1169 356 CURVE SMOOTH",
"1169 403 OFFCURVE",
"1143 429 OFFCURVE",
"1082 429 CURVE SMOOTH",
"852 429 LINE",
"852 559 LINE",
"1102 559 LINE SMOOTH",
"1163 559 OFFCURVE",
"1189 585 OFFCURVE",
"1189 632 CURVE SMOOTH",
"1189 679 OFFCURVE",
"1163 705 OFFCURVE",
"1102 705 CURVE SMOOTH",
"755 705 LINE SMOOTH",
"700 705 OFFCURVE",
"670 675 OFFCURVE",
"670 620 CURVE SMOOTH",
"670 85 LINE SMOOTH",
"670 30 OFFCURVE",
"700 0 OFFCURVE",
"755 0 CURVE SMOOTH"
);
},
{
closed = 1;
nodes = (
"421 0 LINE SMOOTH",
"583 0 OFFCURVE",
"672 81 OFFCURVE",
"672 194 CURVE SMOOTH",
"672 285 OFFCURVE",
"617 347 OFFCURVE",
"519 367 CURVE",
"519 359 LINE",
"606 378 OFFCURVE",
"653 440 OFFCURVE",
"653 522 CURVE SMOOTH",
"653 624 OFFCURVE",
"574 705 OFFCURVE",
"412 705 CURVE SMOOTH",
"155 705 LINE SMOOTH",
"100 705 OFFCURVE",
"70 675 OFFCURVE",
"70 620 CURVE SMOOTH",
"70 85 LINE SMOOTH",
"70 30 OFFCURVE",
"100 0 OFFCURVE",
"155 0 CURVE SMOOTH"
);
},
{
closed = 1;
nodes = (
"249 287 LINE",
"393 287 LINE SMOOTH",
"469 287 OFFCURVE",
"499 264 OFFCURVE",
"499 213 CURVE SMOOTH",
"499 162 OFFCURVE",
"469 138 OFFCURVE",
"393 138 CURVE SMOOTH",
"249 138 LINE"
);
},
{
closed = 1;
nodes = (
"249 567 LINE",
"374 567 LINE SMOOTH",
"450 567 OFFCURVE",
"480 543 OFFCURVE",
"480 496 CURVE SMOOTH",
"480 449 OFFCURVE",
"450 425 OFFCURVE",
"374 425 CURVE SMOOTH",
"249 425 LINE"
);
}
);
};
layerId = "E1B555A7-F4E1-459C-9C1A-AE952106EEF9";
paths = (
{
closed = 1;
nodes = (
"502 0 LINE SMOOTH",
"563 0 OFFCURVE",
"589 26 OFFCURVE",
"589 69 CURVE SMOOTH",
"589 112 OFFCURVE",
"563 138 OFFCURVE",
"502 138 CURVE SMOOTH",
"249 138 LINE",
"249 287 LINE",
"482 287 LINE SMOOTH",
"543 287 OFFCURVE",
"569 313 OFFCURVE",
"569 356 CURVE SMOOTH",
"569 399 OFFCURVE",
"543 425 OFFCURVE",
"482 425 CURVE SMOOTH",
"249 425 LINE",
"249 567 LINE",
"502 567 LINE SMOOTH",
"563 567 OFFCURVE",
"589 593 OFFCURVE",
"589 636 CURVE SMOOTH",
"589 679 OFFCURVE",
"563 705 OFFCURVE",
"502 705 CURVE SMOOTH",
"155 705 LINE SMOOTH",
"100 705 OFFCURVE",
"70 675 OFFCURVE",
"70 620 CURVE SMOOTH",
"70 85 LINE SMOOTH",
"70 30 OFFCURVE",
"100 0 OFFCURVE",
"155 0 CURVE SMOOTH"
);
}
);
width = 620;
}
);
leftMetricsKey = H;
unicode = 0045;
userData = {
anchors = (
);
b = {
};
com.typemytype.robofont.layerData = {
b = {
anchors = (
);
components = (
);
contours = (
);
lib = {
};
name = E;
unicodes = (
);
width = 1234;
};
};
components = (
);
contours = (
);
lib = {
};
name = E;
unicodes = (
);
width = 1258;
};
},
{
glyphname = F;
lastChange = "2016-08-17 19:36:01 +0000";
layers = (
{
background = {
paths = (
{
closed = 1;
nodes = (
"139 -5 OFFCURVE",
"150 8 OFFCURVE",
"150 28 CURVE SMOOTH",
"150 330 LINE",
"473 330 LINE SMOOTH",
"490 330 OFFCURVE",
"501 341 OFFCURVE",
"501 358 CURVE SMOOTH",
"501 375 OFFCURVE",
"490 386 OFFCURVE",
"473 386 CURVE SMOOTH",
"150 386 LINE",
"150 649 LINE",
"493 649 LINE SMOOTH",
"510 649 OFFCURVE",
"521 660 OFFCURVE",
"521 677 CURVE SMOOTH",
"521 694 OFFCURVE",
"510 705 OFFCURVE",
"493 705 CURVE SMOOTH",
"123 705 LINE SMOOTH",
"104 705 OFFCURVE",
"90 692 OFFCURVE",
"90 674 CURVE SMOOTH",
"90 28 LINE SMOOTH",
"90 8 OFFCURVE",
"101 -5 OFFCURVE",
"120 -5 CURVE SMOOTH"
);
}
);
};
layerId = "9E718F8A-2CEA-4931-B05D-987794BD97DA";
paths = (
{
closed = 1;
nodes = (
"141 -5 OFFCURVE",
"152 8 OFFCURVE",
"152 28 CURVE SMOOTH",
"152 330 LINE",
"473 330 LINE SMOOTH",
"490 330 OFFCURVE",
"501 341 OFFCURVE",
"501 358 CURVE SMOOTH",
"501 375 OFFCURVE",
"490 386 OFFCURVE",
"473 386 CURVE SMOOTH",
"152 386 LINE",
"152 649 LINE",
"493 649 LINE SMOOTH",
"510 649 OFFCURVE",
"521 660 OFFCURVE",
"521 677 CURVE SMOOTH",
"521 694 OFFCURVE",
"510 705 OFFCURVE",
"493 705 CURVE SMOOTH",
"123 705 LINE SMOOTH",
"104 705 OFFCURVE",
"90 692 OFFCURVE",
"90 674 CURVE SMOOTH",
"90 28 LINE SMOOTH",
"90 8 OFFCURVE",
"102 -5 OFFCURVE",
"121 -5 CURVE SMOOTH"
);
}
);
width = 540;
},
{
background = {
paths = (
{
closed = 1;
nodes = (
"212 -6 OFFCURVE",
"254 23 OFFCURVE",
"254 84 CURVE SMOOTH",
"254 283 LINE",
"472 283 LINE SMOOTH",
"533 283 OFFCURVE",
"559 309 OFFCURVE",
"559 356 CURVE SMOOTH",
"559 403 OFFCURVE",
"533 429 OFFCURVE",
"472 429 CURVE SMOOTH",
"254 429 LINE",
"254 559 LINE",
"492 559 LINE SMOOTH",
"553 559 OFFCURVE",
"579 585 OFFCURVE",
"579 632 CURVE SMOOTH",
"579 679 OFFCURVE",
"553 705 OFFCURVE",
"492 705 CURVE SMOOTH",
"155 705 LINE SMOOTH",
"100 705 OFFCURVE",
"70 675 OFFCURVE",
"70 620 CURVE SMOOTH",
"70 85 LINE SMOOTH",
"70 30 OFFCURVE",
"106 -6 OFFCURVE",
"162 -6 CURVE SMOOTH"
);
}
);
};
layerId = "E1B555A7-F4E1-459C-9C1A-AE952106EEF9";
paths = (
{
closed = 1;
nodes = (
"210 -6 OFFCURVE",
"252 23 OFFCURVE",
"252 84 CURVE SMOOTH",
"252 283 LINE",
"472 283 LINE SMOOTH",
"533 283 OFFCURVE",
"559 309 OFFCURVE",
"559 356 CURVE SMOOTH",
"559 403 OFFCURVE",
"533 429 OFFCURVE",
"472 429 CURVE SMOOTH",
"252 429 LINE",
"252 559 LINE",
"492 559 LINE SMOOTH",
"553 559 OFFCURVE",
"579 585 OFFCURVE",
"579 632 CURVE SMOOTH",
"579 679 OFFCURVE",
"553 705 OFFCURVE",
"492 705 CURVE SMOOTH",
"155 705 LINE SMOOTH",
"100 705 OFFCURVE",
"70 675 OFFCURVE",
"70 620 CURVE SMOOTH",
"70 85 LINE SMOOTH",
"70 30 OFFCURVE",
"106 -6 OFFCURVE",
"161 -6 CURVE SMOOTH"
);
}
);
width = 590;
}
);
leftMetricsKey = H;
unicode = 0046;
userData = {
anchors = (
);
b = {
};
com.typemytype.robofont.layerData = {
b = {
anchors = (
);
components = (
);
contours = (
{
points = (
{
segmentType = curve;
smooth = 1;
x = 266;
y = 0;
},
{
segmentType = line;
smooth = 1;
x = 1035;
y = 0;
},
{
smooth = 0;
x = 1084;
y = 0;
},
{
smooth = 0;
x = 1108;
y = 34;
},
{
segmentType = curve;
smooth = 1;
x = 1108;
y = 71;
},
{
smooth = 0;
x = 1108;
y = 107;
},
{
smooth = 0;
x = 1084;
y = 141;
},
{
segmentType = curve;
smooth = 1;
x = 1035;
y = 141;
},
{
segmentType = line;
smooth = 0;
x = 353;
y = 141;
},
{
segmentType = line;
smooth = 0;
x = 353;
y = 665;
},
{
segmentType = line;
smooth = 1;
x = 975;
y = 665;
},
{
smooth = 0;
x = 1024;
y = 665;
},
{
smooth = 0;
x = 1049;
y = 698;
},
{
segmentType = curve;
smooth = 1;
x = 1049;
y = 734;
},
{
smooth = 0;
x = 1049;
y = 770;
},
{
smooth = 0;
x = 1026;
y = 803;
},
{
segmentType = curve;
smooth = 1;
x = 975;
y = 803;
},
{
segmentType = line;
smooth = 0;
x = 353;
y = 803;
},
{
segmentType = line;
smooth = 0;
x = 353;
y = 1285;
},
{
segmentType = line;
smooth = 1;
x = 1007;
y = 1285;
},
{
smooth = 0;
x = 1056;
y = 1285;
},
{
smooth = 0;
x = 1080;
y = 1319;
},
{
segmentType = curve;
smooth = 1;
x = 1080;
y = 1356;
},
{
smooth = 0;
x = 1080;
y = 1392;
},
{
smooth = 0;
x = 1056;
y = 1426;
},
{
segmentType = curve;
smooth = 1;
x = 1007;
y = 1426;
},
{
segmentType = line;
smooth = 1;
x = 261;
y = 1426;
},
{
smooth = 0;
x = 213;
y = 1426;
},
{
smooth = 0;
x = 178;
y = 1383;
},
{
segmentType = curve;
smooth = 1;
x = 178;
y = 1340;
},
{
segmentType = line;
smooth = 1;
x = 178;
y = 86;
},
{
smooth = 0;
x = 178;
y = 41;
},
{
smooth = 0;
x = 222;
y = 0;
}
);
}
);
lib = {
};
name = F;
unicodes = (
);
width = 1142;
};
};
components = (
);
contours = (
);
lib = {
};
name = F;
unicodes = (
);
width = 1175;
};
},
{
glyphname = G;
lastChange = "2016-08-17 19:36:01 +0000";
layers = (
{
background = {
paths = (
{
closed = 1;
nodes = (
"1966 -11 OFFCURVE",
"2054 3 OFFCURVE",
"2112 29 CURVE SMOOTH",
"2121 33 OFFCURVE",
"2132 52 OFFCURVE",
"2132 64 CURVE SMOOTH",
"2132 325 LINE SMOOTH",
"2132 341 OFFCURVE",
"2121 352 OFFCURVE",
"2105 352 CURVE SMOOTH",
"1918 352 LINE SMOOTH",
"1900 352 OFFCURVE",
"1891 339 OFFCURVE",
"1891 327 CURVE SMOOTH",
"1891 316 OFFCURVE",
"1900 304 OFFCURVE",
"1918 304 CURVE SMOOTH",
"2072 304 LINE",
"2072 65 LINE",
"2022 50 OFFCURVE",
"1947 38 OFFCURVE",
"1892 38 CURVE SMOOTH",
"1700 38 OFFCURVE",
"1633 186 OFFCURVE",
"1633 338 CURVE SMOOTH",
"1633 517 OFFCURVE",
"1730 641 OFFCURVE",
"1908 641 CURVE SMOOTH",
"1960 641 OFFCURVE",
"2022 628 OFFCURVE",
"2079 609 CURVE",
"2079 609 OFFCURVE",
"2084 609 OFFCURVE",
"2084 609 CURVE",
"2096 609 OFFCURVE",
"2105 621 OFFCURVE",
"2105 634 CURVE SMOOTH",
"2105 642 OFFCURVE",
"2102 650 OFFCURVE",
"2093 654 CURVE SMOOTH",
"2039 678 OFFCURVE",
"1971 689 OFFCURVE",
"1904 689 CURVE SMOOTH",
"1679 689 OFFCURVE",
"1569 519 OFFCURVE",
"1569 343 CURVE SMOOTH",
"1569 100 OFFCURVE",
"1711 -11 OFFCURVE",
"1881 -11 CURVE SMOOTH"
);
},
{
closed = 1;
nodes = (
"1208 361 LINE SMOOTH",
"1194 361 OFFCURVE",
"1185 350 OFFCURVE",
"1185 335 CURVE SMOOTH",
"1185 320 OFFCURVE",
"1194 310 OFFCURVE",
"1208 310 CURVE SMOOTH",
"1368 310 LINE",
"1368 46 LINE",
"1384 86 LINE",
"1337 65 OFFCURVE",
"1270 49 OFFCURVE",
"1190 49 CURVE SMOOTH",
"1011 49 OFFCURVE",
"923 164 OFFCURVE",
"923 353 CURVE SMOOTH",
"923 541 OFFCURVE",
"1014 656 OFFCURVE",
"1186 656 CURVE SMOOTH",
"1282 656 OFFCURVE",
"1332 628 OFFCURVE",
"1393 580 CURVE SMOOTH",
"1402 573 OFFCURVE",
"1409 570 OFFCURVE",
"1416 570 CURVE SMOOTH",
"1428 570 OFFCURVE",
"1437 583 OFFCURVE",
"1437 597 CURVE SMOOTH",
"1437 607 OFFCURVE",
"1433 617 OFFCURVE",
"1424 626 CURVE SMOOTH",
"1367 683 OFFCURVE",
"1280 711 OFFCURVE",
"1186 711 CURVE SMOOTH",
"986 711 OFFCURVE",
"859 579 OFFCURVE",
"859 353 CURVE SMOOTH",
"859 126 OFFCURVE",
"983 -6 OFFCURVE",
"1190 -6 CURVE SMOOTH",
"1271 -6 OFFCURVE",
"1351 10 OFFCURVE",
"1402 33 CURVE SMOOTH",
"1420 41 OFFCURVE",
"1426 53 OFFCURVE",
"1426 70 CURVE SMOOTH",
"1426 334 LINE SMOOTH",
"1426 350 OFFCURVE",
"1415 361 OFFCURVE",
"1399 361 CURVE SMOOTH"
);
},
{
closed = 1;
nodes = (
"471 -6 OFFCURVE",
"558 22 OFFCURVE",
"615 79 CURVE SMOOTH",
"624 88 OFFCURVE",
"628 98 OFFCURVE",
"628 108 CURVE SMOOTH",
"628 122 OFFCURVE",
"620 135 OFFCURVE",
"607 135 CURVE SMOOTH",
"600 135 OFFCURVE",
"593 132 OFFCURVE",
"584 125 CURVE SMOOTH",
"523 77 OFFCURVE",
"473 49 OFFCURVE",
"384 49 CURVE SMOOTH",
"219 49 OFFCURVE",
"128 164 OFFCURVE",
"128 353 CURVE SMOOTH",
"128 541 OFFCURVE",
"219 656 OFFCURVE",
"384 656 CURVE SMOOTH",
"473 656 OFFCURVE",
"523 628 OFFCURVE",
"584 580 CURVE SMOOTH",
"593 573 OFFCURVE",
"600 570 OFFCURVE",
"607 570 CURVE SMOOTH",
"619 570 OFFCURVE",
"628 583 OFFCURVE",
"628 597 CURVE SMOOTH",
"628 607 OFFCURVE",
"624 617 OFFCURVE",
"615 626 CURVE SMOOTH",
"558 683 OFFCURVE",
"471 711 OFFCURVE",
"384 711 CURVE SMOOTH",
"191 711 OFFCURVE",
"64 579 OFFCURVE",
"64 353 CURVE SMOOTH",
"64 126 OFFCURVE",
"191 -6 OFFCURVE",
"384 -6 CURVE SMOOTH"
);
}
);
};
layerId = "9E718F8A-2CEA-4931-B05D-987794BD97DA";
paths = (
{
closed = 1;
nodes = (
"473 -6 OFFCURVE",
"557 10 OFFCURVE",
"608 33 CURVE SMOOTH",
"626 41 OFFCURVE",
"632 53 OFFCURVE",
"632 70 CURVE SMOOTH",
"632 334 LINE SMOOTH",
"632 350 OFFCURVE",
"621 361 OFFCURVE",
"605 361 CURVE SMOOTH",
"408 361 LINE SMOOTH",
"394 361 OFFCURVE",
"384 350 OFFCURVE",
"384 335 CURVE SMOOTH",
"384 320 OFFCURVE",
"394 310 OFFCURVE",
"408 310 CURVE SMOOTH",
"574 310 LINE",
"574 46 LINE",
"590 86 LINE",
"542 65 OFFCURVE",
"472 49 OFFCURVE",
"390 49 CURVE SMOOTH",
"211 49 OFFCURVE",
"123 164 OFFCURVE",
"123 353 CURVE SMOOTH",
"123 541 OFFCURVE",
"214 656 OFFCURVE",
"383 656 CURVE SMOOTH",
"473 656 OFFCURVE",
"523 628 OFFCURVE",
"584 580 CURVE SMOOTH",
"593 573 OFFCURVE",
"600 570 OFFCURVE",
"607 570 CURVE SMOOTH",
"619 570 OFFCURVE",
"628 583 OFFCURVE",
"628 597 CURVE SMOOTH",
"628 607 OFFCURVE",
"624 617 OFFCURVE",
"615 626 CURVE SMOOTH",
"558 683 OFFCURVE",
"471 711 OFFCURVE",
"383 711 CURVE SMOOTH",
"186 711 OFFCURVE",
"59 579 OFFCURVE",
"59 353 CURVE SMOOTH",
"59 126 OFFCURVE",
"183 -6 OFFCURVE",
"390 -6 CURVE SMOOTH"
);
}
);
width = 703;
},
{
background = {
paths = (
{
closed = 1;
nodes = (
"452 393 LINE SMOOTH",
"404 393 OFFCURVE",
"382 372 OFFCURVE",
"382 335 CURVE SMOOTH",
"382 298 OFFCURVE",
"404 277 OFFCURVE",
"452 277 CURVE SMOOTH",
"524 277 LINE",
"524 100 LINE",
"563 153 LINE",
"516 140 OFFCURVE",
"470 132 OFFCURVE",
"428 132 CURVE SMOOTH",
"318 132 OFFCURVE",
"231 178 OFFCURVE",
"231 353 CURVE SMOOTH",
"231 502 OFFCURVE",
"294 568 OFFCURVE",
"418 568 CURVE SMOOTH",
"487 568 OFFCURVE",
"527 546 OFFCURVE",
"560 527 CURVE SMOOTH",
"579 516 OFFCURVE",
"593 509 OFFCURVE",
"615 509 CURVE SMOOTH",
"653 509 OFFCURVE",
"674 550 OFFCURVE",
"674 582 CURVE SMOOTH",
"674 608 OFFCURVE",
"667 627 OFFCURVE",
"642 645 CURVE SMOOTH",
"585 686 OFFCURVE",
"515 712 OFFCURVE",
"412 712 CURVE SMOOTH",
"188 712 OFFCURVE",
"46 572 OFFCURVE",
"46 353 CURVE SMOOTH",
"46 133 OFFCURVE",
"184 -7 OFFCURVE",
"419 -7 CURVE SMOOTH",
"479 -7 OFFCURVE",
"549 3 OFFCURVE",
"594 15 CURVE SMOOTH",
"672 36 OFFCURVE",
"687 64 OFFCURVE",
"687 158 CURVE SMOOTH",
"687 325 LINE SMOOTH",
"687 362 OFFCURVE",
"664 393 OFFCURVE",
"616 393 CURVE SMOOTH"
);
}
);
};
layerId = "E1B555A7-F4E1-459C-9C1A-AE952106EEF9";
paths = (
{
closed = 1;
nodes = (
"479 -7 OFFCURVE",
"549 3 OFFCURVE",
"594 15 CURVE SMOOTH",
"672 36 OFFCURVE",
"687 64 OFFCURVE",
"687 158 CURVE SMOOTH",
"687 330 LINE SMOOTH",
"687 367 OFFCURVE",
"664 398 OFFCURVE",
"616 398 CURVE SMOOTH",
"452 398 LINE SMOOTH",
"409 398 OFFCURVE",
"382 377 OFFCURVE",
"382 335 CURVE SMOOTH",
"382 293 OFFCURVE",
"409 272 OFFCURVE",
"452 272 CURVE SMOOTH",
"524 272 LINE",
"524 100 LINE",
"563 153 LINE",
"516 140 OFFCURVE",
"470 132 OFFCURVE",
"428 132 CURVE SMOOTH",
"318 132 OFFCURVE",
"231 178 OFFCURVE",
"231 353 CURVE SMOOTH",
"231 502 OFFCURVE",
"294 568 OFFCURVE",
"418 568 CURVE SMOOTH",
"487 568 OFFCURVE",
"527 546 OFFCURVE",
"560 527 CURVE SMOOTH",
"579 516 OFFCURVE",
"593 509 OFFCURVE",
"615 509 CURVE SMOOTH",
"653 509 OFFCURVE",
"674 550 OFFCURVE",
"674 582 CURVE SMOOTH",
"674 608 OFFCURVE",
"667 627 OFFCURVE",
"642 645 CURVE SMOOTH",
"585 686 OFFCURVE",
"515 712 OFFCURVE",
"412 712 CURVE SMOOTH",
"188 712 OFFCURVE",
"46 572 OFFCURVE",
"46 353 CURVE SMOOTH",
"46 133 OFFCURVE",
"184 -7 OFFCURVE",
"419 -7 CURVE SMOOTH"
);
}
);
width = 745;
}
);
leftMetricsKey = O;
unicode = 0047;
userData = {
anchors = (
);
b = {
};
com.typemytype.robofont.layerData = {
b = {
anchors = (
);
components = (
);
contours = (
{
points = (
{
segmentType = curve;
smooth = 1;
x = 783;
y = "-22";
},
{
smooth = 0;
x = 965;
y = "-22";
},
{
smooth = 0;
x = 1086;
y = 34;
},
{
segmentType = curve;
smooth = 1;
x = 1166;
y = 86;
},
{
smooth = 0;
x = 1270;
y = 154;
},
{
smooth = 0;
x = 1186;
y = 258;
},
{
segmentType = curve;
smooth = 1;
x = 1112;
y = 214;
},
{
smooth = 0;
x = 1024;
y = 162;
},
{
smooth = 0;
x = 939;
y = 120;
},
{
segmentType = curve;
smooth = 1;
x = 806;
y = 120;
},
{
smooth = 0;
x = 446;
y = 120;
},
{
smooth = 0;
x = 316;
y = 406;
},
{
segmentType = curve;
smooth = 1;
x = 316;
y = 706;
},
{
smooth = 0;
x = 316;
y = 1005;
},
{
smooth = 0;
x = 450;
y = 1296;
},
{
segmentType = curve;
smooth = 1;
x = 801;
y = 1296;
},
{
smooth = 0;
x = 980;
y = 1296;
},
{
smooth = 0;
x = 1053;
y = 1246;
},
{
segmentType = curve;
smooth = 1;
x = 1094;
y = 1225;
},
{
smooth = 0;
x = 1174;
y = 1184;
},
{
smooth = 0;
x = 1231;
y = 1300;
},
{
segmentType = curve;
smooth = 1;
x = 1156;
y = 1343;
},
{
smooth = 0;
x = 1106;
y = 1372;
},
{
smooth = 0;
x = 995;
y = 1438;
},
{
segmentType = curve;
smooth = 1;
x = 797;
y = 1438;
},
{
smooth = 0;
x = 359;
y = 1438;
},
{
smooth = 0;
x = 128;
y = 1093;
},
{
segmentType = curve;
smooth = 1;
x = 128;
y = 704;
},
{
smooth = 0;
x = 128;
y = 307;
},
{
smooth = 0;
x = 350;
y = "-22";
}
);
}
);
lib = {
};
name = G;
unicodes = (
);
width = 1448;
};
};
components = (
);
contours = (
);
lib = {
};
name = G;
unicodes = (
);
width = 1538;
};
},
{
glyphname = H;
lastChange = "2016-08-17 19:36:01 +0000";
layers = (
{
background = {
paths = (
{
closed = 1;
nodes = (
"651 -5 OFFCURVE",
"662 8 OFFCURVE",
"662 28 CURVE SMOOTH",
"662 677 LINE SMOOTH",
"662 697 OFFCURVE",
"651 710 OFFCURVE",
"632 710 CURVE SMOOTH",
"614 710 OFFCURVE",
"602 697 OFFCURVE",
"602 677 CURVE SMOOTH",
"602 28 LINE SMOOTH",
"602 8 OFFCURVE",
"614 -5 OFFCURVE",
"632 -5 CURVE SMOOTH"
);
},
{
closed = 1;
nodes = (
"138 -5 OFFCURVE",
"150 8 OFFCURVE",
"150 28 CURVE SMOOTH",
"150 677 LINE SMOOTH",
"150 697 OFFCURVE",
"138 710 OFFCURVE",
"120 710 CURVE SMOOTH",
"101 710 OFFCURVE",
"90 697 OFFCURVE",
"90 677 CURVE SMOOTH",
"90 28 LINE SMOOTH",
"90 8 OFFCURVE",
"101 -5 OFFCURVE",
"120 -5 CURVE SMOOTH"
);
},
{
closed = 1;
nodes = (
"615 330 LINE",
"615 386 LINE",
"125 386 LINE",
"125 330 LINE"
);
}
);
};
layerId = "9E718F8A-2CEA-4931-B05D-987794BD97DA";
paths = (
{
closed = 1;
nodes = (
"650 -5 OFFCURVE",
"662 8 OFFCURVE",
"662 28 CURVE SMOOTH",
"662 677 LINE SMOOTH",
"662 697 OFFCURVE",
"650 710 OFFCURVE",
"631 710 CURVE SMOOTH",
"612 710 OFFCURVE",
"600 697 OFFCURVE",
"600 677 CURVE SMOOTH",
"600 28 LINE SMOOTH",
"600 8 OFFCURVE",
"612 -5 OFFCURVE",
"631 -5 CURVE SMOOTH"
);
},
{
closed = 1;
nodes = (
"140 -5 OFFCURVE",
"152 8 OFFCURVE",
"152 28 CURVE SMOOTH",
"152 677 LINE SMOOTH",
"152 697 OFFCURVE",
"140 710 OFFCURVE",
"121 710 CURVE SMOOTH",
"102 710 OFFCURVE",
"90 697 OFFCURVE",
"90 677 CURVE SMOOTH",
"90 28 LINE SMOOTH",
"90 8 OFFCURVE",
"102 -5 OFFCURVE",
"121 -5 CURVE SMOOTH"
);
},
{
closed = 1;
nodes = (
"615 330 LINE",
"615 386 LINE",
"125 386 LINE",
"125 330 LINE"
);
}
);
width = 752;
},
{
background = {
paths = (
{
closed = 1;
nodes = (
"1010 0 OFFCURVE",
"1050 46 OFFCURVE",
"1050 102 CURVE SMOOTH",
"1050 294 LINE",
"1303 294 LINE",
"1304 102 LINE SMOOTH",
"1304 46 OFFCURVE",
"1344 0 OFFCURVE",
"1394 0 CURVE SMOOTH",
"1443 0 OFFCURVE",
"1484 46 OFFCURVE",
"1484 102 CURVE SMOOTH",
"1484 609 LINE SMOOTH",
"1484 665 OFFCURVE",
"1443 711 OFFCURVE",
"1394 711 CURVE SMOOTH",
"1344 711 OFFCURVE",
"1303 665 OFFCURVE",
"1303 609 CURVE SMOOTH",
"1303 440 LINE",
"1050 440 LINE",
"1050 609 LINE SMOOTH",
"1050 665 OFFCURVE",
"1010 711 OFFCURVE",
"960 711 CURVE SMOOTH",
"910 711 OFFCURVE",
"870 665 OFFCURVE",
"870 609 CURVE SMOOTH",
"870 102 LINE SMOOTH",
"870 46 OFFCURVE",
"910 0 OFFCURVE",
"960 0 CURVE SMOOTH"
);
},
{
closed = 1;
nodes = (
"612 -7 OFFCURVE",
"750 133 OFFCURVE",
"750 353 CURVE SMOOTH",
"750 572 OFFCURVE",
"612 712 OFFCURVE",
"398 712 CURVE SMOOTH",
"184 712 OFFCURVE",
"46 572 OFFCURVE",
"46 353 CURVE SMOOTH",
"46 133 OFFCURVE",
"184 -7 OFFCURVE",
"398 -7 CURVE SMOOTH"
);
},
{
closed = 1;
nodes = (
"287 134 OFFCURVE",
"228 204 OFFCURVE",
"228 353 CURVE SMOOTH",
"228 501 OFFCURVE",
"287 571 OFFCURVE",
"398 571 CURVE SMOOTH",
"509 571 OFFCURVE",
"568 501 OFFCURVE",
"568 353 CURVE SMOOTH",
"568 204 OFFCURVE",
"510 134 OFFCURVE",
"398 134 CURVE SMOOTH"
);
},
{
closed = 1;
nodes = (
"212 -6 OFFCURVE",
"254 23 OFFCURVE",
"254 84 CURVE SMOOTH",
"254 620 LINE SMOOTH",
"254 681 OFFCURVE",
"212 710 OFFCURVE",
"162 710 CURVE SMOOTH",
"112 710 OFFCURVE",
"70 681 OFFCURVE",
"70 620 CURVE SMOOTH",
"70 84 LINE SMOOTH",
"70 23 OFFCURVE",
"112 -6 OFFCURVE",
"162 -6 CURVE SMOOTH"
);
},
{
closed = 1;
nodes = (
"675 -6 OFFCURVE",
"717 23 OFFCURVE",
"717 84 CURVE SMOOTH",
"717 620 LINE SMOOTH",
"717 681 OFFCURVE",
"675 710 OFFCURVE",
"625 710 CURVE SMOOTH",
"575 710 OFFCURVE",
"533 681 OFFCURVE",
"533 620 CURVE SMOOTH",
"533 84 LINE SMOOTH",
"533 23 OFFCURVE",
"575 -6 OFFCURVE",
"625 -6 CURVE SMOOTH"
);
},
{
closed = 1;
nodes = (
"125 283 LINE",
"645 283 LINE",
"645 433 LINE",
"125 433 LINE"
);
}
);
};
layerId = "E1B555A7-F4E1-459C-9C1A-AE952106EEF9";
paths = (
{
closed = 1;
nodes = (
"676 -6 OFFCURVE",
"718 23 OFFCURVE",
"718 84 CURVE SMOOTH",
"718 620 LINE SMOOTH",
"718 681 OFFCURVE",
"676 710 OFFCURVE",
"628 710 CURVE SMOOTH",
"580 710 OFFCURVE",
"538 681 OFFCURVE",
"538 620 CURVE SMOOTH",
"538 84 LINE SMOOTH",
"538 23 OFFCURVE",
"580 -6 OFFCURVE",
"628 -6 CURVE SMOOTH"
);
},
{
closed = 1;
nodes = (
"208 -6 OFFCURVE",
"250 23 OFFCURVE",
"250 84 CURVE SMOOTH",
"250 620 LINE SMOOTH",
"250 681 OFFCURVE",
"208 710 OFFCURVE",
"160 710 CURVE SMOOTH",
"112 710 OFFCURVE",
"70 681 OFFCURVE",
"70 620 CURVE SMOOTH",
"70 84 LINE SMOOTH",
"70 23 OFFCURVE",
"112 -6 OFFCURVE",
"160 -6 CURVE SMOOTH"
);
},
{
closed = 1;
nodes = (
"652 282 LINE",
"652 429 LINE",
"125 429 LINE",
"125 282 LINE"
);
}
);
width = 788;
}
);
unicode = 0048;
userData = {
anchors = (
);
b = {
};
com.typemytype.robofont.layerData = {
b = {
anchors = (
);
components = (
);
contours = (
);
lib = {
};
name = H;
unicodes = (
);
width = 1464;
};
};
components = (
);
contours = (
);
lib = {
};
name = H;
unicodes = (
);
width = 1524;
};
},
{
glyphname = I;
lastChange = "2016-08-17 19:36:01 +0000";
layers = (
{
background = {
paths = (
{
closed = 1;
nodes = (
"151 -16 OFFCURVE",
"151 28 CURVE SMOOTH",
"151 677 LINE SMOOTH",
"151 721 OFFCURVE",
"91 721 OFFCURVE",
"91 677 CURVE SMOOTH",
"91 28 LINE SMOOTH",
"91 -16 OFFCURVE"
);
}
);
};
layerId = "9E718F8A-2CEA-4931-B05D-987794BD97DA";
paths = (
{
closed = 1;
nodes = (
"140 -5 OFFCURVE",
"152 8 OFFCURVE",
"152 28 CURVE SMOOTH",
"152 677 LINE SMOOTH",
"152 697 OFFCURVE",
"140 710 OFFCURVE",
"121 710 CURVE SMOOTH",
"102 710 OFFCURVE",
"90 697 OFFCURVE",
"90 677 CURVE SMOOTH",
"90 28 LINE SMOOTH",
"90 8 OFFCURVE",
"102 -5 OFFCURVE",
"121 -5 CURVE SMOOTH"
);
}
);
width = 242;
},
{
background = {
paths = (
{
closed = 1;
nodes = (
"209 0 OFFCURVE",
"249 46 OFFCURVE",
"249 102 CURVE SMOOTH",
"249 609 LINE SMOOTH",
"249 665 OFFCURVE",
"209 711 OFFCURVE",
"159 711 CURVE SMOOTH",
"109 711 OFFCURVE",
"69 665 OFFCURVE",
"69 609 CURVE SMOOTH",
"69 102 LINE SMOOTH",
"69 46 OFFCURVE",
"109 0 OFFCURVE",
"158 0 CURVE SMOOTH"
);
}
);
};
layerId = "E1B555A7-F4E1-459C-9C1A-AE952106EEF9";
paths = (
{
closed = 1;
nodes = (
"212 -6 OFFCURVE",
"254 23 OFFCURVE",
"254 84 CURVE SMOOTH",
"254 620 LINE SMOOTH",
"254 681 OFFCURVE",
"212 710 OFFCURVE",
"162 710 CURVE SMOOTH",
"112 710 OFFCURVE",
"70 681 OFFCURVE",
"70 620 CURVE SMOOTH",
"70 84 LINE SMOOTH",
"70 23 OFFCURVE",
"112 -6 OFFCURVE",
"162 -6 CURVE SMOOTH"
);
}
);
width = 324;
}
);
leftMetricsKey = H;
rightMetricsKey = H;
unicode = 0049;
userData = {
anchors = (
);
b = {
};
com.typemytype.robofont.layerData = {
b = {
anchors = (
);
components = (
);
contours = (
);
lib = {
};
name = I;
unicodes = (
);
width = 592;
};
};
components = (
);
contours = (
);
lib = {
};
name = I;
unicodes = (
);
width = 637;
};
},
{
glyphname = J;
lastChange = "2016-08-17 19:36:01 +0000";
layers = (
{
background = {
paths = (
{
closed = 1;
nodes = (
"69 -3 LINE SMOOTH",
"176 4 OFFCURVE",
"228 60 OFFCURVE",
"228 182 CURVE SMOOTH",
"228 677 LINE SMOOTH",
"228 697 OFFCURVE",
"217 710 OFFCURVE",
"198 710 CURVE SMOOTH",
"182 710 OFFCURVE",
"168 697 OFFCURVE",
"168 677 CURVE SMOOTH",
"168 184 LINE SMOOTH",
"168 88 OFFCURVE",
"131 57 OFFCURVE",
"59 52 CURVE SMOOTH",
"30 50 LINE SMOOTH",
"9 49 OFFCURVE",
"0 37 OFFCURVE",
"0 22 CURVE SMOOTH",
"0 5 OFFCURVE",
"13 -7 OFFCURVE",
"39 -5 CURVE SMOOTH"
);
}
);
};
layerId = "9E718F8A-2CEA-4931-B05D-987794BD97DA";
paths = (
{
closed = 1;
nodes = (
"69 -3 LINE SMOOTH",
"176 4 OFFCURVE",
"230 60 OFFCURVE",
"230 182 CURVE SMOOTH",
"230 677 LINE SMOOTH",
"230 697 OFFCURVE",
"219 710 OFFCURVE",
"199 710 CURVE SMOOTH",
"183 710 OFFCURVE",
"168 697 OFFCURVE",
"168 677 CURVE SMOOTH",
"168 184 LINE SMOOTH",
"168 88 OFFCURVE",
"131 57 OFFCURVE",
"59 52 CURVE SMOOTH",
"30 50 LINE SMOOTH",
"9 49 OFFCURVE",
"0 37 OFFCURVE",
"0 22 CURVE SMOOTH",
"0 5 OFFCURVE",
"13 -7 OFFCURVE",
"39 -5 CURVE SMOOTH"
);
}
);
width = 320;
},
{
background = {
paths = (
{
closed = 1;
nodes = (
"817 -17 OFFCURVE",
"911 71 OFFCURVE",
"911 234 CURVE SMOOTH",
"912 609 LINE SMOOTH",
"912 665 OFFCURVE",
"872 711 OFFCURVE",
"822 711 CURVE SMOOTH",
"772 711 OFFCURVE",
"732 665 OFFCURVE",
"732 609 CURVE SMOOTH",
"732 250 LINE SMOOTH",
"732 169 OFFCURVE",
"703 144 OFFCURVE",
"639 144 CURVE SMOOTH",
"608 144 OFFCURVE",
"577 160 OFFCURVE",
"559 174 CURVE",
"542 189 OFFCURVE",
"526 195 OFFCURVE",
"510 195 CURVE SMOOTH",
"471 195 OFFCURVE",
"441 159 OFFCURVE",
"441 116 CURVE SMOOTH",
"441 91 OFFCURVE",
"451 70 OFFCURVE",
"469 51 CURVE SMOOTH",
"514 4 OFFCURVE",
"583 -17 OFFCURVE",
"656 -17 CURVE SMOOTH"
);
},
{
closed = 1;
nodes = (
"350 384 LINE",
"350 620 LINE SMOOTH",
"350 681 OFFCURVE",
"308 710 OFFCURVE",
"258 710 CURVE SMOOTH",
"208 710 OFFCURVE",
"166 681 OFFCURVE",
"166 620 CURVE SMOOTH",
"166 384 LINE"
);
}
);
};
layerId = "E1B555A7-F4E1-459C-9C1A-AE952106EEF9";
paths = (
{
closed = 1;
nodes = (
"142 -4 LINE SMOOTH",
"284 5 OFFCURVE",
"350 84 OFFCURVE",
"350 214 CURVE SMOOTH",
"350 620 LINE SMOOTH",
"350 681 OFFCURVE",
"308 710 OFFCURVE",
"258 710 CURVE SMOOTH",
"208 710 OFFCURVE",
"166 681 OFFCURVE",
"166 620 CURVE SMOOTH",
"166 211 LINE SMOOTH",
"166 168 OFFCURVE",
"143 142 OFFCURVE",
"104 140 CURVE SMOOTH",
"71 138 LINE SMOOTH",
"21 135 OFFCURVE",
"0 113 OFFCURVE",
"0 68 CURVE SMOOTH",
"0 11 OFFCURVE",
"43 -10 OFFCURVE",
"109 -6 CURVE SMOOTH"
);
}
);
width = 420;
}
);
rightMetricsKey = H;
unicode = 004A;
userData = {
anchors = (
);
b = {
};
com.typemytype.robofont.layerData = {
b = {
anchors = (
);
components = (
);
contours = (
);
lib = {
};
name = J;
unicodes = (
);
width = 1003;
};
};
components = (
);
contours = (
);
lib = {
};
name = J;
unicodes = (
);
width = 1126;
};
},
{
glyphname = K;
lastChange = "2016-08-17 19:36:01 +0000";
layers = (
{
background = {
paths = (
{
closed = 1;
nodes = (
"571 -21 OFFCURVE",
"611 19 OFFCURVE",
"580 45 CURVE SMOOTH",
"187 381 LINE",
"187 338 LINE",
"562 661 LINE SMOOTH",
"591 686 OFFCURVE",
"550 726 OFFCURVE",
"522 701 CURVE SMOOTH",
"127 357 LINE",
"542 4 LINE SMOOTH"
);
},
{
closed = 1;
nodes = (
"139 -5 OFFCURVE",
"150 8 OFFCURVE",
"150 28 CURVE SMOOTH",
"150 677 LINE SMOOTH",
"150 697 OFFCURVE",
"139 710 OFFCURVE",
"120 710 CURVE SMOOTH",
"101 710 OFFCURVE",
"90 697 OFFCURVE",
"90 677 CURVE SMOOTH",
"90 28 LINE SMOOTH",
"90 8 OFFCURVE",
"101 -5 OFFCURVE",
"120 -5 CURVE SMOOTH"
);
}
);
};
layerId = "9E718F8A-2CEA-4931-B05D-987794BD97DA";
paths = (
{
closed = 1;
nodes = (
"571 -21 OFFCURVE",
"612 20 OFFCURVE",
"580 47 CURVE SMOOTH",
"189 381 LINE",
"189 338 LINE",
"562 659 LINE SMOOTH",
"592 685 OFFCURVE",
"550 726 OFFCURVE",
"522 701 CURVE SMOOTH",
"127 357 LINE",
"542 4 LINE SMOOTH"
);
},
{
closed = 1;
nodes = (
"140 -5 OFFCURVE",
"152 8 OFFCURVE",
"152 28 CURVE SMOOTH",
"152 677 LINE SMOOTH",
"152 697 OFFCURVE",
"140 710 OFFCURVE",
"121 710 CURVE SMOOTH",
"102 710 OFFCURVE",
"90 697 OFFCURVE",
"90 677 CURVE SMOOTH",
"90 28 LINE SMOOTH",
"90 8 OFFCURVE",
"102 -5 OFFCURVE",
"121 -5 CURVE SMOOTH"
);
}
);
width = 606;
},
{
background = {
paths = (
{
closed = 1;
nodes = (
"626 -61 OFFCURVE",
"743 58 OFFCURVE",
"665 138 CURVE SMOOTH",
"396 411 LINE",
"389 317 LINE",
"648 567 LINE SMOOTH",
"731 648 OFFCURVE",
"613 761 OFFCURVE",
"535 682 CURVE SMOOTH",
"215 361 LINE",
"540 28 LINE SMOOTH"
);
},
{
closed = 1;
nodes = (
"212 -6 OFFCURVE",
"254 23 OFFCURVE",
"254 84 CURVE SMOOTH",
"254 620 LINE SMOOTH",
"254 681 OFFCURVE",
"212 710 OFFCURVE",
"162 710 CURVE SMOOTH",
"112 710 OFFCURVE",
"70 681 OFFCURVE",
"70 620 CURVE SMOOTH",
"70 84 LINE SMOOTH",
"70 23 OFFCURVE",
"112 -6 OFFCURVE",
"162 -6 CURVE SMOOTH"
);
}
);
};
layerId = "E1B555A7-F4E1-459C-9C1A-AE952106EEF9";
paths = (
{
closed = 1;
nodes = (
"626 -61 OFFCURVE",
"743 58 OFFCURVE",
"665 138 CURVE SMOOTH",
"396 411 LINE",
"389 317 LINE",
"648 567 LINE SMOOTH",
"731 648 OFFCURVE",
"613 761 OFFCURVE",
"535 682 CURVE SMOOTH",
"215 361 LINE",
"540 28 LINE SMOOTH"
);
},
{
closed = 1;
nodes = (
"212 -6 OFFCURVE",
"254 23 OFFCURVE",
"254 84 CURVE SMOOTH",
"254 620 LINE SMOOTH",
"254 681 OFFCURVE",
"212 710 OFFCURVE",
"162 710 CURVE SMOOTH",
"112 710 OFFCURVE",
"70 681 OFFCURVE",
"70 620 CURVE SMOOTH",
"70 84 LINE SMOOTH",
"70 23 OFFCURVE",
"112 -6 OFFCURVE",
"162 -6 CURVE SMOOTH"
);
}
);
width = 704;
}
);
leftMetricsKey = H;
unicode = 004B;
userData = {
anchors = (
);
b = {
};
com.typemytype.robofont.layerData = {
b = {
anchors = (
);
components = (
);
contours = (
);
lib = {
};
name = K;
unicodes = (
);
width = 1210;
};
};
components = (
);
contours = (
);
lib = {
};
name = K;
unicodes = (
);
width = 1329;
};
},
{
glyphname = L;
lastChange = "2016-08-17 19:36:01 +0000";
layers = (
{
background = {
paths = (
{
closed = 1;
nodes = (
"493 0 LINE SMOOTH",
"510 0 OFFCURVE",
"521 11 OFFCURVE",
"521 28 CURVE SMOOTH",
"521 45 OFFCURVE",
"510 56 OFFCURVE",
"493 56 CURVE SMOOTH",
"150 56 LINE",
"150 677 LINE SMOOTH",
"150 697 OFFCURVE",
"139 710 OFFCURVE",
"120 710 CURVE SMOOTH",
"101 710 OFFCURVE",
"90 697 OFFCURVE",
"90 677 CURVE SMOOTH",
"90 29 LINE SMOOTH",
"90 12 OFFCURVE",
"105 0 OFFCURVE",
"121 0 CURVE SMOOTH"
);
}
);
};
layerId = "9E718F8A-2CEA-4931-B05D-987794BD97DA";
paths = (
{
closed = 1;
nodes = (
"493 0 LINE SMOOTH",
"510 0 OFFCURVE",
"521 11 OFFCURVE",
"521 28 CURVE SMOOTH",
"521 45 OFFCURVE",
"510 56 OFFCURVE",
"493 56 CURVE SMOOTH",
"152 56 LINE",
"152 677 LINE SMOOTH",
"152 697 OFFCURVE",
"141 710 OFFCURVE",
"121 710 CURVE SMOOTH",
"102 710 OFFCURVE",
"90 697 OFFCURVE",
"90 677 CURVE SMOOTH",
"90 29 LINE SMOOTH",
"90 12 OFFCURVE",
"105 0 OFFCURVE",
"121 0 CURVE SMOOTH"
);
}
);
width = 526;
},
{
background = {
paths = (
{
closed = 1;
nodes = (
"484 0 LINE SMOOTH",
"545 0 OFFCURVE",
"571 27 OFFCURVE",
"571 77 CURVE SMOOTH",
"571 127 OFFCURVE",
"545 154 OFFCURVE",
"484 154 CURVE SMOOTH",
"254 154 LINE",
"254 620 LINE SMOOTH",
"254 681 OFFCURVE",
"212 710 OFFCURVE",
"162 710 CURVE SMOOTH",
"112 710 OFFCURVE",
"70 681 OFFCURVE",
"70 620 CURVE SMOOTH",
"70 85 LINE SMOOTH",
"70 30 OFFCURVE",
"100 0 OFFCURVE",
"155 0 CURVE SMOOTH"
);
}
);
};
layerId = "E1B555A7-F4E1-459C-9C1A-AE952106EEF9";
paths = (
{
closed = 1;
nodes = (
"484 0 LINE SMOOTH",
"545 0 OFFCURVE",
"571 27 OFFCURVE",
"571 75 CURVE SMOOTH",
"571 123 OFFCURVE",
"545 150 OFFCURVE",
"484 150 CURVE SMOOTH",
"254 150 LINE",
"254 620 LINE SMOOTH",
"254 681 OFFCURVE",
"212 710 OFFCURVE",
"162 710 CURVE SMOOTH",
"112 710 OFFCURVE",
"70 681 OFFCURVE",
"70 620 CURVE SMOOTH",
"70 85 LINE SMOOTH",
"70 30 OFFCURVE",
"100 0 OFFCURVE",
"155 0 CURVE SMOOTH"
);
}
);
width = 576;
}
);
leftMetricsKey = H;
unicode = 004C;
userData = {
anchors = (
);
b = {
};
com.typemytype.robofont.layerData = {
b = {
anchors = (
);
components = (
);
contours = (
{
points = (
{
segmentType = curve;
smooth = 1;
x = 266;
y = 0;
},
{
segmentType = line;
smooth = 1;
x = 1035;
y = 0;
},
{
smooth = 0;
x = 1084;
y = 0;
},
{
smooth = 0;
x = 1108;
y = 34;
},
{
segmentType = curve;
smooth = 1;
x = 1108;
y = 71;
},
{
smooth = 0;
x = 1108;
y = 107;
},
{
smooth = 0;
x = 1084;
y = 141;
},
{
segmentType = curve;
smooth = 1;
x = 1035;
y = 141;
},
{
segmentType = line;
smooth = 0;
x = 356;
y = 141;
},
{
segmentType = line;
smooth = 0;
x = 356;
y = 665;
},
{
segmentType = line;
smooth = 1;
x = 975;
y = 665;
},
{
smooth = 0;
x = 1024;
y = 665;
},
{
smooth = 0;
x = 1049;
y = 698;
},
{
segmentType = curve;
smooth = 1;
x = 1049;
y = 734;
},
{
smooth = 0;
x = 1049;
y = 770;
},
{
smooth = 0;
x = 1026;
y = 803;
},
{
segmentType = curve;
smooth = 1;
x = 975;
y = 803;
},
{
segmentType = line;
smooth = 0;
x = 356;
y = 803;
},
{
segmentType = line;
smooth = 0;
x = 356;
y = 1285;
},
{
segmentType = line;
smooth = 1;
x = 1007;
y = 1285;
},
{
smooth = 0;
x = 1056;
y = 1285;
},
{
smooth = 0;
x = 1080;
y = 1319;
},
{
segmentType = curve;
smooth = 1;
x = 1080;
y = 1356;
},
{
smooth = 0;
x = 1080;
y = 1392;
},
{
smooth = 0;
x = 1056;
y = 1426;
},
{
segmentType = curve;
smooth = 1;
x = 1007;
y = 1426;
},
{
segmentType = line;
smooth = 1;
x = 261;
y = 1426;
},
{
smooth = 0;
x = 213;
y = 1426;
},
{
smooth = 0;
x = 178;
y = 1383;
},
{
segmentType = curve;
smooth = 1;
x = 178;
y = 1340;
},
{
segmentType = line;
smooth = 1;
x = 178;
y = 86;
},
{
smooth = 0;
x = 178;
y = 41;
},
{
smooth = 0;
x = 222;
y = 0;
}
);
}
);
lib = {
};
name = L;
unicodes = (
);
width = 1095;
};
};
components = (
);
contours = (
);
lib = {
};
name = L;
unicodes = (
);
width = 1169;
};
},
{
glyphname = M;
lastChange = "2016-08-17 19:36:01 +0000";
layers = (
{
background = {
paths = (
{
closed = 1;
nodes = (
"138 -5 OFFCURVE",
"150 8 OFFCURVE",
"150 28 CURVE SMOOTH",
"150 633 LINE",
"116 630 LINE",
"385 124 LINE SMOOTH",
"393 109 OFFCURVE",
"404 101 OFFCURVE",
"418 101 CURVE SMOOTH",
"432 101 OFFCURVE",
"443 109 OFFCURVE",
"451 124 CURVE SMOOTH",
"716 630 LINE",
"686 633 LINE",
"686 28 LINE SMOOTH",
"686 8 OFFCURVE",
"697 -5 OFFCURVE",
"716 -5 CURVE SMOOTH",
"735 -5 OFFCURVE",
"746 8 OFFCURVE",
"746 28 CURVE SMOOTH",
"746 677 LINE SMOOTH",
"746 697 OFFCURVE",
"734 710 OFFCURVE",
"715 710 CURVE SMOOTH",
"703 710 OFFCURVE",
"693 705 OFFCURVE",
"684 687 CURVE SMOOTH",
"404 147 LINE",
"438 147 LINE",
"153 687 LINE SMOOTH",
"144 705 OFFCURVE",
"133 710 OFFCURVE",
"121 710 CURVE SMOOTH",
"102 710 OFFCURVE",
"90 697 OFFCURVE",
"90 677 CURVE SMOOTH",
"90 28 LINE SMOOTH",
"90 8 OFFCURVE",
"101 -5 OFFCURVE",
"120 -5 CURVE SMOOTH"
);
}
);
};
layerId = "9E718F8A-2CEA-4931-B05D-987794BD97DA";
paths = (
{
closed = 1;
nodes = (
"138 -5 OFFCURVE",
"149 8 OFFCURVE",
"149 28 CURVE SMOOTH",
"149 633 LINE",
"116 631 LINE",
"386 124 LINE SMOOTH",
"394 109 OFFCURVE",
"405 101 OFFCURVE",
"419 101 CURVE SMOOTH",
"433 101 OFFCURVE",
"444 109 OFFCURVE",
"452 124 CURVE SMOOTH",
"717 630 LINE",
"688 633 LINE",
"688 28 LINE SMOOTH",
"688 8 OFFCURVE",
"698 -5 OFFCURVE",
"717 -5 CURVE SMOOTH",
"736 -5 OFFCURVE",
"747 8 OFFCURVE",
"747 28 CURVE SMOOTH",
"747 677 LINE SMOOTH",
"747 697 OFFCURVE",
"735 710 OFFCURVE",
"716 710 CURVE SMOOTH",
"704 710 OFFCURVE",
"694 705 OFFCURVE",
"685 687 CURVE SMOOTH",
"405 147 LINE",
"436 147 LINE",
"152 687 LINE SMOOTH",
"143 705 OFFCURVE",
"133 710 OFFCURVE",
"121 710 CURVE SMOOTH",
"102 710 OFFCURVE",
"90 697 OFFCURVE",
"90 677 CURVE SMOOTH",
"90 28 LINE SMOOTH",
"90 8 OFFCURVE",
"101 -5 OFFCURVE",
"120 -5 CURVE SMOOTH"
);
}
);
width = 837;
},
{
background = {
paths = (
{
closed = 1;
nodes = (
"196 -6 OFFCURVE",
"238 23 OFFCURVE",
"238 84 CURVE SMOOTH",
"238 426 LINE",
"206 420 LINE",
"343 160 LINE SMOOTH",
"365 118 OFFCURVE",
"389 101 OFFCURVE",
"425 101 CURVE SMOOTH",
"461 101 OFFCURVE",
"485 118 OFFCURVE",
"507 160 CURVE SMOOTH",
"644 420 LINE",
"612 426 LINE",
"612 84 LINE SMOOTH",
"612 23 OFFCURVE",
"654 -6 OFFCURVE",
"696 -6 CURVE SMOOTH",
"738 -6 OFFCURVE",
"780 23 OFFCURVE",
"780 84 CURVE SMOOTH",
"780 620 LINE SMOOTH",
"780 681 OFFCURVE",
"738 710 OFFCURVE",
"694 710 CURVE SMOOTH",
"668 710 OFFCURVE",
"641 700 OFFCURVE",
"615 650 CURVE SMOOTH",
"411 259 LINE",
"447 259 LINE",
"245 650 LINE SMOOTH",
"219 700 OFFCURVE",
"182 710 OFFCURVE",
"156 710 CURVE SMOOTH",
"112 710 OFFCURVE",
"70 681 OFFCURVE",
"70 620 CURVE SMOOTH",
"70 84 LINE SMOOTH",
"70 23 OFFCURVE",
"112 -6 OFFCURVE",
"154 -6 CURVE SMOOTH"
);
}
);
};
layerId = "E1B555A7-F4E1-459C-9C1A-AE952106EEF9";
paths = (
{
closed = 1;
nodes = (
"190 -6 OFFCURVE",
"232 23 OFFCURVE",
"232 84 CURVE SMOOTH",
"232 427 LINE",
"203 424 LINE",
"344 160 LINE SMOOTH",
"367 118 OFFCURVE",
"390 101 OFFCURVE",
"425 101 CURVE SMOOTH",
"460 101 OFFCURVE",
"484 118 OFFCURVE",
"506 160 CURVE SMOOTH",
"644 422 LINE",
"618 427 LINE",
"618 84 LINE SMOOTH",
"618 23 OFFCURVE",
"660 -6 OFFCURVE",
"699 -6 CURVE SMOOTH",
"738 -6 OFFCURVE",
"780 23 OFFCURVE",
"780 84 CURVE SMOOTH",
"780 620 LINE SMOOTH",
"780 681 OFFCURVE",
"738 710 OFFCURVE",
"694 710 CURVE SMOOTH",
"668 710 OFFCURVE",
"636 700 OFFCURVE",
"610 650 CURVE SMOOTH",
"409 265 LINE",
"445 265 LINE",
"243 650 LINE SMOOTH",
"217 700 OFFCURVE",
"182 710 OFFCURVE",
"156 710 CURVE SMOOTH",
"112 710 OFFCURVE",
"70 681 OFFCURVE",
"70 620 CURVE SMOOTH",
"70 84 LINE SMOOTH",
"70 23 OFFCURVE",
"112 -6 OFFCURVE",
"151 -6 CURVE SMOOTH"
);
}
);
width = 850;
}
);
leftMetricsKey = H;
rightMetricsKey = H;
unicode = 004D;
userData = {
anchors = (
);
b = {
};
com.typemytype.robofont.layerData = {
b = {
anchors = (
);
components = (
);
contours = (
);
lib = {
};
name = M;
unicodes = (
);
width = 1899;
};
};
components = (
);
contours = (
);
lib = {
};
name = M;
unicodes = (
);
width = 1984;
};
},
{
glyphname = N;
lastChange = "2016-08-17 19:36:01 +0000";
layers = (
{
background = {
paths = (
{
closed = 1;
nodes = (
"138 -5 OFFCURVE",
"150 8 OFFCURVE",
"150 28 CURVE SMOOTH",
"150 633 LINE",
"125 629 LINE",
"585 10 LINE SMOOTH",
"593 0 OFFCURVE",
"600 -5 OFFCURVE",
"612 -5 CURVE SMOOTH",
"631 -5 OFFCURVE",
"643 8 OFFCURVE",
"643 28 CURVE SMOOTH",
"643 677 LINE SMOOTH",
"643 697 OFFCURVE",
"632 710 OFFCURVE",
"613 710 CURVE SMOOTH",
"595 710 OFFCURVE",
"583 697 OFFCURVE",
"583 677 CURVE SMOOTH",
"583 72 LINE",
"608 76 LINE",
"148 695 LINE SMOOTH",
"140 705 OFFCURVE",
"133 710 OFFCURVE",
"121 710 CURVE SMOOTH",
"102 710 OFFCURVE",
"90 697 OFFCURVE",
"90 677 CURVE SMOOTH",
"90 28 LINE SMOOTH",
"90 8 OFFCURVE",
"101 -5 OFFCURVE",
"120 -5 CURVE SMOOTH"
);
}
);
};
layerId = "9E718F8A-2CEA-4931-B05D-987794BD97DA";
paths = (
{
closed = 1;
nodes = (
"138 -5 OFFCURVE",
"150 8 OFFCURVE",
"150 28 CURVE SMOOTH",
"150 633 LINE",
"125 631 LINE",
"585 10 LINE SMOOTH",
"593 0 OFFCURVE",
"600 -5 OFFCURVE",
"612 -5 CURVE SMOOTH",
"631 -5 OFFCURVE",
"643 8 OFFCURVE",
"643 28 CURVE SMOOTH",
"643 677 LINE SMOOTH",
"643 697 OFFCURVE",
"632 710 OFFCURVE",
"613 710 CURVE SMOOTH",
"595 710 OFFCURVE",
"583 697 OFFCURVE",
"583 677 CURVE SMOOTH",
"583 72 LINE",
"608 74 LINE",
"148 695 LINE SMOOTH",
"140 705 OFFCURVE",
"133 710 OFFCURVE",
"121 710 CURVE SMOOTH",
"102 710 OFFCURVE",
"90 697 OFFCURVE",
"90 677 CURVE SMOOTH",
"90 28 LINE SMOOTH",
"90 8 OFFCURVE",
"101 -5 OFFCURVE",
"120 -5 CURVE SMOOTH"
);
}
);
width = 733;
},
{
background = {
paths = (
{
closed = 1;
nodes = (
"1691 0 OFFCURVE",
"1726 37 OFFCURVE",
"1726 81 CURVE SMOOTH",
"1726 465 LINE",
"2018 83 LINE",
"2050 37 OFFCURVE",
"2085 0 OFFCURVE",
"2125 0 CURVE SMOOTH",
"2201 0 OFFCURVE",
"2212 71 OFFCURVE",
"2212 147 CURVE SMOOTH",
"2212 630 LINE SMOOTH",
"2212 674 OFFCURVE",
"2178 711 OFFCURVE",
"2136 711 CURVE SMOOTH",
"2093 711 OFFCURVE",
"2060 674 OFFCURVE",
"2060 630 CURVE SMOOTH",
"2060 252 LINE",
"1771 627 LINE",
"1741 672 OFFCURVE",
"1703 710 OFFCURVE",
"1662 711 CURVE SMOOTH",
"1613 712 OFFCURVE",
"1573 674 OFFCURVE",
"1573 607 CURVE SMOOTH",
"1573 81 LINE SMOOTH",
"1573 38 OFFCURVE",
"1606 0 OFFCURVE",
"1649 0 CURVE SMOOTH"
);
},
{
closed = 1;
nodes = (
"900 -6 OFFCURVE",
"942 23 OFFCURVE",
"942 84 CURVE SMOOTH",
"942 620 LINE SMOOTH",
"942 681 OFFCURVE",
"900 710 OFFCURVE",
"856 710 CURVE SMOOTH",
"812 710 OFFCURVE",
"770 681 OFFCURVE",
"770 620 CURVE SMOOTH",
"770 84 LINE SMOOTH",
"770 23 OFFCURVE",
"812 -6 OFFCURVE",
"856 -6 CURVE SMOOTH"
);
},
{
closed = 1;
nodes = (
"1376 -6 OFFCURVE",
"1418 23 OFFCURVE",
"1418 84 CURVE SMOOTH",
"1418 620 LINE SMOOTH",
"1418 681 OFFCURVE",
"1376 710 OFFCURVE",
"1332 710 CURVE SMOOTH",
"1288 710 OFFCURVE",
"1246 681 OFFCURVE",
"1246 620 CURVE SMOOTH",
"1246 84 LINE SMOOTH",
"1246 23 OFFCURVE",
"1288 -6 OFFCURVE",
"1332 -6 CURVE SMOOTH"
);
},
{
closed = 1;
nodes = (
"856 523 LINE",
"1265 24 LINE",
"1332 181 LINE",
"923 680 LINE"
);
},
{
closed = 1;
nodes = (
"578 710 OFFCURVE",
"536 681 OFFCURVE",
"536 620 CURVE SMOOTH",
"536 241 LINE",
"565 256 LINE",
"223 680 LINE SMOOTH",
"205 702 OFFCURVE",
"182 710 OFFCURVE",
"156 710 CURVE SMOOTH",
"112 710 OFFCURVE",
"70 681 OFFCURVE",
"70 620 CURVE SMOOTH",
"70 84 LINE SMOOTH",
"70 23 OFFCURVE",
"112 -6 OFFCURVE",
"156 -6 CURVE SMOOTH",
"200 -6 OFFCURVE",
"242 23 OFFCURVE",
"242 84 CURVE SMOOTH",
"242 463 LINE",
"213 448 LINE",
"555 24 LINE SMOOTH",
"573 2 OFFCURVE",
"596 -6 OFFCURVE",
"622 -6 CURVE SMOOTH",
"666 -6 OFFCURVE",
"708 23 OFFCURVE",
"708 84 CURVE SMOOTH",
"708 620 LINE SMOOTH",
"708 681 OFFCURVE",
"666 710 OFFCURVE",
"622 710 CURVE SMOOTH"
);
}
);
};
layerId = "E1B555A7-F4E1-459C-9C1A-AE952106EEF9";
paths = (
{
closed = 1;
nodes = (
"200 -6 OFFCURVE",
"242 23 OFFCURVE",
"242 84 CURVE SMOOTH",
"242 463 LINE",
"213 448 LINE",
"546 24 LINE SMOOTH",
"564 2 OFFCURVE",
"587 -6 OFFCURVE",
"613 -6 CURVE SMOOTH",
"657 -6 OFFCURVE",
"699 23 OFFCURVE",
"699 84 CURVE SMOOTH",
"699 620 LINE SMOOTH",
"699 681 OFFCURVE",
"657 710 OFFCURVE",
"613 710 CURVE SMOOTH",
"569 710 OFFCURVE",
"527 681 OFFCURVE",
"527 620 CURVE SMOOTH",
"527 241 LINE",
"556 256 LINE",
"223 680 LINE SMOOTH",
"205 702 OFFCURVE",
"182 710 OFFCURVE",
"156 710 CURVE SMOOTH",
"112 710 OFFCURVE",
"70 681 OFFCURVE",
"70 620 CURVE SMOOTH",
"70 84 LINE SMOOTH",
"70 23 OFFCURVE",
"112 -6 OFFCURVE",
"156 -6 CURVE SMOOTH"
);
}
);
width = 769;
}
);
leftMetricsKey = H;
rightMetricsKey = H;
unicode = 004E;
userData = {
anchors = (
);
b = {
};
com.typemytype.robofont.layerData = {
b = {
anchors = (
);
components = (
);
contours = (
);
lib = {
};
name = N;
unicodes = (
);
width = 1499;
};
};
components = (
);
contours = (
);
lib = {
};
name = N;
unicodes = (
);
width = 1557;
};
},
{
glyphname = O;
lastChange = "2016-08-17 19:36:01 +0000";
layers = (
{
background = {
paths = (
{
closed = 1;
nodes = (
"562 -6 OFFCURVE",
"689 126 OFFCURVE",
"689 353 CURVE SMOOTH",
"689 580 OFFCURVE",
"562 711 OFFCURVE",
"374 711 CURVE SMOOTH",
"186 711 OFFCURVE",
"59 580 OFFCURVE",
"59 352 CURVE SMOOTH",
"59 126 OFFCURVE",
"186 -6 OFFCURVE",
"374 -6 CURVE SMOOTH"
);
},
{
closed = 1;
nodes = (
"213 49 OFFCURVE",
"122 164 OFFCURVE",
"122 353 CURVE SMOOTH",
"122 542 OFFCURVE",
"212 656 OFFCURVE",
"374 656 CURVE SMOOTH",
"538 656 OFFCURVE",
"626 542 OFFCURVE",
"626 353 CURVE SMOOTH",
"626 164 OFFCURVE",
"536 49 OFFCURVE",
"374 49 CURVE SMOOTH"
);
}
);
};
guideLines = (
{
position = "{388, 711}";
},
{
position = "{388, 651}";
},
{
angle = 90;
position = "{619, 352}";
}
);
layerId = "9E718F8A-2CEA-4931-B05D-987794BD97DA";
paths = (
{
closed = 1;
nodes = (
"562 -6 OFFCURVE",
"689 126 OFFCURVE",
"689 353 CURVE SMOOTH",
"689 580 OFFCURVE",
"562 711 OFFCURVE",
"374 711 CURVE SMOOTH",
"186 711 OFFCURVE",
"59 580 OFFCURVE",
"59 352 CURVE SMOOTH",
"59 126 OFFCURVE",
"186 -6 OFFCURVE",
"374 -6 CURVE SMOOTH"
);
},
{
closed = 1;
nodes = (
"214 49 OFFCURVE",
"123 164 OFFCURVE",
"123 353 CURVE SMOOTH",
"123 542 OFFCURVE",
"213 656 OFFCURVE",
"374 656 CURVE SMOOTH",
"537 656 OFFCURVE",
"625 542 OFFCURVE",
"625 353 CURVE SMOOTH",
"625 164 OFFCURVE",
"535 49 OFFCURVE",
"374 49 CURVE SMOOTH"
);
}
);
width = 748;
},
{
background = {
paths = (
{
closed = 1;
nodes = (
"1427 -19 OFFCURVE",
"1547 105 OFFCURVE",
"1547 354 CURVE SMOOTH",
"1547 603 OFFCURVE",
"1427 726 OFFCURVE",
"1198 726 CURVE SMOOTH",
"968 726 OFFCURVE",
"849 603 OFFCURVE",
"849 354 CURVE SMOOTH",
"849 105 OFFCURVE",
"968 -19 OFFCURVE",
"1198 -19 CURVE SMOOTH"
);
},
{
closed = 1;
nodes = (
"1084 113 OFFCURVE",
"1038 175 OFFCURVE",
"1038 354 CURVE SMOOTH",
"1038 533 OFFCURVE",
"1084 595 OFFCURVE",
"1198 595 CURVE SMOOTH",
"1313 595 OFFCURVE",
"1359 533 OFFCURVE",
"1359 354 CURVE SMOOTH",
"1359 175 OFFCURVE",
"1313 113 OFFCURVE",
"1198 113 CURVE SMOOTH"
);
},
{
closed = 1;
nodes = (
"612 -7 OFFCURVE",
"752 133 OFFCURVE",
"752 353 CURVE SMOOTH",
"752 572 OFFCURVE",
"612 712 OFFCURVE",
"398 712 CURVE SMOOTH",
"184 712 OFFCURVE",
"44 572 OFFCURVE",
"44 353 CURVE SMOOTH",
"44 133 OFFCURVE",
"184 -7 OFFCURVE",
"398 -7 CURVE SMOOTH"
);
},
{
closed = 1;
nodes = (
"288 133 OFFCURVE",
"229 203 OFFCURVE",
"229 353 CURVE SMOOTH",
"229 502 OFFCURVE",
"288 572 OFFCURVE",
"398 572 CURVE SMOOTH",
"508 572 OFFCURVE",
"567 502 OFFCURVE",
"567 353 CURVE SMOOTH",
"567 203 OFFCURVE",
"509 133 OFFCURVE",
"398 133 CURVE SMOOTH"
);
}
);
};
guideLines = (
{
angle = 90;
position = "{231, 265}";
},
{
position = "{400, 712}";
},
{
angle = 90;
position = "{740, 357}";
},
{
position = "{400, 572}";
},
{
angle = 90;
position = "{552, 357}";
}
);
layerId = "E1B555A7-F4E1-459C-9C1A-AE952106EEF9";
paths = (
{
closed = 1;
nodes = (
"612 -7 OFFCURVE",
"750 133 OFFCURVE",
"750 353 CURVE SMOOTH",
"750 572 OFFCURVE",
"612 712 OFFCURVE",
"398 712 CURVE SMOOTH",
"184 712 OFFCURVE",
"46 572 OFFCURVE",
"46 353 CURVE SMOOTH",
"46 133 OFFCURVE",
"184 -7 OFFCURVE",
"398 -7 CURVE SMOOTH"
);
},
{
closed = 1;
nodes = (
"287 134 OFFCURVE",
"228 204 OFFCURVE",
"228 353 CURVE SMOOTH",
"228 501 OFFCURVE",
"287 571 OFFCURVE",
"398 571 CURVE SMOOTH",
"509 571 OFFCURVE",
"568 501 OFFCURVE",
"568 353 CURVE SMOOTH",
"568 204 OFFCURVE",
"510 134 OFFCURVE",
"398 134 CURVE SMOOTH"
);
}
);
width = 796;
}
);
unicode = 004F;
userData = {
anchors = (
);
b = {
};
com.typemytype.robofont.guides = (
);
com.typemytype.robofont.layerData = {
b = {
anchors = (
);
components = (
);
contours = (
);
lib = {
};
name = O;
unicodes = (
);
width = 1597;
};
};
components = (
);
contours = (
);
lib = {
};
name = O;
unicodes = (
);
width = 1604;
};
},
{
glyphname = OE;
lastChange = "2016-08-17 19:36:01 +0000";
layers = (
{
background = {
paths = (
{
closed = 1;
nodes = (
"966 0 LINE",
"983 0 OFFCURVE",
"994 11 OFFCURVE",
"994 28 CURVE SMOOTH",
"994 45 OFFCURVE",
"983 56 OFFCURVE",
"966 56 CURVE SMOOTH",
"613 56 LINE",
"613 330 LINE",
"946 330 LINE SMOOTH",
"963 330 OFFCURVE",
"974 341 OFFCURVE",
"974 358 CURVE SMOOTH",
"974 375 OFFCURVE",
"963 386 OFFCURVE",
"946 386 CURVE SMOOTH",
"613 386 LINE",
"613 649 LINE",
"966 649 LINE SMOOTH",
"983 649 OFFCURVE",
"994 660 OFFCURVE",
"994 677 CURVE SMOOTH",
"994 694 OFFCURVE",
"983 705 OFFCURVE",
"966 705 CURVE",
"408 705 LINE",
"186 705 OFFCURVE",
"59 580 OFFCURVE",
"59 353 CURVE SMOOTH",
"59 126 OFFCURVE",
"186 0 OFFCURVE",
"408 0 CURVE"
);
},
{
closed = 1;
nodes = (
"212 55 OFFCURVE",
"123 164 OFFCURVE",
"123 353 CURVE SMOOTH",
"123 542 OFFCURVE",
"212 649 OFFCURVE",
"411 649 CURVE SMOOTH",
"553 649 LINE",
"553 55 LINE",
"411 55 LINE SMOOTH"
);
}
);
};
layerId = "9E718F8A-2CEA-4931-B05D-987794BD97DA";
paths = (
{
closed = 1;
nodes = (
"966 0 LINE",
"983 0 OFFCURVE",
"994 11 OFFCURVE",
"994 28 CURVE SMOOTH",
"994 45 OFFCURVE",
"983 56 OFFCURVE",
"966 56 CURVE SMOOTH",
"615 56 LINE",
"615 330 LINE",
"946 330 LINE SMOOTH",
"963 330 OFFCURVE",
"974 341 OFFCURVE",
"974 358 CURVE SMOOTH",
"974 375 OFFCURVE",
"963 386 OFFCURVE",
"946 386 CURVE SMOOTH",
"615 386 LINE",
"615 649 LINE",
"966 649 LINE SMOOTH",
"983 649 OFFCURVE",
"994 660 OFFCURVE",
"994 677 CURVE SMOOTH",
"994 694 OFFCURVE",
"983 705 OFFCURVE",
"966 705 CURVE",
"408 705 LINE",
"186 705 OFFCURVE",
"59 580 OFFCURVE",
"59 353 CURVE SMOOTH",
"59 126 OFFCURVE",
"186 0 OFFCURVE",
"408 0 CURVE"
);
},
{
closed = 1;
nodes = (
"212 55 OFFCURVE",
"123 164 OFFCURVE",
"123 353 CURVE SMOOTH",
"123 542 OFFCURVE",
"212 649 OFFCURVE",
"411 649 CURVE SMOOTH",
"553 649 LINE",
"553 55 LINE",
"411 55 LINE SMOOTH"
);
}
);
width = 1039;
},
{
background = {
paths = (
{
closed = 1;
nodes = (
"2043 0 LINE SMOOTH",
"2104 0 OFFCURVE",
"2130 26 OFFCURVE",
"2130 73 CURVE SMOOTH",
"2130 120 OFFCURVE",
"2104 146 OFFCURVE",
"2043 146 CURVE SMOOTH",
"1793 146 LINE",
"1793 283 LINE",
"2023 283 LINE SMOOTH",
"2084 283 OFFCURVE",
"2110 309 OFFCURVE",
"2110 356 CURVE SMOOTH",
"2110 403 OFFCURVE",
"2084 429 OFFCURVE",
"2023 429 CURVE SMOOTH",
"1793 429 LINE",
"1793 559 LINE",
"2043 559 LINE SMOOTH",
"2104 559 OFFCURVE",
"2130 585 OFFCURVE",
"2130 632 CURVE SMOOTH",
"2130 679 OFFCURVE",
"2104 705 OFFCURVE",
"2043 705 CURVE SMOOTH",
"1522 705 LINE SMOOTH",
"1284 705 OFFCURVE",
"1146 572 OFFCURVE",
"1146 353 CURVE SMOOTH",
"1146 133 OFFCURVE",
"1284 0 OFFCURVE",
"1522 0 CURVE SMOOTH"
);
},
{
closed = 1;
nodes = (
"1406 147 OFFCURVE",
"1328 204 OFFCURVE",
"1328 353 CURVE SMOOTH",
"1328 501 OFFCURVE",
"1407 558 OFFCURVE",
"1534 558 CURVE SMOOTH",
"1609 558 LINE",
"1609 147 LINE",
"1534 147 LINE SMOOTH"
);
},
{
closed = 1;
nodes = (
"941 0 LINE SMOOTH",
"1002 0 OFFCURVE",
"1028 26 OFFCURVE",
"1028 69 CURVE SMOOTH",
"1028 112 OFFCURVE",
"1002 138 OFFCURVE",
"941 138 CURVE SMOOTH",
"688 138 LINE",
"688 287 LINE",
"921 287 LINE SMOOTH",
"982 287 OFFCURVE",
"1008 313 OFFCURVE",
"1008 356 CURVE SMOOTH",
"1008 399 OFFCURVE",
"982 425 OFFCURVE",
"921 425 CURVE SMOOTH",
"688 425 LINE",
"688 567 LINE",
"941 567 LINE SMOOTH",
"1002 567 OFFCURVE",
"1028 593 OFFCURVE",
"1028 636 CURVE SMOOTH",
"1028 679 OFFCURVE",
"1002 705 OFFCURVE",
"941 705 CURVE SMOOTH",
"594 705 LINE SMOOTH",
"539 705 OFFCURVE",
"509 675 OFFCURVE",
"509 620 CURVE SMOOTH",
"509 85 LINE SMOOTH",
"509 30 OFFCURVE",
"539 0 OFFCURVE",
"594 0 CURVE SMOOTH"
);
}
);
};
layerId = "E1B555A7-F4E1-459C-9C1A-AE952106EEF9";
paths = (
{
closed = 1;
nodes = (
"941 0 LINE SMOOTH",
"1002 0 OFFCURVE",
"1028 26 OFFCURVE",
"1028 69 CURVE SMOOTH",
"1028 112 OFFCURVE",
"1002 138 OFFCURVE",
"941 138 CURVE SMOOTH",
"688 138 LINE",
"688 287 LINE",
"921 287 LINE SMOOTH",
"982 287 OFFCURVE",
"1008 313 OFFCURVE",
"1008 356 CURVE SMOOTH",
"1008 399 OFFCURVE",
"982 425 OFFCURVE",
"921 425 CURVE SMOOTH",
"688 425 LINE",
"688 567 LINE",
"941 567 LINE SMOOTH",
"1002 567 OFFCURVE",
"1028 593 OFFCURVE",
"1028 636 CURVE SMOOTH",
"1028 679 OFFCURVE",
"1002 705 OFFCURVE",
"943 705 CURVE SMOOTH",
"422 705 LINE SMOOTH",
"184 705 OFFCURVE",
"46 572 OFFCURVE",
"46 353 CURVE SMOOTH",
"46 133 OFFCURVE",
"184 0 OFFCURVE",
"422 0 CURVE SMOOTH"
);
},
{
closed = 1;
nodes = (
"306 143 OFFCURVE",
"228 202 OFFCURVE",
"228 353 CURVE SMOOTH",
"228 503 OFFCURVE",
"307 562 OFFCURVE",
"434 562 CURVE SMOOTH",
"509 562 LINE",
"509 143 LINE",
"434 143 LINE SMOOTH"
);
}
);
width = 1059;
}
);
leftMetricsKey = O;
rightMetricsKey = E;
unicode = 0152;
},
{
glyphname = P;
lastChange = "2016-08-17 19:36:01 +0000";
layers = (
{
background = {
paths = (
{
closed = 1;
nodes = (
"139 -5 OFFCURVE",
"150 8 OFFCURVE",
"150 28 CURVE SMOOTH",
"150 330 LINE",
"357 330 LINE SMOOTH",
"489 330 OFFCURVE",
"588 396 OFFCURVE",
"588 519 CURVE SMOOTH",
"588 642 OFFCURVE",
"494 705 OFFCURVE",
"357 705 CURVE SMOOTH",
"123 705 LINE SMOOTH",
"104 705 OFFCURVE",
"90 692 OFFCURVE",
"90 674 CURVE SMOOTH",
"90 28 LINE SMOOTH",
"90 8 OFFCURVE",
"101 -5 OFFCURVE",
"120 -5 CURVE SMOOTH"
);
},
{
closed = 1;
nodes = (
"150 649 LINE",
"353 649 LINE SMOOTH",
"458 649 OFFCURVE",
"525 614 OFFCURVE",
"525 519 CURVE SMOOTH",
"525 425 OFFCURVE",
"458 386 OFFCURVE",
"353 386 CURVE SMOOTH",
"150 386 LINE"
);
}
);
};
layerId = "9E718F8A-2CEA-4931-B05D-987794BD97DA";
paths = (
{
closed = 1;
nodes = (
"141 -5 OFFCURVE",
"152 8 OFFCURVE",
"152 28 CURVE SMOOTH",
"152 296 LINE",
"357 296 LINE SMOOTH",
"489 296 OFFCURVE",
"588 367 OFFCURVE",
"588 502 CURVE SMOOTH",
"588 637 OFFCURVE",
"494 705 OFFCURVE",
"357 705 CURVE SMOOTH",
"123 705 LINE SMOOTH",
"104 705 OFFCURVE",
"90 692 OFFCURVE",
"90 674 CURVE SMOOTH",
"90 28 LINE SMOOTH",
"90 8 OFFCURVE",
"102 -5 OFFCURVE",
"121 -5 CURVE SMOOTH"
);
},
{
closed = 1;
nodes = (
"152 649 LINE",
"353 649 LINE SMOOTH",
"458 649 OFFCURVE",
"525 609 OFFCURVE",
"525 502 CURVE SMOOTH",
"525 396 OFFCURVE",
"458 352 OFFCURVE",
"353 352 CURVE SMOOTH",
"152 352 LINE"
);
}
);
width = 633;
},
{
background = {
paths = (
{
closed = 1;
nodes = (
"212 -6 OFFCURVE",
"254 23 OFFCURVE",
"254 84 CURVE SMOOTH",
"254 285 LINE",
"417 285 LINE SMOOTH",
"579 285 OFFCURVE",
"658 373 OFFCURVE",
"658 495 CURVE SMOOTH",
"658 617 OFFCURVE",
"579 705 OFFCURVE",
"417 705 CURVE SMOOTH",
"155 705 LINE SMOOTH",
"100 705 OFFCURVE",
"70 675 OFFCURVE",
"70 620 CURVE SMOOTH",
"70 84 LINE SMOOTH",
"70 23 OFFCURVE",
"112 -6 OFFCURVE",
"162 -6 CURVE SMOOTH"
);
},
{
closed = 1;
nodes = (
"252 563 LINE",
"378 563 LINE SMOOTH",
"452 563 OFFCURVE",
"481 541 OFFCURVE",
"481 494 CURVE SMOOTH",
"481 447 OFFCURVE",
"452 427 OFFCURVE",
"378 427 CURVE SMOOTH",
"252 427 LINE"
);
}
);
};
layerId = "E1B555A7-F4E1-459C-9C1A-AE952106EEF9";
paths = (
{
closed = 1;
nodes = (
"212 -6 OFFCURVE",
"254 23 OFFCURVE",
"254 84 CURVE SMOOTH",
"254 255 LINE",
"413 255 LINE SMOOTH",
"576 255 OFFCURVE",
"658 348 OFFCURVE",
"658 480 CURVE SMOOTH",
"658 612 OFFCURVE",
"576 705 OFFCURVE",
"413 705 CURVE SMOOTH",
"155 705 LINE SMOOTH",
"100 705 OFFCURVE",
"70 675 OFFCURVE",
"70 620 CURVE SMOOTH",
"70 84 LINE SMOOTH",
"70 23 OFFCURVE",
"112 -6 OFFCURVE",
"162 -6 CURVE SMOOTH"
);
},
{
closed = 1;
nodes = (
"252 567 LINE",
"380 567 LINE SMOOTH",
"450 567 OFFCURVE",
"485 540 OFFCURVE",
"485 479 CURVE SMOOTH",
"485 418 OFFCURVE",
"450 393 OFFCURVE",
"380 393 CURVE SMOOTH",
"252 393 LINE"
);
}
);
width = 688;
}
);
unicode = 0050;
userData = {
anchors = (
);
b = {
};
com.typemytype.robofont.layerData = {
b = {
anchors = (
);
components = (
);
contours = (
{
points = (
{
segmentType = curve;
smooth = 1;
x = 266;
y = 0;
},
{
segmentType = line;
smooth = 1;
x = 1035;
y = 0;
},
{
smooth = 0;
x = 1084;
y = 0;
},
{
smooth = 0;
x = 1108;
y = 34;
},
{
segmentType = curve;
smooth = 1;
x = 1108;
y = 71;
},
{
smooth = 0;
x = 1108;
y = 107;
},
{
smooth = 0;
x = 1084;
y = 141;
},
{
segmentType = curve;
smooth = 1;
x = 1035;
y = 141;
},
{
segmentType = line;
smooth = 0;
x = 356;
y = 141;
},
{
segmentType = line;
smooth = 0;
x = 356;
y = 665;
},
{
segmentType = line;
smooth = 1;
x = 975;
y = 665;
},
{
smooth = 0;
x = 1024;
y = 665;
},
{
smooth = 0;
x = 1049;
y = 698;
},
{
segmentType = curve;
smooth = 1;
x = 1049;
y = 734;
},
{
smooth = 0;
x = 1049;
y = 770;
},
{
smooth = 0;
x = 1026;
y = 803;
},
{
segmentType = curve;
smooth = 1;
x = 975;
y = 803;
},
{
segmentType = line;
smooth = 0;
x = 356;
y = 803;
},
{
segmentType = line;
smooth = 0;
x = 356;
y = 1285;
},
{
segmentType = line;
smooth = 1;
x = 1007;
y = 1285;
},
{
smooth = 0;
x = 1056;
y = 1285;
},
{
smooth = 0;
x = 1080;
y = 1319;
},
{
segmentType = curve;
smooth = 1;
x = 1080;
y = 1356;
},
{
smooth = 0;
x = 1080;
y = 1392;
},
{
smooth = 0;
x = 1056;
y = 1426;
},
{
segmentType = curve;
smooth = 1;
x = 1007;
y = 1426;
},
{
segmentType = line;
smooth = 1;
x = 261;
y = 1426;
},
{
smooth = 0;
x = 213;
y = 1426;
},
{
smooth = 0;
x = 178;
y = 1383;
},
{
segmentType = curve;
smooth = 1;
x = 178;
y = 1340;
},
{
segmentType = line;
smooth = 1;
x = 178;
y = 86;
},
{
smooth = 0;
x = 178;
y = 41;
},
{
smooth = 0;
x = 222;
y = 0;
}
);
}
);
lib = {
};
name = P;
unicodes = (
);
width = 1201;
};
};
components = (
);
contours = (
);
lib = {
};
name = P;
unicodes = (
);
width = 1319;
};
},
{
glyphname = Thorn;
lastChange = "2016-08-17 19:36:01 +0000";
layers = (
{
background = {
paths = (
{
closed = 1;
nodes = (
"357 171 LINE SMOOTH",
"489 171 OFFCURVE",
"588 237 OFFCURVE",
"588 360 CURVE SMOOTH",
"588 483 OFFCURVE",
"494 546 OFFCURVE",
"357 546 CURVE SMOOTH",
"140 546 LINE",
"140 490 LINE",
"353 490 LINE SMOOTH",
"458 490 OFFCURVE",
"525 455 OFFCURVE",
"525 360 CURVE SMOOTH",
"525 266 OFFCURVE",
"458 227 OFFCURVE",
"353 227 CURVE SMOOTH",
"140 227 LINE",
"140 171 LINE"
);
},
{
closed = 1;
nodes = (
"139 -5 OFFCURVE",
"150 8 OFFCURVE",
"150 28 CURVE SMOOTH",
"150 677 LINE SMOOTH",
"150 697 OFFCURVE",
"139 710 OFFCURVE",
"120 710 CURVE SMOOTH",
"101 710 OFFCURVE",
"90 697 OFFCURVE",
"90 677 CURVE SMOOTH",
"90 28 LINE SMOOTH",
"90 8 OFFCURVE",
"101 -5 OFFCURVE",
"120 -5 CURVE SMOOTH"
);
}
);
};
layerId = "9E718F8A-2CEA-4931-B05D-987794BD97DA";
paths = (
{
closed = 1;
nodes = (
"357 171 LINE SMOOTH",
"489 171 OFFCURVE",
"588 237 OFFCURVE",
"588 360 CURVE SMOOTH",
"588 483 OFFCURVE",
"494 546 OFFCURVE",
"357 546 CURVE SMOOTH",
"140 546 LINE",
"140 490 LINE",
"353 490 LINE SMOOTH",
"458 490 OFFCURVE",
"525 455 OFFCURVE",
"525 360 CURVE SMOOTH",
"525 266 OFFCURVE",
"458 227 OFFCURVE",
"353 227 CURVE SMOOTH",
"140 227 LINE",
"140 171 LINE"
);
},
{
closed = 1;
nodes = (
"140 -5 OFFCURVE",
"152 8 OFFCURVE",
"152 28 CURVE SMOOTH",
"152 677 LINE SMOOTH",
"152 697 OFFCURVE",
"140 710 OFFCURVE",
"121 710 CURVE SMOOTH",
"102 710 OFFCURVE",
"90 697 OFFCURVE",
"90 677 CURVE SMOOTH",
"90 28 LINE SMOOTH",
"90 8 OFFCURVE",
"102 -5 OFFCURVE",
"121 -5 CURVE SMOOTH"
);
}
);
width = 633;
},
{
background = {
paths = (
{
closed = 1;
nodes = (
"417 148 LINE SMOOTH",
"579 148 OFFCURVE",
"658 236 OFFCURVE",
"658 358 CURVE SMOOTH",
"658 480 OFFCURVE",
"579 568 OFFCURVE",
"417 568 CURVE SMOOTH",
"229 568 LINE",
"229 426 LINE",
"378 426 LINE SMOOTH",
"452 426 OFFCURVE",
"481 404 OFFCURVE",
"481 357 CURVE SMOOTH",
"481 310 OFFCURVE",
"452 290 OFFCURVE",
"378 290 CURVE SMOOTH",
"229 290 LINE",
"229 148 LINE"
);
},
{
closed = 1;
nodes = (
"212 -6 OFFCURVE",
"254 23 OFFCURVE",
"254 84 CURVE SMOOTH",
"254 620 LINE SMOOTH",
"254 681 OFFCURVE",
"212 710 OFFCURVE",
"162 710 CURVE SMOOTH",
"112 710 OFFCURVE",
"70 681 OFFCURVE",
"70 620 CURVE SMOOTH",
"70 84 LINE SMOOTH",
"70 23 OFFCURVE",
"112 -6 OFFCURVE",
"162 -6 CURVE SMOOTH"
);
}
);
};
layerId = "E1B555A7-F4E1-459C-9C1A-AE952106EEF9";
paths = (
{
closed = 1;
nodes = (
"412 148 LINE SMOOTH",
"577 148 OFFCURVE",
"658 236 OFFCURVE",
"658 358 CURVE SMOOTH",
"658 480 OFFCURVE",
"577 568 OFFCURVE",
"412 568 CURVE SMOOTH",
"229 568 LINE",
"229 430 LINE",
"380 430 LINE SMOOTH",
"456 430 OFFCURVE",
"485 408 OFFCURVE",
"485 357 CURVE SMOOTH",
"485 306 OFFCURVE",
"456 286 OFFCURVE",
"380 286 CURVE SMOOTH",
"229 286 LINE",
"229 148 LINE"
);
},
{
closed = 1;
nodes = (
"208 -6 OFFCURVE",
"250 23 OFFCURVE",
"250 84 CURVE SMOOTH",
"250 620 LINE SMOOTH",
"250 681 OFFCURVE",
"208 710 OFFCURVE",
"160 710 CURVE SMOOTH",
"112 710 OFFCURVE",
"70 681 OFFCURVE",
"70 620 CURVE SMOOTH",
"70 84 LINE SMOOTH",
"70 23 OFFCURVE",
"112 -6 OFFCURVE",
"160 -6 CURVE SMOOTH"
);
}
);
width = 688;
}
);
unicode = 00DE;
},
{
glyphname = Q;
lastChange = "2016-08-17 19:36:01 +0000";
layers = (
{
background = {
paths = (
{
closed = 1;
nodes = (
"689 -120 OFFCURVE",
"702 -110 OFFCURVE",
"702 -94 CURVE SMOOTH",
"702 -83 OFFCURVE",
"696 -72 OFFCURVE",
"685 -68 CURVE",
"476 18 LINE",
"359 11 LINE",
"663 -118 LINE SMOOTH",
"667 -120 OFFCURVE",
"672 -120 OFFCURVE",
"676 -120 CURVE SMOOTH"
);
},
{
closed = 1;
nodes = (
"374 -6 LINE",
"435 -6 OFFCURVE",
"474 -36 OFFCURVE",
"492 -67 CURVE SMOOTH",
"638 -320 LINE SMOOTH",
"662 -362 OFFCURVE",
"717 -339 OFFCURVE",
"696 -302 CURVE SMOOTH",
"566 -79 LINE SMOOTH",
"528 -13 OFFCURVE",
"503 13 OFFCURVE",
"426 13 CURVE"
);
}
);
};
components = (
{
name = O;
}
);
layerId = "9E718F8A-2CEA-4931-B05D-987794BD97DA";
paths = (
{
closed = 1;
nodes = (
"575 -204 OFFCURVE",
"629 -180 OFFCURVE",
"607 -144 CURVE SMOOTH",
"557 -60 LINE SMOOTH",
"526 -9 OFFCURVE",
"500 19 OFFCURVE",
"427 19 CURVE",
"374 -6 LINE",
"442 -6 OFFCURVE",
"476 -38 OFFCURVE",
"493 -67 CURVE SMOOTH",
"550 -162 LINE SMOOTH"
);
}
);
width = 748;
},
{
background = {
paths = (
{
closed = 1;
nodes = (
"710 -144 OFFCURVE",
"736 -110 OFFCURVE",
"736 -80 CURVE SMOOTH",
"736 -58 OFFCURVE",
"721 -41 OFFCURVE",
"699 -26 CURVE SMOOTH",
"526 91 LINE",
"372 34 LINE",
"632 -128 LINE SMOOTH",
"648 -138 OFFCURVE",
"664 -144 OFFCURVE",
"679 -144 CURVE SMOOTH"
);
},
{
closed = 1;
nodes = (
"405 -7 LINE",
"447 -7 OFFCURVE",
"472 -25 OFFCURVE",
"481 -41 CURVE SMOOTH",
"611 -256 LINE SMOOTH",
"666 -347 OFFCURVE",
"833 -285 OFFCURVE",
"764 -174 CURVE SMOOTH",
"690 -54 LINE SMOOTH",
"645 19 OFFCURVE",
"592 32 OFFCURVE",
"532 32 CURVE"
);
}
);
};
components = (
{
name = O;
}
);
layerId = "E1B555A7-F4E1-459C-9C1A-AE952106EEF9";
paths = (
{
closed = 1;
nodes = (
"590 -233 OFFCURVE",
"758 -170 OFFCURVE",
"687 -60 CURVE SMOOTH",
"665 -26 LINE SMOOTH",
"632 24 OFFCURVE",
"586 43 OFFCURVE",
"523 43 CURVE",
"398 -7 LINE",
"440 -7 OFFCURVE",
"460 -17 OFFCURVE",
"474 -41 CURVE SMOOTH",
"535 -142 LINE SMOOTH"
);
}
);
width = 796;
}
);
leftMetricsKey = O;
widthMetricsKey = O;
unicode = 0051;
userData = {
anchors = (
);
b = {
};
com.typemytype.robofont.layerData = {
b = {
anchors = (
);
components = (
);
contours = (
);
lib = {
};
name = Q;
unicodes = (
);
width = 1597;
};
};
components = (
);
contours = (
);
lib = {
};
name = Q;
unicodes = (
);
width = 1604;
};
},
{
glyphname = R;
lastChange = "2016-08-17 19:36:01 +0000";
layers = (
{
background = {
paths = (
{
closed = 1;
nodes = (
"141 -5 OFFCURVE",
"152 8 OFFCURVE",
"152 28 CURVE SMOOTH",
"152 326 LINE",
"289 326 LINE SMOOTH",
"360 326 OFFCURVE",
"394 308 OFFCURVE",
"429 247 CURVE SMOOTH",
"563 16 LINE SMOOTH",
"587 -26 OFFCURVE",
"642 -3 OFFCURVE",
"621 34 CURVE SMOOTH",
"491 257 LINE SMOOTH",
"457 315 OFFCURVE",
"418 342 OFFCURVE",
"351 342 CURVE",
"372 331 LINE",
"504 331 OFFCURVE",
"603 392 OFFCURVE",
"603 517 CURVE SMOOTH",
"603 642 OFFCURVE",
"509 705 OFFCURVE",
"372 705 CURVE SMOOTH",
"123 705 LINE SMOOTH",
"104 705 OFFCURVE",
"90 692 OFFCURVE",
"90 674 CURVE SMOOTH",
"90 28 LINE SMOOTH",
"90 8 OFFCURVE",
"102 -5 OFFCURVE",
"121 -5 CURVE SMOOTH"
);
},
{
closed = 1;
nodes = (
"152 649 LINE",
"368 649 LINE SMOOTH",
"473 649 OFFCURVE",
"540 614 OFFCURVE",
"540 518 CURVE SMOOTH",
"540 421 OFFCURVE",
"473 382 OFFCURVE",
"368 382 CURVE SMOOTH",
"152 382 LINE"
);
}
);
};
layerId = "9E718F8A-2CEA-4931-B05D-987794BD97DA";
paths = (
{
closed = 1;
nodes = (
"141 -5 OFFCURVE",
"152 8 OFFCURVE",
"152 28 CURVE SMOOTH",
"152 305 LINE",
"289 305 LINE SMOOTH",
"360 305 OFFCURVE",
"394 287 OFFCURVE",
"432 226 CURVE SMOOTH",
"563 16 LINE SMOOTH",
"589 -25 OFFCURVE",
"643 -2 OFFCURVE",
"621 34 CURVE SMOOTH",
"494 236 LINE SMOOTH",
"458 294 OFFCURVE",
"418 321 OFFCURVE",
"351 321 CURVE",
"372 310 LINE",
"504 310 OFFCURVE",
"603 371 OFFCURVE",
"603 507 CURVE SMOOTH",
"603 642 OFFCURVE",
"509 705 OFFCURVE",
"372 705 CURVE SMOOTH",
"123 705 LINE SMOOTH",
"104 705 OFFCURVE",
"90 692 OFFCURVE",
"90 674 CURVE SMOOTH",
"90 28 LINE SMOOTH",
"90 8 OFFCURVE",
"102 -5 OFFCURVE",
"121 -5 CURVE SMOOTH"
);
},
{
closed = 1;
nodes = (
"152 649 LINE",
"368 649 LINE SMOOTH",
"473 649 OFFCURVE",
"540 614 OFFCURVE",
"540 508 CURVE SMOOTH",
"540 400 OFFCURVE",
"473 361 OFFCURVE",
"368 361 CURVE SMOOTH",
"152 361 LINE"
);
}
);
width = 655;
},
{
background = {
paths = (
{
closed = 1;
nodes = (
"1012 -6 OFFCURVE",
"1054 23 OFFCURVE",
"1054 84 CURVE SMOOTH",
"1054 285 LINE",
"1106 285 LINE SMOOTH",
"1148 285 OFFCURVE",
"1173 267 OFFCURVE",
"1182 251 CURVE SMOOTH",
"1312 36 LINE SMOOTH",
"1367 -55 OFFCURVE",
"1534 7 OFFCURVE",
"1465 118 CURVE SMOOTH",
"1391 238 LINE SMOOTH",
"1346 311 OFFCURVE",
"1293 324 OFFCURVE",
"1233 324 CURVE",
"1222 301 LINE",
"1374 301 OFFCURVE",
"1463 381 OFFCURVE",
"1463 503 CURVE SMOOTH",
"1463 625 OFFCURVE",
"1384 705 OFFCURVE",
"1222 705 CURVE SMOOTH",
"955 705 LINE SMOOTH",
"900 705 OFFCURVE",
"870 675 OFFCURVE",
"870 620 CURVE SMOOTH",
"870 84 LINE SMOOTH",
"870 23 OFFCURVE",
"912 -6 OFFCURVE",
"962 -6 CURVE SMOOTH"
);
},
{
closed = 1;
nodes = (
"1052 563 LINE",
"1183 563 LINE SMOOTH",
"1257 563 OFFCURVE",
"1286 541 OFFCURVE",
"1286 494 CURVE SMOOTH",
"1286 447 OFFCURVE",
"1257 427 OFFCURVE",
"1183 427 CURVE SMOOTH",
"1052 427 LINE"
);
},
{
closed = 1;
nodes = (
"211 -6 OFFCURVE",
"252 23 OFFCURVE",
"252 84 CURVE SMOOTH",
"252 281 LINE",
"313 281 LINE SMOOTH",
"345 281 OFFCURVE",
"364 267 OFFCURVE",
"379 243 CURVE SMOOTH",
"509 36 LINE SMOOTH",
"566 -55 OFFCURVE",
"732 9 OFFCURVE",
"660 118 CURVE SMOOTH",
"590 224 LINE SMOOTH",
"551 283 OFFCURVE",
"520 298 OFFCURVE",
"450 298 CURVE",
"419 287 LINE",
"571 287 OFFCURVE",
"660 373 OFFCURVE",
"660 499 CURVE SMOOTH",
"660 625 OFFCURVE",
"581 705 OFFCURVE",
"419 705 CURVE SMOOTH",
"155 705 LINE SMOOTH",
"100 705 OFFCURVE",
"70 675 OFFCURVE",
"70 620 CURVE SMOOTH",
"70 84 LINE SMOOTH",
"70 23 OFFCURVE",
"111 -6 OFFCURVE",
"161 -6 CURVE SMOOTH"
);
},
{
closed = 1;
nodes = (
"249 567 LINE",
"381 567 LINE SMOOTH",
"457 567 OFFCURVE",
"487 543 OFFCURVE",
"487 494 CURVE SMOOTH",
"487 445 OFFCURVE",
"457 421 OFFCURVE",
"381 421 CURVE SMOOTH",
"249 421 LINE"
);
}
);
};
layerId = "E1B555A7-F4E1-459C-9C1A-AE952106EEF9";
paths = (
{
closed = 1;
nodes = (
"211 -6 OFFCURVE",
"252 23 OFFCURVE",
"252 84 CURVE SMOOTH",
"252 263 LINE",
"313 263 LINE SMOOTH",
"345 263 OFFCURVE",
"364 249 OFFCURVE",
"380 225 CURVE SMOOTH",
"511 33 LINE SMOOTH",
"574 -60 OFFCURVE",
"733 16 OFFCURVE",
"663 118 CURVE SMOOTH",
"601 207 LINE SMOOTH",
"559 267 OFFCURVE",
"520 283 OFFCURVE",
"450 283 CURVE",
"422 271 LINE",
"571 271 OFFCURVE",
"663 357 OFFCURVE",
"663 488 CURVE SMOOTH",
"663 623 OFFCURVE",
"584 705 OFFCURVE",
"419 705 CURVE SMOOTH",
"155 705 LINE SMOOTH",
"100 705 OFFCURVE",
"70 675 OFFCURVE",
"70 620 CURVE SMOOTH",
"70 84 LINE SMOOTH",
"70 23 OFFCURVE",
"111 -6 OFFCURVE",
"161 -6 CURVE SMOOTH"
);
},
{
closed = 1;
nodes = (
"249 567 LINE",
"384 567 LINE SMOOTH",
"460 567 OFFCURVE",
"490 543 OFFCURVE",
"490 485 CURVE SMOOTH",
"490 427 OFFCURVE",
"460 403 OFFCURVE",
"384 403 CURVE SMOOTH",
"249 403 LINE"
);
}
);
width = 706;
}
);
unicode = 0052;
userData = {
anchors = (
);
b = {
};
com.typemytype.robofont.guides = (
);
com.typemytype.robofont.layerData = {
b = {
anchors = (
);
components = (
);
contours = (
{
points = (
{
segmentType = curve;
smooth = 1;
x = 267;
y = 0;
},
{
smooth = 0;
x = 311;
y = 0;
},
{
smooth = 0;
x = 356;
y = 27;
},
{
segmentType = curve;
smooth = 1;
x = 356;
y = 84;
},
{
segmentType = line;
smooth = 0;
x = 356;
y = 628;
},
{
segmentType = line;
smooth = 1;
x = 669;
y = 628;
},
{
smooth = 0;
x = 962;
y = 628;
},
{
smooth = 0;
x = 1182;
y = 722;
},
{
segmentType = curve;
smooth = 1;
x = 1182;
y = 1026;
},
{
smooth = 0;
x = 1182;
y = 1324;
},
{
smooth = 0;
x = 993;
y = 1426;
},
{
segmentType = curve;
smooth = 1;
x = 684;
y = 1426;
},
{
segmentType = line;
smooth = 1;
x = 268;
y = 1426;
},
{
smooth = 0;
x = 217;
y = 1426;
},
{
smooth = 0;
x = 178;
y = 1387;
},
{
segmentType = curve;
smooth = 1;
x = 178;
y = 1339;
},
{
segmentType = line;
smooth = 1;
x = 178;
y = 84;
},
{
smooth = 0;
x = 178;
y = 28;
},
{
smooth = 0;
x = 222;
y = 0;
}
);
},
{
points = (
{
segmentType = line;
smooth = 0;
x = 356;
y = 764;
},
{
segmentType = line;
smooth = 0;
x = 356;
y = 1285;
},
{
segmentType = line;
smooth = 1;
x = 684;
y = 1285;
},
{
smooth = 0;
x = 914;
y = 1285;
},
{
smooth = 0;
x = 1008;
y = 1210;
},
{
segmentType = curve;
smooth = 1;
x = 1008;
y = 1026;
},
{
smooth = 0;
x = 1008;
y = 838;
},
{
smooth = 0;
x = 901;
y = 764;
},
{
segmentType = curve;
smooth = 1;
x = 670;
y = 764;
}
);
}
);
lib = {
};
name = R;
unicodes = (
);
width = 1363;
};
};
components = (
);
contours = (
);
lib = {
};
name = R;
unicodes = (
);
width = 1408;
};
},
{
glyphname = S;
lastChange = "2016-08-17 19:36:01 +0000";
layers = (
{
background = {
paths = (
{
closed = 1;
nodes = (
"1064 -6 OFFCURVE",
"1162 78 OFFCURVE",
"1162 187 CURVE SMOOTH",
"1162 442 OFFCURVE",
"737 327 OFFCURVE",
"737 514 CURVE SMOOTH",
"737 588 OFFCURVE",
"799 642 OFFCURVE",
"906 642 CURVE SMOOTH",
"1043 642 OFFCURVE",
"1090 557 OFFCURVE",
"1124 557 CURVE SMOOTH",
"1140 557 OFFCURVE",
"1154 571 OFFCURVE",
"1154 588 CURVE SMOOTH",
"1154 610 OFFCURVE",
"1140 629 OFFCURVE",
"1103 656 CURVE SMOOTH",
"1049 695 OFFCURVE",
"978 712 OFFCURVE",
"910 712 CURVE SMOOTH",
"744 712 OFFCURVE",
"655 617 OFFCURVE",
"655 510 CURVE SMOOTH",
"655 258 OFFCURVE",
"1081 371 OFFCURVE",
"1081 187 CURVE SMOOTH",
"1081 116 OFFCURVE",
"1023 65 OFFCURVE",
"896 65 CURVE SMOOTH",
"747 65 OFFCURVE",
"691 149 OFFCURVE",
"657 149 CURVE SMOOTH",
"642 149 OFFCURVE",
"629 135 OFFCURVE",
"629 117 CURVE SMOOTH",
"629 96 OFFCURVE",
"639 82 OFFCURVE",
"677 56 CURVE SMOOTH",
"734 17 OFFCURVE",
"815 -6 OFFCURVE",
"896 -6 CURVE SMOOTH"
);
},
{
closed = 1;
nodes = (
"133 711 OFFCURVE",
"39 627 OFFCURVE",
"39 518 CURVE SMOOTH",
"39 273 OFFCURVE",
"474 393 OFFCURVE",
"474 191 CURVE SMOOTH",
"474 97 OFFCURVE",
"398 49 OFFCURVE",
"287 49 CURVE SMOOTH",
"198 49 OFFCURVE",
"148 77 OFFCURVE",
"87 125 CURVE SMOOTH",
"78 132 OFFCURVE",
"71 135 OFFCURVE",
"64 135 CURVE SMOOTH",
"52 135 OFFCURVE",
"43 122 OFFCURVE",
"43 108 CURVE SMOOTH",
"43 97 OFFCURVE",
"47 88 OFFCURVE",
"56 79 CURVE SMOOTH",
"113 22 OFFCURVE",
"200 -6 OFFCURVE",
"287 -6 CURVE SMOOTH",
"453 -6 OFFCURVE",
"538 88 OFFCURVE",
"538 192 CURVE SMOOTH",
"538 449 OFFCURVE",
"103 336 OFFCURVE",
"103 518 CURVE SMOOTH",
"103 609 OFFCURVE",
"174 656 OFFCURVE",
"291 656 CURVE SMOOTH",
"379 656 OFFCURVE",
"449 628 OFFCURVE",
"510 580 CURVE SMOOTH",
"519 573 OFFCURVE",
"526 570 OFFCURVE",
"533 570 CURVE SMOOTH",
"546 570 OFFCURVE",
"554 583 OFFCURVE",
"554 597 CURVE SMOOTH",
"554 607 OFFCURVE",
"550 617 OFFCURVE",
"541 626 CURVE SMOOTH",
"484 683 OFFCURVE",
"378 711 OFFCURVE",
"291 711 CURVE SMOOTH"
);
}
);
};
layerId = "9E718F8A-2CEA-4931-B05D-987794BD97DA";
paths = (
{
closed = 1;
nodes = (
"464 -6 OFFCURVE",
"558 78 OFFCURVE",
"558 187 CURVE SMOOTH",
"558 432 OFFCURVE",
"123 312 OFFCURVE",
"123 514 CURVE SMOOTH",
"123 608 OFFCURVE",
"199 656 OFFCURVE",
"310 656 CURVE SMOOTH",
"399 656 OFFCURVE",
"449 628 OFFCURVE",
"510 580 CURVE SMOOTH",
"519 573 OFFCURVE",
"526 570 OFFCURVE",
"533 570 CURVE SMOOTH",
"545 570 OFFCURVE",
"554 583 OFFCURVE",
"554 597 CURVE SMOOTH",
"554 608 OFFCURVE",
"550 617 OFFCURVE",
"541 626 CURVE SMOOTH",
"484 683 OFFCURVE",
"397 711 OFFCURVE",
"310 711 CURVE SMOOTH",
"144 711 OFFCURVE",
"59 617 OFFCURVE",
"59 513 CURVE SMOOTH",
"59 256 OFFCURVE",
"494 369 OFFCURVE",
"494 187 CURVE SMOOTH",
"494 96 OFFCURVE",
"423 49 OFFCURVE",
"306 49 CURVE SMOOTH",
"218 49 OFFCURVE",
"148 77 OFFCURVE",
"87 125 CURVE SMOOTH",
"78 132 OFFCURVE",
"71 135 OFFCURVE",
"64 135 CURVE SMOOTH",
"51 135 OFFCURVE",
"43 122 OFFCURVE",
"43 108 CURVE SMOOTH",
"43 98 OFFCURVE",
"47 88 OFFCURVE",
"56 79 CURVE SMOOTH",
"113 22 OFFCURVE",
"219 -6 OFFCURVE",
"306 -6 CURVE SMOOTH"
);
}
);
width = 607;
},
{
background = {
paths = (
{
closed = 1;
nodes = (
"499 -7 OFFCURVE",
"632 70 OFFCURVE",
"632 212 CURVE SMOOTH",
"632 467 OFFCURVE",
"215 378 OFFCURVE",
"215 501 CURVE SMOOTH",
"215 538 OFFCURVE",
"256 571 OFFCURVE",
"339 571 CURVE SMOOTH",
"417 571 OFFCURVE",
"458 546 OFFCURVE",
"491 527 CURVE SMOOTH",
"510 516 OFFCURVE",
"524 509 OFFCURVE",
"546 509 CURVE SMOOTH",
"584 509 OFFCURVE",
"605 550 OFFCURVE",
"605 582 CURVE SMOOTH",
"605 608 OFFCURVE",
"598 627 OFFCURVE",
"573 645 CURVE SMOOTH",
"516 686 OFFCURVE",
"446 712 OFFCURVE",
"338 712 CURVE SMOOTH",
"148 712 OFFCURVE",
"38 607 OFFCURVE",
"38 489 CURVE SMOOTH",
"38 242 OFFCURVE",
"453 315 OFFCURVE",
"453 203 CURVE SMOOTH",
"453 163 OFFCURVE",
"418 134 OFFCURVE",
"320 134 CURVE SMOOTH",
"223 134 OFFCURVE",
"173 155 OFFCURVE",
"132 178 CURVE SMOOTH",
"113 189 OFFCURVE",
"99 196 OFFCURVE",
"77 196 CURVE SMOOTH",
"39 196 OFFCURVE",
"18 155 OFFCURVE",
"18 123 CURVE SMOOTH",
"18 97 OFFCURVE",
"25 78 OFFCURVE",
"50 60 CURVE SMOOTH",
"107 19 OFFCURVE",
"189 -7 OFFCURVE",
"325 -7 CURVE SMOOTH"
);
}
);
};
layerId = "E1B555A7-F4E1-459C-9C1A-AE952106EEF9";
paths = (
{
closed = 1;
nodes = (
"489 -7 OFFCURVE",
"619 70 OFFCURVE",
"619 212 CURVE SMOOTH",
"619 469 OFFCURVE",
"229 382 OFFCURVE",
"229 501 CURVE SMOOTH",
"229 538 OFFCURVE",
"263 571 OFFCURVE",
"339 571 CURVE SMOOTH",
"417 571 OFFCURVE",
"458 546 OFFCURVE",
"491 527 CURVE SMOOTH",
"510 516 OFFCURVE",
"524 509 OFFCURVE",
"546 509 CURVE SMOOTH",
"584 509 OFFCURVE",
"605 550 OFFCURVE",
"605 582 CURVE SMOOTH",
"605 608 OFFCURVE",
"598 627 OFFCURVE",
"573 645 CURVE SMOOTH",
"516 686 OFFCURVE",
"446 712 OFFCURVE",
"338 712 CURVE SMOOTH",
"155 712 OFFCURVE",
"47 607 OFFCURVE",
"47 489 CURVE SMOOTH",
"47 238 OFFCURVE",
"437 313 OFFCURVE",
"437 203 CURVE SMOOTH",
"437 163 OFFCURVE",
"408 134 OFFCURVE",
"320 134 CURVE SMOOTH",
"235 134 OFFCURVE",
"187 154 OFFCURVE",
"146 178 CURVE SMOOTH",
"127 189 OFFCURVE",
"113 196 OFFCURVE",
"91 196 CURVE SMOOTH",
"53 196 OFFCURVE",
"32 155 OFFCURVE",
"32 123 CURVE SMOOTH",
"32 97 OFFCURVE",
"39 78 OFFCURVE",
"64 60 CURVE SMOOTH",
"114 24 OFFCURVE",
"201 -7 OFFCURVE",
"325 -7 CURVE SMOOTH"
);
}
);
width = 652;
}
);
unicode = 0053;
userData = {
anchors = (
);
b = {
};
com.typemytype.robofont.layerData = {
b = {
anchors = (
);
components = (
);
contours = (
);
lib = {
};
name = S;
unicodes = (
);
width = 1274;
};
};
components = (
);
contours = (
);
lib = {
};
name = S;
unicodes = (
);
width = 1317;
};
},
{
glyphname = T;
lastChange = "2016-08-17 19:36:01 +0000";
layers = (
{
background = {
paths = (
{
closed = 1;
nodes = (
"318 -5 OFFCURVE",
"329 8 OFFCURVE",
"329 28 CURVE SMOOTH",
"329 649 LINE",
"560 649 LINE SMOOTH",
"577 649 OFFCURVE",
"588 660 OFFCURVE",
"588 677 CURVE SMOOTH",
"588 694 OFFCURVE",
"577 705 OFFCURVE",
"560 705 CURVE SMOOTH",
"38 705 LINE SMOOTH",
"21 705 OFFCURVE",
"10 694 OFFCURVE",
"10 677 CURVE SMOOTH",
"10 660 OFFCURVE",
"21 649 OFFCURVE",
"38 649 CURVE SMOOTH",
"269 649 LINE",
"269 28 LINE SMOOTH",
"269 8 OFFCURVE",
"280 -5 OFFCURVE",
"299 -5 CURVE SMOOTH"
);
}
);
};
layerId = "9E718F8A-2CEA-4931-B05D-987794BD97DA";
paths = (
{
closed = 1;
nodes = (
"318 -5 OFFCURVE",
"330 8 OFFCURVE",
"330 28 CURVE SMOOTH",
"330 649 LINE",
"560 649 LINE SMOOTH",
"577 649 OFFCURVE",
"588 660 OFFCURVE",
"588 677 CURVE SMOOTH",
"588 694 OFFCURVE",
"577 705 OFFCURVE",
"560 705 CURVE SMOOTH",
"38 705 LINE SMOOTH",
"21 705 OFFCURVE",
"10 694 OFFCURVE",
"10 677 CURVE SMOOTH",
"10 660 OFFCURVE",
"21 649 OFFCURVE",
"38 649 CURVE SMOOTH",
"268 649 LINE",
"268 28 LINE SMOOTH",
"268 8 OFFCURVE",
"280 -5 OFFCURVE",
"299 -5 CURVE SMOOTH"
);
}
);
width = 598;
},
{
background = {
paths = (
{
closed = 1;
nodes = (
"371 -5 OFFCURVE",
"413 24 OFFCURVE",
"413 85 CURVE SMOOTH",
"413 551 LINE",
"555 551 LINE SMOOTH",
"616 551 OFFCURVE",
"642 578 OFFCURVE",
"642 628 CURVE SMOOTH",
"642 678 OFFCURVE",
"616 705 OFFCURVE",
"555 705 CURVE SMOOTH",
"87 705 LINE SMOOTH",
"26 705 OFFCURVE",
"0 678 OFFCURVE",
"0 628 CURVE SMOOTH",
"0 578 OFFCURVE",
"26 551 OFFCURVE",
"87 551 CURVE SMOOTH",
"229 551 LINE",
"229 85 LINE SMOOTH",
"229 24 OFFCURVE",
"271 -5 OFFCURVE",
"321 -5 CURVE SMOOTH"
);
}
);
};
layerId = "E1B555A7-F4E1-459C-9C1A-AE952106EEF9";
paths = (
{
closed = 1;
nodes = (
"371 -5 OFFCURVE",
"413 24 OFFCURVE",
"413 85 CURVE SMOOTH",
"413 555 LINE",
"555 555 LINE SMOOTH",
"616 555 OFFCURVE",
"642 582 OFFCURVE",
"642 630 CURVE SMOOTH",
"642 678 OFFCURVE",
"616 705 OFFCURVE",
"555 705 CURVE SMOOTH",
"87 705 LINE SMOOTH",
"26 705 OFFCURVE",
"0 678 OFFCURVE",
"0 630 CURVE SMOOTH",
"0 582 OFFCURVE",
"26 555 OFFCURVE",
"87 555 CURVE SMOOTH",
"229 555 LINE",
"229 85 LINE SMOOTH",
"229 24 OFFCURVE",
"271 -5 OFFCURVE",
"321 -5 CURVE SMOOTH"
);
}
);
width = 642;
}
);
unicode = 0054;
userData = {
anchors = (
);
b = {
};
com.typemytype.robofont.layerData = {
b = {
anchors = (
);
components = (
);
contours = (
{
points = (
{
segmentType = curve;
smooth = 1;
x = 581;
y = 0;
},
{
segmentType = line;
smooth = 1;
x = 1350;
y = 0;
},
{
smooth = 0;
x = 1399;
y = 0;
},
{
smooth = 0;
x = 1423;
y = 34;
},
{
segmentType = curve;
smooth = 1;
x = 1423;
y = 71;
},
{
smooth = 0;
x = 1423;
y = 107;
},
{
smooth = 0;
x = 1399;
y = 141;
},
{
segmentType = curve;
smooth = 1;
x = 1350;
y = 141;
},
{
segmentType = line;
smooth = 0;
x = 671;
y = 141;
},
{
segmentType = line;
smooth = 0;
x = 671;
y = 665;
},
{
segmentType = line;
smooth = 1;
x = 1290;
y = 665;
},
{
smooth = 0;
x = 1339;
y = 665;
},
{
smooth = 0;
x = 1364;
y = 698;
},
{
segmentType = curve;
smooth = 1;
x = 1364;
y = 734;
},
{
smooth = 0;
x = 1364;
y = 770;
},
{
smooth = 0;
x = 1341;
y = 803;
},
{
segmentType = curve;
smooth = 1;
x = 1290;
y = 803;
},
{
segmentType = line;
smooth = 0;
x = 671;
y = 803;
},
{
segmentType = line;
smooth = 0;
x = 671;
y = 1285;
},
{
segmentType = line;
smooth = 1;
x = 1322;
y = 1285;
},
{
smooth = 0;
x = 1371;
y = 1285;
},
{
smooth = 0;
x = 1395;
y = 1319;
},
{
segmentType = curve;
smooth = 1;
x = 1395;
y = 1356;
},
{
smooth = 0;
x = 1395;
y = 1392;
},
{
smooth = 0;
x = 1371;
y = 1426;
},
{
segmentType = curve;
smooth = 1;
x = 1322;
y = 1426;
},
{
segmentType = line;
smooth = 1;
x = 576;
y = 1426;
},
{
smooth = 0;
x = 528;
y = 1426;
},
{
smooth = 0;
x = 493;
y = 1383;
},
{
segmentType = curve;
smooth = 1;
x = 493;
y = 1340;
},
{
segmentType = line;
smooth = 1;
x = 493;
y = 86;
},
{
smooth = 0;
x = 493;
y = 41;
},
{
smooth = 0;
x = 537;
y = 0;
}
);
}
);
lib = {
};
name = T;
unicodes = (
);
width = 1158;
};
};
components = (
);
contours = (
);
lib = {
};
name = T;
unicodes = (
);
width = 1199;
};
},
{
glyphname = U;
lastChange = "2016-08-17 19:36:01 +0000";
layers = (
{
background = {
paths = (
{
closed = 1;
nodes = (
"519 -6 OFFCURVE",
"633 70 OFFCURVE",
"633 272 CURVE SMOOTH",
"633 677 LINE SMOOTH",
"633 697 OFFCURVE",
"622 710 OFFCURVE",
"603 710 CURVE SMOOTH",
"587 710 OFFCURVE",
"573 697 OFFCURVE",
"573 677 CURVE SMOOTH",
"573 265 LINE SMOOTH",
"573 109 OFFCURVE",
"486 49 OFFCURVE",
"359 49 CURVE SMOOTH",
"232 49 OFFCURVE",
"145 109 OFFCURVE",
"145 265 CURVE SMOOTH",
"145 677 LINE SMOOTH",
"145 697 OFFCURVE",
"133 710 OFFCURVE",
"115 710 CURVE SMOOTH",
"96 710 OFFCURVE",
"85 697 OFFCURVE",
"85 677 CURVE SMOOTH",
"85 272 LINE SMOOTH",
"85 70 OFFCURVE",
"199 -6 OFFCURVE",
"359 -6 CURVE SMOOTH"
);
}
);
};
layerId = "9E718F8A-2CEA-4931-B05D-987794BD97DA";
paths = (
{
closed = 1;
nodes = (
"519 -6 OFFCURVE",
"633 70 OFFCURVE",
"633 272 CURVE SMOOTH",
"633 677 LINE SMOOTH",
"633 697 OFFCURVE",
"621 710 OFFCURVE",
"602 710 CURVE SMOOTH",
"585 710 OFFCURVE",
"571 697 OFFCURVE",
"571 677 CURVE SMOOTH",
"571 265 LINE SMOOTH",
"571 109 OFFCURVE",
"486 49 OFFCURVE",
"359 49 CURVE SMOOTH",
"232 49 OFFCURVE",
"147 109 OFFCURVE",
"147 265 CURVE SMOOTH",
"147 677 LINE SMOOTH",
"147 697 OFFCURVE",
"135 710 OFFCURVE",
"116 710 CURVE SMOOTH",
"97 710 OFFCURVE",
"85 697 OFFCURVE",
"85 677 CURVE SMOOTH",
"85 272 LINE SMOOTH",
"85 70 OFFCURVE",
"199 -6 OFFCURVE",
"359 -6 CURVE SMOOTH"
);
}
);
width = 718;
},
{
background = {
paths = (
{
closed = 1;
nodes = (
"1345 -19 OFFCURVE",
"1473 68 OFFCURVE",
"1473 239 CURVE SMOOTH",
"1473 608 LINE SMOOTH",
"1473 664 OFFCURVE",
"1433 710 OFFCURVE",
"1383 710 CURVE SMOOTH",
"1333 710 OFFCURVE",
"1293 664 OFFCURVE",
"1293 608 CURVE SMOOTH",
"1293 242 LINE SMOOTH",
"1293 152 OFFCURVE",
"1230 113 OFFCURVE",
"1168 113 CURVE SMOOTH",
"1106 113 OFFCURVE",
"1043 152 OFFCURVE",
"1043 242 CURVE SMOOTH",
"1043 608 LINE SMOOTH",
"1043 664 OFFCURVE",
"1003 710 OFFCURVE",
"953 710 CURVE SMOOTH",
"902 710 OFFCURVE",
"863 664 OFFCURVE",
"863 608 CURVE SMOOTH",
"863 239 LINE SMOOTH",
"863 65 OFFCURVE",
"992 -19 OFFCURVE",
"1168 -19 CURVE SMOOTH"
);
},
{
closed = 1;
nodes = (
"203 -6 OFFCURVE",
"245 23 OFFCURVE",
"245 84 CURVE SMOOTH",
"245 620 LINE SMOOTH",
"245 681 OFFCURVE",
"203 710 OFFCURVE",
"155 710 CURVE SMOOTH",
"107 710 OFFCURVE",
"65 681 OFFCURVE",
"65 620 CURVE SMOOTH",
"65 84 LINE SMOOTH",
"65 23 OFFCURVE",
"107 -6 OFFCURVE",
"155 -6 CURVE SMOOTH"
);
},
{
closed = 1;
nodes = (
"671 -6 OFFCURVE",
"713 23 OFFCURVE",
"713 84 CURVE SMOOTH",
"713 620 LINE SMOOTH",
"713 681 OFFCURVE",
"671 710 OFFCURVE",
"623 710 CURVE SMOOTH",
"575 710 OFFCURVE",
"533 681 OFFCURVE",
"533 620 CURVE SMOOTH",
"533 84 LINE SMOOTH",
"533 23 OFFCURVE",
"575 -6 OFFCURVE",
"623 -6 CURVE SMOOTH"
);
}
);
};
layerId = "E1B555A7-F4E1-459C-9C1A-AE952106EEF9";
paths = (
{
closed = 1;
nodes = (
"577 -7 OFFCURVE",
"689 98 OFFCURVE",
"689 299 CURVE SMOOTH",
"689 620 LINE SMOOTH",
"689 681 OFFCURVE",
"647 710 OFFCURVE",
"599 710 CURVE SMOOTH",
"551 710 OFFCURVE",
"509 681 OFFCURVE",
"509 620 CURVE SMOOTH",
"509 292 LINE SMOOTH",
"509 178 OFFCURVE",
"452 134 OFFCURVE",
"377 134 CURVE SMOOTH",
"302 134 OFFCURVE",
"245 178 OFFCURVE",
"245 292 CURVE SMOOTH",
"245 620 LINE SMOOTH",
"245 681 OFFCURVE",
"203 710 OFFCURVE",
"155 710 CURVE SMOOTH",
"107 710 OFFCURVE",
"65 681 OFFCURVE",
"65 620 CURVE SMOOTH",
"65 299 LINE SMOOTH",
"65 95 OFFCURVE",
"177 -7 OFFCURVE",
"377 -7 CURVE SMOOTH"
);
}
);
width = 754;
}
);
leftMetricsKey = "=H-5";
rightMetricsKey = "=H-5";
unicode = 0055;
userData = {
anchors = (
);
b = {
};
com.typemytype.robofont.layerData = {
b = {
anchors = (
);
components = (
);
contours = (
);
lib = {
};
name = U;
unicodes = (
);
width = 1490;
};
};
components = (
);
contours = (
);
lib = {
};
name = U;
unicodes = (
);
width = 1513;
};
},
{
glyphname = V;
lastChange = "2016-08-17 19:36:01 +0000";
layers = (
{
background = {
paths = (
{
closed = 1;
nodes = (
"323 -13 OFFCURVE",
"366 -11 OFFCURVE",
"378 17 CURVE SMOOTH",
"669 673 LINE SMOOTH",
"684 707 OFFCURVE",
"629 728 OFFCURVE",
"613 692 CURVE SMOOTH",
"329 48 LINE",
"359 48 LINE",
"75 692 LINE SMOOTH",
"59 728 OFFCURVE",
"4 707 OFFCURVE",
"19 673 CURVE SMOOTH",
"310 17 LINE SMOOTH"
);
}
);
};
layerId = "9E718F8A-2CEA-4931-B05D-987794BD97DA";
paths = (
{
closed = 1;
nodes = (
"323 -13 OFFCURVE",
"366 -11 OFFCURVE",
"378 17 CURVE SMOOTH",
"669 673 LINE SMOOTH",
"684 707 OFFCURVE",
"628 728 OFFCURVE",
"612 692 CURVE SMOOTH",
"329 48 LINE",
"359 48 LINE",
"76 692 LINE SMOOTH",
"60 728 OFFCURVE",
"4 707 OFFCURVE",
"19 673 CURVE SMOOTH",
"310 17 LINE SMOOTH"
);
}
);
width = 688;
},
{
background = {
paths = (
{
closed = 1;
nodes = (
"923 761 OFFCURVE",
"762 694 OFFCURVE",
"810 595 CURVE SMOOTH",
"1074 53 LINE SMOOTH",
"1111 -23 OFFCURVE",
"1228 -21 OFFCURVE",
"1264 53 CURVE SMOOTH",
"1528 595 LINE SMOOTH",
"1576 694 OFFCURVE",
"1415 761 OFFCURVE",
"1370 663 CURVE SMOOTH",
"1147 178 LINE",
"1191 178 LINE",
"968 663 LINE SMOOTH"
);
},
{
closed = 1;
nodes = (
"311 -23 OFFCURVE",
"428 -21 OFFCURVE",
"464 53 CURVE SMOOTH",
"728 595 LINE SMOOTH",
"776 694 OFFCURVE",
"616 761 OFFCURVE",
"571 663 CURVE SMOOTH",
"346 178 LINE",
"401 178 LINE",
"175 663 LINE SMOOTH",
"129 761 OFFCURVE",
"-38 694 OFFCURVE",
"10 595 CURVE SMOOTH",
"274 53 LINE SMOOTH"
);
}
);
};
layerId = "E1B555A7-F4E1-459C-9C1A-AE952106EEF9";
paths = (
{
closed = 1;
nodes = (
"311 -23 OFFCURVE",
"428 -21 OFFCURVE",
"464 53 CURVE SMOOTH",
"728 595 LINE SMOOTH",
"776 694 OFFCURVE",
"618 761 OFFCURVE",
"573 663 CURVE SMOOTH",
"348 178 LINE",
"396 178 LINE",
"170 663 LINE SMOOTH",
"124 761 OFFCURVE",
"-38 694 OFFCURVE",
"10 595 CURVE SMOOTH",
"274 53 LINE SMOOTH"
);
}
);
width = 738;
}
);
unicode = 0056;
userData = {
anchors = (
);
b = {
};
com.typemytype.robofont.guides = (
);
com.typemytype.robofont.layerData = {
b = {
anchors = (
);
components = (
);
contours = (
{
points = (
{
segmentType = curve;
smooth = 1;
x = 644;
y = "-5";
},
{
smooth = 0;
x = 712;
y = "-5";
},
{
smooth = 0;
x = 764;
y = 38;
},
{
segmentType = curve;
smooth = 1;
x = 793;
y = 117;
},
{
segmentType = line;
smooth = 1;
x = 1243;
y = 1324;
},
{
smooth = 0;
x = 1247;
y = 1335;
},
{
smooth = 0;
x = 1248;
y = 1342;
},
{
segmentType = curve;
smooth = 1;
x = 1248;
y = 1351;
},
{
smooth = 0;
x = 1248;
y = 1395;
},
{
smooth = 0;
x = 1203;
y = 1427;
},
{
segmentType = curve;
smooth = 1;
x = 1160;
y = 1427;
},
{
smooth = 0;
x = 1125;
y = 1427;
},
{
smooth = 0;
x = 1090;
y = 1408;
},
{
segmentType = curve;
smooth = 1;
x = 1076;
y = 1369;
},
{
segmentType = line;
smooth = 0;
x = 651;
y = 192;
},
{
segmentType = line;
smooth = 0;
x = 650;
y = 190;
},
{
segmentType = line;
smooth = 1;
x = 214;
y = 1370;
},
{
smooth = 0;
x = 200;
y = 1407;
},
{
smooth = 0;
x = 170;
y = 1427;
},
{
segmentType = curve;
smooth = 1;
x = 135;
y = 1427;
},
{
smooth = 0;
x = 90;
y = 1427;
},
{
smooth = 0;
x = 43;
y = 1392;
},
{
segmentType = curve;
smooth = 1;
x = 43;
y = 1344;
},
{
smooth = 0;
x = 43;
y = 1336;
},
{
smooth = 0;
x = 44;
y = 1326;
},
{
segmentType = curve;
smooth = 0;
x = 48;
y = 1318;
},
{
segmentType = line;
smooth = 1;
x = 501;
y = 117;
},
{
smooth = 0;
x = 532;
y = 35;
},
{
smooth = 0;
x = 581;
y = "-5";
}
);
}
);
lib = {
};
name = V;
unicodes = (
);
width = 1289;
};
};
components = (
);
contours = (
);
lib = {
};
name = V;
unicodes = (
);
width = 1365;
};
},
{
glyphname = W;
lastChange = "2016-08-17 19:36:01 +0000";
layers = (
{
background = {
paths = (
{
closed = 1;
nodes = (
"292 -14 OFFCURVE",
"339 -12 OFFCURVE",
"349 17 CURVE SMOOTH",
"568 637 LINE",
"542 637 LINE",
"760 17 LINE SMOOTH",
"771 -14 OFFCURVE",
"818 -12 OFFCURVE",
"828 17 CURVE SMOOTH",
"1062 673 LINE SMOOTH",
"1075 709 OFFCURVE",
"1018 727 OFFCURVE",
"1006 692 CURVE SMOOTH",
"779 48 LINE",
"809 48 LINE",
"587 683 LINE SMOOTH",
"576 716 OFFCURVE",
"534 716 OFFCURVE",
"523 684 CURVE SMOOTH",
"300 48 LINE",
"330 48 LINE",
"103 692 LINE SMOOTH",
"91 727 OFFCURVE",
"34 709 OFFCURVE",
"47 673 CURVE SMOOTH",
"281 17 LINE SMOOTH"
);
}
);
};
layerId = "9E718F8A-2CEA-4931-B05D-987794BD97DA";
paths = (
{
closed = 1;
nodes = (
"290 -14 OFFCURVE",
"335 -12 OFFCURVE",
"345 17 CURVE SMOOTH",
"566 637 LINE",
"544 637 LINE",
"764 17 LINE SMOOTH",
"775 -14 OFFCURVE",
"820 -12 OFFCURVE",
"830 17 CURVE SMOOTH",
"1062 673 LINE SMOOTH",
"1075 709 OFFCURVE",
"1018 727 OFFCURVE",
"1006 692 CURVE SMOOTH",
"781 48 LINE",
"811 48 LINE",
"587 683 LINE SMOOTH",
"575 716 OFFCURVE",
"534 716 OFFCURVE",
"523 684 CURVE SMOOTH",
"298 48 LINE",
"328 48 LINE",
"103 692 LINE SMOOTH",
"91 727 OFFCURVE",
"34 709 OFFCURVE",
"47 673 CURVE SMOOTH",
"279 17 LINE SMOOTH"
);
}
);
width = 1109;
},
{
background = {
paths = (
{
closed = 1;
nodes = (
"1352 755 OFFCURVE",
"1185 717 OFFCURVE",
"1231 595 CURVE SMOOTH",
"1434 53 LINE SMOOTH",
"1464 -26 OFFCURVE",
"1595 -25 OFFCURVE",
"1624 53 CURVE SMOOTH",
"1828 595 LINE SMOOTH",
"1874 717 OFFCURVE",
"1707 755 OFFCURVE",
"1672 654 CURVE SMOOTH",
"1502 171 LINE",
"1556 171 LINE",
"1387 654 LINE SMOOTH"
);
},
{
closed = 1;
nodes = (
"1801 755 OFFCURVE",
"1634 717 OFFCURVE",
"1680 595 CURVE SMOOTH",
"1883 53 LINE SMOOTH",
"1913 -26 OFFCURVE",
"2044 -25 OFFCURVE",
"2073 53 CURVE SMOOTH",
"2277 595 LINE SMOOTH",
"2323 717 OFFCURVE",
"2156 755 OFFCURVE",
"2121 654 CURVE SMOOTH",
"1951 171 LINE",
"2005 171 LINE",
"1836 654 LINE SMOOTH"
);
},
{
closed = 1;
nodes = (
"264 -26 OFFCURVE",
"396 -25 OFFCURVE",
"424 53 CURVE SMOOTH",
"569 451 LINE",
"545 451 LINE",
"685 53 LINE SMOOTH",
"713 -26 OFFCURVE",
"844 -25 OFFCURVE",
"873 53 CURVE SMOOTH",
"1077 595 LINE SMOOTH",
"1123 717 OFFCURVE",
"957 755 OFFCURVE",
"921 654 CURVE SMOOTH",
"759 206 LINE",
"793 206 LINE",
"642 654 LINE SMOOTH",
"615 732 OFFCURVE",
"507 732 OFFCURVE",
"478 654 CURVE SMOOTH",
"314 206 LINE",
"357 206 LINE",
"197 654 LINE SMOOTH",
"161 755 OFFCURVE",
"-15 717 OFFCURVE",
"31 595 CURVE SMOOTH",
"234 53 LINE SMOOTH"
);
}
);
};
layerId = "E1B555A7-F4E1-459C-9C1A-AE952106EEF9";
paths = (
{
closed = 1;
nodes = (
"261 -26 OFFCURVE",
"391 -25 OFFCURVE",
"420 53 CURVE SMOOTH",
"567 453 LINE",
"545 453 LINE",
"687 53 LINE SMOOTH",
"715 -26 OFFCURVE",
"846 -25 OFFCURVE",
"875 53 CURVE SMOOTH",
"1077 595 LINE SMOOTH",
"1123 717 OFFCURVE",
"959 755 OFFCURVE",
"923 654 CURVE SMOOTH",
"763 204 LINE",
"793 204 LINE",
"640 654 LINE SMOOTH",
"614 732 OFFCURVE",
"509 732 OFFCURVE",
"480 654 CURVE SMOOTH",
"314 204 LINE",
"353 204 LINE",
"195 654 LINE SMOOTH",
"159 755 OFFCURVE",
"-14 717 OFFCURVE",
"31 595 CURVE SMOOTH",
"232 53 LINE SMOOTH"
);
}
);
width = 1107;
}
);
unicode = 0057;
userData = {
anchors = (
);
b = {
};
com.typemytype.robofont.layerData = {
b = {
anchors = (
);
components = (
);
contours = (
);
lib = {
};
name = W;
unicodes = (
);
width = 2126;
};
};
components = (
);
contours = (
);
lib = {
};
name = W;
unicodes = (
);
width = 2070;
};
},
{
glyphname = X;
lastChange = "2016-08-17 19:36:01 +0000";
layers = (
{
background = {
paths = (
{
closed = 1;
nodes = (
"586 661 LINE SMOOTH",
"611 692 OFFCURVE",
"566 728 OFFCURVE",
"541 697 CURVE SMOOTH",
"29 44 LINE SMOOTH",
"4 13 OFFCURVE",
"49 -23 OFFCURVE",
"74 8 CURVE SMOOTH"
);
},
{
closed = 1;
nodes = (
"579 -23 OFFCURVE",
"624 13 OFFCURVE",
"599 44 CURVE SMOOTH",
"87 697 LINE SMOOTH",
"62 728 OFFCURVE",
"17 692 OFFCURVE",
"42 661 CURVE SMOOTH",
"554 8 LINE SMOOTH"
);
}
);
};
layerId = "9E718F8A-2CEA-4931-B05D-987794BD97DA";
paths = (
{
closed = 1;
nodes = (
"579 -23 OFFCURVE",
"624 13 OFFCURVE",
"599 44 CURVE SMOOTH",
"350 361 LINE",
"314 406 LINE",
"87 697 LINE SMOOTH",
"62 729 OFFCURVE",
"17 692 OFFCURVE",
"42 661 CURVE SMOOTH",
"278 361 LINE",
"314 315 LINE",
"554 8 LINE SMOOTH"
);
},
{
closed = 1;
nodes = (
"314 315 LINE",
"350 361 LINE",
"586 661 LINE SMOOTH",
"611 692 OFFCURVE",
"566 729 OFFCURVE",
"541 697 CURVE SMOOTH",
"314 406 LINE",
"278 361 LINE",
"29 44 LINE SMOOTH",
"4 13 OFFCURVE",
"49 -23 OFFCURVE",
"74 8 CURVE SMOOTH"
);
}
);
width = 628;
},
{
background = {
paths = (
{
closed = 1;
nodes = (
"1292 -7 OFFCURVE",
"1328 30 OFFCURVE",
"1328 74 CURVE SMOOTH",
"1328 91 OFFCURVE",
"1322 109 OFFCURVE",
"1309 126 CURVE SMOOTH",
"1128 363 LINE",
"1307 584 LINE SMOOTH",
"1319 598 OFFCURVE",
"1322 614 OFFCURVE",
"1322 629 CURVE SMOOTH",
"1322 669 OFFCURVE",
"1290 706 OFFCURVE",
"1250 706 CURVE SMOOTH",
"1226 706 OFFCURVE",
"1198 692 OFFCURVE",
"1173 655 CURVE",
"1040 479 LINE",
"896 667 LINE",
"873 700 OFFCURVE",
"845 713 OFFCURVE",
"819 713 CURVE SMOOTH",
"778 713 OFFCURVE",
"742 680 OFFCURVE",
"742 634 CURVE SMOOTH",
"742 615 OFFCURVE",
"749 594 OFFCURVE",
"763 572 CURVE",
"929 357 LINE",
"754 151 LINE",
"735 125 OFFCURVE",
"727 101 OFFCURVE",
"727 79 CURVE SMOOTH",
"727 36 OFFCURVE",
"760 5 OFFCURVE",
"798 5 CURVE SMOOTH",
"822 5 OFFCURVE",
"849 18 OFFCURVE",
"870 47 CURVE",
"1020 238 LINE",
"1170 43 LINE",
"1195 7 OFFCURVE",
"1224 -7 OFFCURVE",
"1250 -7 CURVE SMOOTH"
);
},
{
closed = 1;
nodes = (
"-29 47 OFFCURVE",
"99 -59 OFFCURVE",
"169 23 CURVE SMOOTH",
"636 572 LINE SMOOTH",
"709 657 OFFCURVE",
"581 763 OFFCURVE",
"511 681 CURVE SMOOTH",
"44 132 LINE SMOOTH"
);
},
{
closed = 1;
nodes = (
"174 681 LINE SMOOTH",
"104 763 OFFCURVE",
"-24 657 OFFCURVE",
"49 572 CURVE SMOOTH",
"516 23 LINE SMOOTH",
"586 -59 OFFCURVE",
"714 47 OFFCURVE",
"641 132 CURVE SMOOTH"
);
}
);
};
layerId = "E1B555A7-F4E1-459C-9C1A-AE952106EEF9";
paths = (
{
closed = 1;
nodes = (
"585 -60 OFFCURVE",
"715 47 OFFCURVE",
"641 132 CURVE SMOOTH",
"449 355 LINE",
"343 481 LINE",
"174 681 LINE SMOOTH",
"104 763 OFFCURVE",
"-24 657 OFFCURVE",
"49 572 CURVE SMOOTH",
"236 355 LINE",
"343 229 LINE",
"516 23 LINE SMOOTH"
);
},
{
closed = 1;
nodes = (
"343 229 LINE",
"449 355 LINE",
"636 572 LINE SMOOTH",
"709 656 OFFCURVE",
"580 764 OFFCURVE",
"511 681 CURVE SMOOTH",
"343 481 LINE",
"236 355 LINE",
"44 132 LINE SMOOTH",
"-29 47 OFFCURVE",
"99 -59 OFFCURVE",
"169 23 CURVE SMOOTH"
);
}
);
width = 685;
}
);
unicode = 0058;
userData = {
anchors = (
);
b = {
};
com.typemytype.robofont.layerData = {
b = {
anchors = (
);
components = (
);
contours = (
{
points = (
{
segmentType = curve;
smooth = 1;
x = 151;
y = 0;
},
{
smooth = 0;
x = 176;
y = 0;
},
{
smooth = 0;
x = 201;
y = 12;
},
{
segmentType = curve;
smooth = 1;
x = 222;
y = 41;
},
{
segmentType = line;
smooth = 0;
x = 641;
y = 616;
},
{
segmentType = line;
smooth = 0;
x = 746;
y = 734;
},
{
segmentType = line;
smooth = 1;
x = 1175;
y = 1310;
},
{
smooth = 0;
x = 1186;
y = 1325;
},
{
smooth = 0;
x = 1190;
y = 1338;
},
{
segmentType = curve;
smooth = 1;
x = 1190;
y = 1353;
},
{
smooth = 0;
x = 1190;
y = 1393;
},
{
smooth = 0;
x = 1153;
y = 1426;
},
{
segmentType = curve;
smooth = 1;
x = 1110;
y = 1426;
},
{
smooth = 0;
x = 1083;
y = 1426;
},
{
smooth = 0;
x = 1058;
y = 1414;
},
{
segmentType = curve;
smooth = 1;
x = 1037;
y = 1385;
},
{
segmentType = line;
smooth = 0;
x = 648;
y = 844;
},
{
segmentType = line;
smooth = 0;
x = 542;
y = 732;
},
{
segmentType = line;
smooth = 1;
x = 84;
y = 121;
},
{
smooth = 0;
x = 73;
y = 106;
},
{
smooth = 0;
x = 68;
y = 91;
},
{
segmentType = curve;
smooth = 1;
x = 68;
y = 76;
},
{
smooth = 0;
x = 68;
y = 35;
},
{
smooth = 0;
x = 108;
y = 0;
}
);
},
{
points = (
{
segmentType = curve;
smooth = 1;
x = 1104;
y = 0;
},
{
smooth = 0;
x = 1151;
y = 0;
},
{
smooth = 0;
x = 1200;
y = 40;
},
{
segmentType = curve;
smooth = 1;
x = 1200;
y = 85;
},
{
smooth = 0;
x = 1200;
y = 98;
},
{
smooth = 0;
x = 1195;
y = 113;
},
{
segmentType = curve;
smooth = 0;
x = 1186;
y = 126;
},
{
segmentType = line;
smooth = 0;
x = 272;
y = 1385;
},
{
smooth = 0;
x = 252;
y = 1414;
},
{
smooth = 0;
x = 225;
y = 1426;
},
{
segmentType = curve;
smooth = 1;
x = 197;
y = 1426;
},
{
smooth = 0;
x = 149;
y = 1426;
},
{
smooth = 0;
x = 100;
y = 1388;
},
{
segmentType = curve;
smooth = 1;
x = 100;
y = 1343;
},
{
smooth = 0;
x = 100;
y = 1328;
},
{
smooth = 0;
x = 105;
y = 1315;
},
{
segmentType = curve;
smooth = 0;
x = 114;
y = 1303;
},
{
segmentType = line;
smooth = 0;
x = 1033;
y = 40;
},
{
smooth = 0;
x = 1052;
y = 13;
},
{
smooth = 0;
x = 1076;
y = 0;
}
);
}
);
lib = {
};
name = X;
unicodes = (
);
width = 1274;
};
};
components = (
);
contours = (
);
lib = {
};
name = X;
unicodes = (
);
width = 1322;
};
},
{
glyphname = Y;
lastChange = "2016-08-17 19:36:01 +0000";
layers = (
{
background = {
paths = (
{
closed = 1;
nodes = (
"331 361 LINE",
"567 661 LINE SMOOTH",
"592 692 OFFCURVE",
"547 729 OFFCURVE",
"522 697 CURVE SMOOTH",
"295 406 LINE",
"68 697 LINE SMOOTH",
"43 729 OFFCURVE",
"-2 692 OFFCURVE",
"23 661 CURVE SMOOTH",
"259 361 LINE"
);
},
{
closed = 1;
nodes = (
"315 -5 OFFCURVE",
"326 8 OFFCURVE",
"326 28 CURVE SMOOTH",
"326 377 LINE",
"266 377 LINE",
"266 28 LINE SMOOTH",
"266 8 OFFCURVE",
"277 -5 OFFCURVE",
"296 -5 CURVE SMOOTH"
);
}
);
};
layerId = "9E718F8A-2CEA-4931-B05D-987794BD97DA";
paths = (
{
closed = 1;
nodes = (
"315 -5 OFFCURVE",
"326 8 OFFCURVE",
"326 28 CURVE SMOOTH",
"326 371 LINE",
"313 323 LINE",
"576 661 LINE SMOOTH",
"600 692 OFFCURVE",
"556 729 OFFCURVE",
"531 697 CURVE SMOOTH",
"287 381 LINE",
"305 381 LINE",
"61 697 LINE SMOOTH",
"36 729 OFFCURVE",
"-8 692 OFFCURVE",
"16 661 CURVE SMOOTH",
"279 323 LINE",
"266 371 LINE",
"266 28 LINE SMOOTH",
"266 8 OFFCURVE",
"277 -5 OFFCURVE",
"296 -5 CURVE SMOOTH"
);
}
);
width = 592;
},
{
background = {
paths = (
{
closed = 1;
nodes = (
"305 447 LINE",
"345 447 LINE",
"149 681 LINE SMOOTH",
"79 764 OFFCURVE",
"-50 657 OFFCURVE",
"24 572 CURVE SMOOTH",
"271 286 LINE",
"233 385 LINE",
"233 84 LINE SMOOTH",
"233 23 OFFCURVE",
"275 -6 OFFCURVE",
"325 -6 CURVE SMOOTH",
"375 -6 OFFCURVE",
"417 23 OFFCURVE",
"417 84 CURVE SMOOTH",
"417 385 LINE",
"379 286 LINE",
"626 572 LINE SMOOTH",
"700 657 OFFCURVE",
"571 764 OFFCURVE",
"501 681 CURVE SMOOTH"
);
}
);
};
layerId = "E1B555A7-F4E1-459C-9C1A-AE952106EEF9";
paths = (
{
closed = 1;
nodes = (
"375 -6 OFFCURVE",
"417 23 OFFCURVE",
"417 84 CURVE SMOOTH",
"417 385 LINE",
"379 286 LINE",
"626 572 LINE SMOOTH",
"700 657 OFFCURVE",
"573 764 OFFCURVE",
"503 681 CURVE SMOOTH",
"307 447 LINE",
"343 447 LINE",
"147 681 LINE SMOOTH",
"77 764 OFFCURVE",
"-50 657 OFFCURVE",
"24 572 CURVE SMOOTH",
"271 286 LINE",
"233 385 LINE",
"233 84 LINE SMOOTH",
"233 23 OFFCURVE",
"275 -6 OFFCURVE",
"325 -6 CURVE SMOOTH"
);
}
);
width = 650;
}
);
unicode = 0059;
userData = {
anchors = (
);
b = {
};
com.typemytype.robofont.guides = (
);
com.typemytype.robofont.layerData = {
b = {
anchors = (
);
components = (
);
contours = (
{
points = (
{
segmentType = curve;
smooth = 1;
x = 641;
y = 0;
},
{
smooth = 0;
x = 685;
y = 0;
},
{
smooth = 0;
x = 730;
y = 29;
},
{
segmentType = curve;
smooth = 1;
x = 730;
y = 85;
},
{
segmentType = line;
smooth = 0;
x = 730;
y = 1285;
},
{
segmentType = line;
smooth = 1;
x = 1115;
y = 1285;
},
{
smooth = 0;
x = 1164;
y = 1285;
},
{
smooth = 0;
x = 1190;
y = 1319;
},
{
segmentType = curve;
smooth = 1;
x = 1190;
y = 1355;
},
{
smooth = 0;
x = 1190;
y = 1392;
},
{
smooth = 0;
x = 1166;
y = 1426;
},
{
segmentType = curve;
smooth = 1;
x = 1115;
y = 1426;
},
{
segmentType = line;
smooth = 1;
x = 160;
y = 1426;
},
{
smooth = 0;
x = 111;
y = 1426;
},
{
smooth = 0;
x = 86;
y = 1392;
},
{
segmentType = curve;
smooth = 1;
x = 86;
y = 1355;
},
{
smooth = 0;
x = 86;
y = 1319;
},
{
smooth = 0;
x = 111;
y = 1285;
},
{
segmentType = curve;
smooth = 1;
x = 160;
y = 1285;
},
{
segmentType = line;
smooth = 0;
x = 552;
y = 1285;
},
{
segmentType = line;
smooth = 1;
x = 552;
y = 85;
},
{
smooth = 0;
x = 552;
y = 29;
},
{
smooth = 0;
x = 596;
y = 0;
}
);
}
);
lib = {
};
name = Y;
unicodes = (
);
width = 1278;
};
};
components = (
);
contours = (
);
lib = {
};
name = Y;
unicodes = (
);
width = 1321;
};
},
{
glyphname = Z;
lastChange = "2016-08-17 19:36:01 +0000";
layers = (
{
background = {
paths = (
{
closed = 1;
nodes = (
"1202 0 LINE SMOOTH",
"1221 0 OFFCURVE",
"1230 10 OFFCURVE",
"1230 24 CURVE SMOOTH",
"1230 38 OFFCURVE",
"1221 48 OFFCURVE",
"1202 48 CURVE SMOOTH",
"820 48 LINE",
"1225 628 LINE SMOOTH",
"1233 639 OFFCURVE",
"1236 650 OFFCURVE",
"1236 659 CURVE SMOOTH",
"1236 679 OFFCURVE",
"1222 693 OFFCURVE",
"1199 693 CURVE SMOOTH",
"789 693 LINE SMOOTH",
"770 693 OFFCURVE",
"761 682 OFFCURVE",
"761 669 CURVE SMOOTH",
"761 654 OFFCURVE",
"771 645 OFFCURVE",
"789 645 CURVE SMOOTH",
"1174 645 LINE",
"767 65 LINE",
"762 57 OFFCURVE",
"759 48 OFFCURVE",
"759 39 CURVE SMOOTH",
"759 19 OFFCURVE",
"772 0 OFFCURVE",
"806 0 CURVE SMOOTH"
);
},
{
closed = 1;
nodes = (
"471 0 OFFCURVE",
"485 14 OFFCURVE",
"485 31 CURVE SMOOTH",
"485 674 LINE SMOOTH",
"485 692 OFFCURVE",
"471 705 OFFCURVE",
"452 705 CURVE SMOOTH",
"72 705 LINE SMOOTH",
"55 705 OFFCURVE",
"44 694 OFFCURVE",
"44 677 CURVE SMOOTH",
"44 660 OFFCURVE",
"55 649 OFFCURVE",
"72 649 CURVE SMOOTH",
"425 649 LINE",
"425 386 LINE",
"92 386 LINE SMOOTH",
"75 386 OFFCURVE",
"64 375 OFFCURVE",
"64 358 CURVE SMOOTH",
"64 341 OFFCURVE",
"75 330 OFFCURVE",
"92 330 CURVE SMOOTH",
"425 330 LINE",
"425 56 LINE",
"72 56 LINE SMOOTH",
"55 56 OFFCURVE",
"44 45 OFFCURVE",
"44 28 CURVE SMOOTH",
"44 11 OFFCURVE",
"55 0 OFFCURVE",
"72 0 CURVE SMOOTH",
"452 0 LINE SMOOTH"
);
}
